G75*
%MOIN*%
%OFA0B0*%
%FSLAX25Y25*%
%IPPOS*%
%LPD*%
%AMOC8*
5,1,8,0,0,1.08239X$1,22.5*
%
%ADD10C,0.00500*%
%ADD11C,0.17717*%
%ADD12C,0.05906*%
%ADD13R,0.05906X0.03150*%
%ADD14R,0.09843X0.04724*%
%ADD15C,0.00000*%
%ADD16C,0.06000*%
%ADD17C,0.02381*%
%ADD18C,0.02400*%
%ADD19C,0.00787*%
%ADD20C,0.01600*%
D10*
X0010859Y0008937D02*
X0010859Y0316024D01*
X0010861Y0316148D01*
X0010867Y0316271D01*
X0010876Y0316395D01*
X0010890Y0316517D01*
X0010907Y0316640D01*
X0010929Y0316762D01*
X0010954Y0316883D01*
X0010983Y0317003D01*
X0011015Y0317122D01*
X0011052Y0317241D01*
X0011092Y0317358D01*
X0011135Y0317473D01*
X0011183Y0317588D01*
X0011234Y0317700D01*
X0011288Y0317811D01*
X0011346Y0317921D01*
X0011407Y0318028D01*
X0011472Y0318134D01*
X0011540Y0318237D01*
X0011611Y0318338D01*
X0011685Y0318437D01*
X0011762Y0318534D01*
X0011843Y0318628D01*
X0011926Y0318719D01*
X0012012Y0318808D01*
X0012101Y0318894D01*
X0012192Y0318977D01*
X0012286Y0319058D01*
X0012383Y0319135D01*
X0012482Y0319209D01*
X0012583Y0319280D01*
X0012686Y0319348D01*
X0012792Y0319413D01*
X0012899Y0319474D01*
X0013009Y0319532D01*
X0013120Y0319586D01*
X0013232Y0319637D01*
X0013347Y0319685D01*
X0013462Y0319728D01*
X0013579Y0319768D01*
X0013698Y0319805D01*
X0013817Y0319837D01*
X0013937Y0319866D01*
X0014058Y0319891D01*
X0014180Y0319913D01*
X0014303Y0319930D01*
X0014425Y0319944D01*
X0014549Y0319953D01*
X0014672Y0319959D01*
X0014796Y0319961D01*
X0203772Y0319961D01*
X0203896Y0319959D01*
X0204019Y0319953D01*
X0204143Y0319944D01*
X0204265Y0319930D01*
X0204388Y0319913D01*
X0204510Y0319891D01*
X0204631Y0319866D01*
X0204751Y0319837D01*
X0204870Y0319805D01*
X0204989Y0319768D01*
X0205106Y0319728D01*
X0205221Y0319685D01*
X0205336Y0319637D01*
X0205448Y0319586D01*
X0205559Y0319532D01*
X0205669Y0319474D01*
X0205776Y0319413D01*
X0205882Y0319348D01*
X0205985Y0319280D01*
X0206086Y0319209D01*
X0206185Y0319135D01*
X0206282Y0319058D01*
X0206376Y0318977D01*
X0206467Y0318894D01*
X0206556Y0318808D01*
X0206642Y0318719D01*
X0206725Y0318628D01*
X0206806Y0318534D01*
X0206883Y0318437D01*
X0206957Y0318338D01*
X0207028Y0318237D01*
X0207096Y0318134D01*
X0207161Y0318028D01*
X0207222Y0317921D01*
X0207280Y0317811D01*
X0207334Y0317700D01*
X0207385Y0317588D01*
X0207433Y0317473D01*
X0207476Y0317358D01*
X0207516Y0317241D01*
X0207553Y0317122D01*
X0207585Y0317003D01*
X0207614Y0316883D01*
X0207639Y0316762D01*
X0207661Y0316640D01*
X0207678Y0316517D01*
X0207692Y0316395D01*
X0207701Y0316271D01*
X0207707Y0316148D01*
X0207709Y0316024D01*
X0207709Y0008937D01*
X0207707Y0008813D01*
X0207701Y0008690D01*
X0207692Y0008566D01*
X0207678Y0008444D01*
X0207661Y0008321D01*
X0207639Y0008199D01*
X0207614Y0008078D01*
X0207585Y0007958D01*
X0207553Y0007839D01*
X0207516Y0007720D01*
X0207476Y0007603D01*
X0207433Y0007488D01*
X0207385Y0007373D01*
X0207334Y0007261D01*
X0207280Y0007150D01*
X0207222Y0007040D01*
X0207161Y0006933D01*
X0207096Y0006827D01*
X0207028Y0006724D01*
X0206957Y0006623D01*
X0206883Y0006524D01*
X0206806Y0006427D01*
X0206725Y0006333D01*
X0206642Y0006242D01*
X0206556Y0006153D01*
X0206467Y0006067D01*
X0206376Y0005984D01*
X0206282Y0005903D01*
X0206185Y0005826D01*
X0206086Y0005752D01*
X0205985Y0005681D01*
X0205882Y0005613D01*
X0205776Y0005548D01*
X0205669Y0005487D01*
X0205559Y0005429D01*
X0205448Y0005375D01*
X0205336Y0005324D01*
X0205221Y0005276D01*
X0205106Y0005233D01*
X0204989Y0005193D01*
X0204870Y0005156D01*
X0204751Y0005124D01*
X0204631Y0005095D01*
X0204510Y0005070D01*
X0204388Y0005048D01*
X0204265Y0005031D01*
X0204143Y0005017D01*
X0204019Y0005008D01*
X0203896Y0005002D01*
X0203772Y0005000D01*
X0014796Y0005000D01*
X0014672Y0005002D01*
X0014549Y0005008D01*
X0014425Y0005017D01*
X0014303Y0005031D01*
X0014180Y0005048D01*
X0014058Y0005070D01*
X0013937Y0005095D01*
X0013817Y0005124D01*
X0013698Y0005156D01*
X0013579Y0005193D01*
X0013462Y0005233D01*
X0013347Y0005276D01*
X0013232Y0005324D01*
X0013120Y0005375D01*
X0013009Y0005429D01*
X0012899Y0005487D01*
X0012792Y0005548D01*
X0012686Y0005613D01*
X0012583Y0005681D01*
X0012482Y0005752D01*
X0012383Y0005826D01*
X0012286Y0005903D01*
X0012192Y0005984D01*
X0012101Y0006067D01*
X0012012Y0006153D01*
X0011926Y0006242D01*
X0011843Y0006333D01*
X0011762Y0006427D01*
X0011685Y0006524D01*
X0011611Y0006623D01*
X0011540Y0006724D01*
X0011472Y0006827D01*
X0011407Y0006933D01*
X0011346Y0007040D01*
X0011288Y0007150D01*
X0011234Y0007261D01*
X0011183Y0007373D01*
X0011135Y0007488D01*
X0011092Y0007603D01*
X0011052Y0007720D01*
X0011015Y0007839D01*
X0010983Y0007958D01*
X0010954Y0008078D01*
X0010929Y0008199D01*
X0010907Y0008321D01*
X0010890Y0008444D01*
X0010876Y0008566D01*
X0010867Y0008690D01*
X0010861Y0008813D01*
X0010859Y0008937D01*
D11*
X0020701Y0014843D03*
X0197867Y0014843D03*
X0197867Y0310118D03*
X0020701Y0310118D03*
D12*
X0041292Y0019449D03*
X0046292Y0014449D03*
X0041292Y0009449D03*
X0051292Y0009449D03*
X0051292Y0019449D03*
X0072788Y0019449D03*
X0077788Y0014449D03*
X0082788Y0019449D03*
X0082788Y0009449D03*
X0072788Y0009449D03*
X0104284Y0009449D03*
X0109284Y0014449D03*
X0114284Y0019449D03*
X0114284Y0009449D03*
X0104284Y0019449D03*
X0135780Y0019449D03*
X0140780Y0014449D03*
X0145780Y0019449D03*
X0145780Y0009449D03*
X0135780Y0009449D03*
X0167276Y0009449D03*
X0172276Y0014449D03*
X0167276Y0019449D03*
X0177276Y0019449D03*
X0177276Y0009449D03*
D13*
X0187827Y0240492D03*
X0187827Y0245492D03*
X0187827Y0250492D03*
X0187827Y0255492D03*
X0187827Y0260492D03*
X0187827Y0265492D03*
X0164599Y0265492D03*
X0164599Y0260492D03*
X0164599Y0255492D03*
X0164599Y0250492D03*
X0164599Y0245492D03*
X0164599Y0240492D03*
D14*
X0166174Y0230197D03*
X0186252Y0230197D03*
X0186252Y0275866D03*
X0166174Y0275866D03*
D15*
X0173063Y0274232D02*
X0173065Y0274344D01*
X0173071Y0274455D01*
X0173081Y0274567D01*
X0173095Y0274678D01*
X0173112Y0274788D01*
X0173134Y0274898D01*
X0173160Y0275007D01*
X0173189Y0275115D01*
X0173222Y0275221D01*
X0173259Y0275327D01*
X0173300Y0275431D01*
X0173345Y0275534D01*
X0173393Y0275635D01*
X0173444Y0275734D01*
X0173499Y0275831D01*
X0173558Y0275926D01*
X0173619Y0276020D01*
X0173684Y0276111D01*
X0173753Y0276199D01*
X0173824Y0276285D01*
X0173898Y0276369D01*
X0173976Y0276449D01*
X0174056Y0276527D01*
X0174139Y0276603D01*
X0174224Y0276675D01*
X0174312Y0276744D01*
X0174402Y0276810D01*
X0174495Y0276872D01*
X0174590Y0276932D01*
X0174687Y0276988D01*
X0174785Y0277040D01*
X0174886Y0277089D01*
X0174988Y0277134D01*
X0175092Y0277176D01*
X0175197Y0277214D01*
X0175304Y0277248D01*
X0175411Y0277278D01*
X0175520Y0277305D01*
X0175629Y0277327D01*
X0175740Y0277346D01*
X0175850Y0277361D01*
X0175962Y0277372D01*
X0176073Y0277379D01*
X0176185Y0277382D01*
X0176297Y0277381D01*
X0176409Y0277376D01*
X0176520Y0277367D01*
X0176631Y0277354D01*
X0176742Y0277337D01*
X0176852Y0277317D01*
X0176961Y0277292D01*
X0177069Y0277264D01*
X0177176Y0277231D01*
X0177282Y0277195D01*
X0177386Y0277155D01*
X0177489Y0277112D01*
X0177591Y0277065D01*
X0177690Y0277014D01*
X0177788Y0276960D01*
X0177884Y0276902D01*
X0177978Y0276841D01*
X0178069Y0276777D01*
X0178158Y0276710D01*
X0178245Y0276639D01*
X0178329Y0276565D01*
X0178411Y0276489D01*
X0178489Y0276409D01*
X0178565Y0276327D01*
X0178638Y0276242D01*
X0178708Y0276155D01*
X0178774Y0276065D01*
X0178838Y0275973D01*
X0178898Y0275879D01*
X0178955Y0275783D01*
X0179008Y0275684D01*
X0179058Y0275584D01*
X0179104Y0275483D01*
X0179147Y0275379D01*
X0179186Y0275274D01*
X0179221Y0275168D01*
X0179252Y0275061D01*
X0179280Y0274952D01*
X0179303Y0274843D01*
X0179323Y0274733D01*
X0179339Y0274622D01*
X0179351Y0274511D01*
X0179359Y0274400D01*
X0179363Y0274288D01*
X0179363Y0274176D01*
X0179359Y0274064D01*
X0179351Y0273953D01*
X0179339Y0273842D01*
X0179323Y0273731D01*
X0179303Y0273621D01*
X0179280Y0273512D01*
X0179252Y0273403D01*
X0179221Y0273296D01*
X0179186Y0273190D01*
X0179147Y0273085D01*
X0179104Y0272981D01*
X0179058Y0272880D01*
X0179008Y0272780D01*
X0178955Y0272681D01*
X0178898Y0272585D01*
X0178838Y0272491D01*
X0178774Y0272399D01*
X0178708Y0272309D01*
X0178638Y0272222D01*
X0178565Y0272137D01*
X0178489Y0272055D01*
X0178411Y0271975D01*
X0178329Y0271899D01*
X0178245Y0271825D01*
X0178158Y0271754D01*
X0178069Y0271687D01*
X0177978Y0271623D01*
X0177884Y0271562D01*
X0177788Y0271504D01*
X0177690Y0271450D01*
X0177591Y0271399D01*
X0177489Y0271352D01*
X0177386Y0271309D01*
X0177282Y0271269D01*
X0177176Y0271233D01*
X0177069Y0271200D01*
X0176961Y0271172D01*
X0176852Y0271147D01*
X0176742Y0271127D01*
X0176631Y0271110D01*
X0176520Y0271097D01*
X0176409Y0271088D01*
X0176297Y0271083D01*
X0176185Y0271082D01*
X0176073Y0271085D01*
X0175962Y0271092D01*
X0175850Y0271103D01*
X0175740Y0271118D01*
X0175629Y0271137D01*
X0175520Y0271159D01*
X0175411Y0271186D01*
X0175304Y0271216D01*
X0175197Y0271250D01*
X0175092Y0271288D01*
X0174988Y0271330D01*
X0174886Y0271375D01*
X0174785Y0271424D01*
X0174687Y0271476D01*
X0174590Y0271532D01*
X0174495Y0271592D01*
X0174402Y0271654D01*
X0174312Y0271720D01*
X0174224Y0271789D01*
X0174139Y0271861D01*
X0174056Y0271937D01*
X0173976Y0272015D01*
X0173898Y0272095D01*
X0173824Y0272179D01*
X0173753Y0272265D01*
X0173684Y0272353D01*
X0173619Y0272444D01*
X0173558Y0272538D01*
X0173499Y0272633D01*
X0173444Y0272730D01*
X0173393Y0272829D01*
X0173345Y0272930D01*
X0173300Y0273033D01*
X0173259Y0273137D01*
X0173222Y0273243D01*
X0173189Y0273349D01*
X0173160Y0273457D01*
X0173134Y0273566D01*
X0173112Y0273676D01*
X0173095Y0273786D01*
X0173081Y0273897D01*
X0173071Y0274009D01*
X0173065Y0274120D01*
X0173063Y0274232D01*
X0173065Y0274344D01*
X0173071Y0274455D01*
X0173081Y0274567D01*
X0173095Y0274678D01*
X0173112Y0274788D01*
X0173134Y0274898D01*
X0173160Y0275007D01*
X0173189Y0275115D01*
X0173222Y0275221D01*
X0173259Y0275327D01*
X0173300Y0275431D01*
X0173345Y0275534D01*
X0173393Y0275635D01*
X0173444Y0275734D01*
X0173499Y0275831D01*
X0173558Y0275926D01*
X0173619Y0276020D01*
X0173684Y0276111D01*
X0173753Y0276199D01*
X0173824Y0276285D01*
X0173898Y0276369D01*
X0173976Y0276449D01*
X0174056Y0276527D01*
X0174139Y0276603D01*
X0174224Y0276675D01*
X0174312Y0276744D01*
X0174402Y0276810D01*
X0174495Y0276872D01*
X0174590Y0276932D01*
X0174687Y0276988D01*
X0174785Y0277040D01*
X0174886Y0277089D01*
X0174988Y0277134D01*
X0175092Y0277176D01*
X0175197Y0277214D01*
X0175304Y0277248D01*
X0175411Y0277278D01*
X0175520Y0277305D01*
X0175629Y0277327D01*
X0175740Y0277346D01*
X0175850Y0277361D01*
X0175962Y0277372D01*
X0176073Y0277379D01*
X0176185Y0277382D01*
X0176297Y0277381D01*
X0176409Y0277376D01*
X0176520Y0277367D01*
X0176631Y0277354D01*
X0176742Y0277337D01*
X0176852Y0277317D01*
X0176961Y0277292D01*
X0177069Y0277264D01*
X0177176Y0277231D01*
X0177282Y0277195D01*
X0177386Y0277155D01*
X0177489Y0277112D01*
X0177591Y0277065D01*
X0177690Y0277014D01*
X0177788Y0276960D01*
X0177884Y0276902D01*
X0177978Y0276841D01*
X0178069Y0276777D01*
X0178158Y0276710D01*
X0178245Y0276639D01*
X0178329Y0276565D01*
X0178411Y0276489D01*
X0178489Y0276409D01*
X0178565Y0276327D01*
X0178638Y0276242D01*
X0178708Y0276155D01*
X0178774Y0276065D01*
X0178838Y0275973D01*
X0178898Y0275879D01*
X0178955Y0275783D01*
X0179008Y0275684D01*
X0179058Y0275584D01*
X0179104Y0275483D01*
X0179147Y0275379D01*
X0179186Y0275274D01*
X0179221Y0275168D01*
X0179252Y0275061D01*
X0179280Y0274952D01*
X0179303Y0274843D01*
X0179323Y0274733D01*
X0179339Y0274622D01*
X0179351Y0274511D01*
X0179359Y0274400D01*
X0179363Y0274288D01*
X0179363Y0274176D01*
X0179359Y0274064D01*
X0179351Y0273953D01*
X0179339Y0273842D01*
X0179323Y0273731D01*
X0179303Y0273621D01*
X0179280Y0273512D01*
X0179252Y0273403D01*
X0179221Y0273296D01*
X0179186Y0273190D01*
X0179147Y0273085D01*
X0179104Y0272981D01*
X0179058Y0272880D01*
X0179008Y0272780D01*
X0178955Y0272681D01*
X0178898Y0272585D01*
X0178838Y0272491D01*
X0178774Y0272399D01*
X0178708Y0272309D01*
X0178638Y0272222D01*
X0178565Y0272137D01*
X0178489Y0272055D01*
X0178411Y0271975D01*
X0178329Y0271899D01*
X0178245Y0271825D01*
X0178158Y0271754D01*
X0178069Y0271687D01*
X0177978Y0271623D01*
X0177884Y0271562D01*
X0177788Y0271504D01*
X0177690Y0271450D01*
X0177591Y0271399D01*
X0177489Y0271352D01*
X0177386Y0271309D01*
X0177282Y0271269D01*
X0177176Y0271233D01*
X0177069Y0271200D01*
X0176961Y0271172D01*
X0176852Y0271147D01*
X0176742Y0271127D01*
X0176631Y0271110D01*
X0176520Y0271097D01*
X0176409Y0271088D01*
X0176297Y0271083D01*
X0176185Y0271082D01*
X0176073Y0271085D01*
X0175962Y0271092D01*
X0175850Y0271103D01*
X0175740Y0271118D01*
X0175629Y0271137D01*
X0175520Y0271159D01*
X0175411Y0271186D01*
X0175304Y0271216D01*
X0175197Y0271250D01*
X0175092Y0271288D01*
X0174988Y0271330D01*
X0174886Y0271375D01*
X0174785Y0271424D01*
X0174687Y0271476D01*
X0174590Y0271532D01*
X0174495Y0271592D01*
X0174402Y0271654D01*
X0174312Y0271720D01*
X0174224Y0271789D01*
X0174139Y0271861D01*
X0174056Y0271937D01*
X0173976Y0272015D01*
X0173898Y0272095D01*
X0173824Y0272179D01*
X0173753Y0272265D01*
X0173684Y0272353D01*
X0173619Y0272444D01*
X0173558Y0272538D01*
X0173499Y0272633D01*
X0173444Y0272730D01*
X0173393Y0272829D01*
X0173345Y0272930D01*
X0173300Y0273033D01*
X0173259Y0273137D01*
X0173222Y0273243D01*
X0173189Y0273349D01*
X0173160Y0273457D01*
X0173134Y0273566D01*
X0173112Y0273676D01*
X0173095Y0273786D01*
X0173081Y0273897D01*
X0173071Y0274009D01*
X0173065Y0274120D01*
X0173063Y0274232D01*
X0173063Y0231831D02*
X0173065Y0231943D01*
X0173071Y0232054D01*
X0173081Y0232166D01*
X0173095Y0232277D01*
X0173112Y0232387D01*
X0173134Y0232497D01*
X0173160Y0232606D01*
X0173189Y0232714D01*
X0173222Y0232820D01*
X0173259Y0232926D01*
X0173300Y0233030D01*
X0173345Y0233133D01*
X0173393Y0233234D01*
X0173444Y0233333D01*
X0173499Y0233430D01*
X0173558Y0233525D01*
X0173619Y0233619D01*
X0173684Y0233710D01*
X0173753Y0233798D01*
X0173824Y0233884D01*
X0173898Y0233968D01*
X0173976Y0234048D01*
X0174056Y0234126D01*
X0174139Y0234202D01*
X0174224Y0234274D01*
X0174312Y0234343D01*
X0174402Y0234409D01*
X0174495Y0234471D01*
X0174590Y0234531D01*
X0174687Y0234587D01*
X0174785Y0234639D01*
X0174886Y0234688D01*
X0174988Y0234733D01*
X0175092Y0234775D01*
X0175197Y0234813D01*
X0175304Y0234847D01*
X0175411Y0234877D01*
X0175520Y0234904D01*
X0175629Y0234926D01*
X0175740Y0234945D01*
X0175850Y0234960D01*
X0175962Y0234971D01*
X0176073Y0234978D01*
X0176185Y0234981D01*
X0176297Y0234980D01*
X0176409Y0234975D01*
X0176520Y0234966D01*
X0176631Y0234953D01*
X0176742Y0234936D01*
X0176852Y0234916D01*
X0176961Y0234891D01*
X0177069Y0234863D01*
X0177176Y0234830D01*
X0177282Y0234794D01*
X0177386Y0234754D01*
X0177489Y0234711D01*
X0177591Y0234664D01*
X0177690Y0234613D01*
X0177788Y0234559D01*
X0177884Y0234501D01*
X0177978Y0234440D01*
X0178069Y0234376D01*
X0178158Y0234309D01*
X0178245Y0234238D01*
X0178329Y0234164D01*
X0178411Y0234088D01*
X0178489Y0234008D01*
X0178565Y0233926D01*
X0178638Y0233841D01*
X0178708Y0233754D01*
X0178774Y0233664D01*
X0178838Y0233572D01*
X0178898Y0233478D01*
X0178955Y0233382D01*
X0179008Y0233283D01*
X0179058Y0233183D01*
X0179104Y0233082D01*
X0179147Y0232978D01*
X0179186Y0232873D01*
X0179221Y0232767D01*
X0179252Y0232660D01*
X0179280Y0232551D01*
X0179303Y0232442D01*
X0179323Y0232332D01*
X0179339Y0232221D01*
X0179351Y0232110D01*
X0179359Y0231999D01*
X0179363Y0231887D01*
X0179363Y0231775D01*
X0179359Y0231663D01*
X0179351Y0231552D01*
X0179339Y0231441D01*
X0179323Y0231330D01*
X0179303Y0231220D01*
X0179280Y0231111D01*
X0179252Y0231002D01*
X0179221Y0230895D01*
X0179186Y0230789D01*
X0179147Y0230684D01*
X0179104Y0230580D01*
X0179058Y0230479D01*
X0179008Y0230379D01*
X0178955Y0230280D01*
X0178898Y0230184D01*
X0178838Y0230090D01*
X0178774Y0229998D01*
X0178708Y0229908D01*
X0178638Y0229821D01*
X0178565Y0229736D01*
X0178489Y0229654D01*
X0178411Y0229574D01*
X0178329Y0229498D01*
X0178245Y0229424D01*
X0178158Y0229353D01*
X0178069Y0229286D01*
X0177978Y0229222D01*
X0177884Y0229161D01*
X0177788Y0229103D01*
X0177690Y0229049D01*
X0177591Y0228998D01*
X0177489Y0228951D01*
X0177386Y0228908D01*
X0177282Y0228868D01*
X0177176Y0228832D01*
X0177069Y0228799D01*
X0176961Y0228771D01*
X0176852Y0228746D01*
X0176742Y0228726D01*
X0176631Y0228709D01*
X0176520Y0228696D01*
X0176409Y0228687D01*
X0176297Y0228682D01*
X0176185Y0228681D01*
X0176073Y0228684D01*
X0175962Y0228691D01*
X0175850Y0228702D01*
X0175740Y0228717D01*
X0175629Y0228736D01*
X0175520Y0228758D01*
X0175411Y0228785D01*
X0175304Y0228815D01*
X0175197Y0228849D01*
X0175092Y0228887D01*
X0174988Y0228929D01*
X0174886Y0228974D01*
X0174785Y0229023D01*
X0174687Y0229075D01*
X0174590Y0229131D01*
X0174495Y0229191D01*
X0174402Y0229253D01*
X0174312Y0229319D01*
X0174224Y0229388D01*
X0174139Y0229460D01*
X0174056Y0229536D01*
X0173976Y0229614D01*
X0173898Y0229694D01*
X0173824Y0229778D01*
X0173753Y0229864D01*
X0173684Y0229952D01*
X0173619Y0230043D01*
X0173558Y0230137D01*
X0173499Y0230232D01*
X0173444Y0230329D01*
X0173393Y0230428D01*
X0173345Y0230529D01*
X0173300Y0230632D01*
X0173259Y0230736D01*
X0173222Y0230842D01*
X0173189Y0230948D01*
X0173160Y0231056D01*
X0173134Y0231165D01*
X0173112Y0231275D01*
X0173095Y0231385D01*
X0173081Y0231496D01*
X0173071Y0231608D01*
X0173065Y0231719D01*
X0173063Y0231831D01*
X0173065Y0231943D01*
X0173071Y0232054D01*
X0173081Y0232166D01*
X0173095Y0232277D01*
X0173112Y0232387D01*
X0173134Y0232497D01*
X0173160Y0232606D01*
X0173189Y0232714D01*
X0173222Y0232820D01*
X0173259Y0232926D01*
X0173300Y0233030D01*
X0173345Y0233133D01*
X0173393Y0233234D01*
X0173444Y0233333D01*
X0173499Y0233430D01*
X0173558Y0233525D01*
X0173619Y0233619D01*
X0173684Y0233710D01*
X0173753Y0233798D01*
X0173824Y0233884D01*
X0173898Y0233968D01*
X0173976Y0234048D01*
X0174056Y0234126D01*
X0174139Y0234202D01*
X0174224Y0234274D01*
X0174312Y0234343D01*
X0174402Y0234409D01*
X0174495Y0234471D01*
X0174590Y0234531D01*
X0174687Y0234587D01*
X0174785Y0234639D01*
X0174886Y0234688D01*
X0174988Y0234733D01*
X0175092Y0234775D01*
X0175197Y0234813D01*
X0175304Y0234847D01*
X0175411Y0234877D01*
X0175520Y0234904D01*
X0175629Y0234926D01*
X0175740Y0234945D01*
X0175850Y0234960D01*
X0175962Y0234971D01*
X0176073Y0234978D01*
X0176185Y0234981D01*
X0176297Y0234980D01*
X0176409Y0234975D01*
X0176520Y0234966D01*
X0176631Y0234953D01*
X0176742Y0234936D01*
X0176852Y0234916D01*
X0176961Y0234891D01*
X0177069Y0234863D01*
X0177176Y0234830D01*
X0177282Y0234794D01*
X0177386Y0234754D01*
X0177489Y0234711D01*
X0177591Y0234664D01*
X0177690Y0234613D01*
X0177788Y0234559D01*
X0177884Y0234501D01*
X0177978Y0234440D01*
X0178069Y0234376D01*
X0178158Y0234309D01*
X0178245Y0234238D01*
X0178329Y0234164D01*
X0178411Y0234088D01*
X0178489Y0234008D01*
X0178565Y0233926D01*
X0178638Y0233841D01*
X0178708Y0233754D01*
X0178774Y0233664D01*
X0178838Y0233572D01*
X0178898Y0233478D01*
X0178955Y0233382D01*
X0179008Y0233283D01*
X0179058Y0233183D01*
X0179104Y0233082D01*
X0179147Y0232978D01*
X0179186Y0232873D01*
X0179221Y0232767D01*
X0179252Y0232660D01*
X0179280Y0232551D01*
X0179303Y0232442D01*
X0179323Y0232332D01*
X0179339Y0232221D01*
X0179351Y0232110D01*
X0179359Y0231999D01*
X0179363Y0231887D01*
X0179363Y0231775D01*
X0179359Y0231663D01*
X0179351Y0231552D01*
X0179339Y0231441D01*
X0179323Y0231330D01*
X0179303Y0231220D01*
X0179280Y0231111D01*
X0179252Y0231002D01*
X0179221Y0230895D01*
X0179186Y0230789D01*
X0179147Y0230684D01*
X0179104Y0230580D01*
X0179058Y0230479D01*
X0179008Y0230379D01*
X0178955Y0230280D01*
X0178898Y0230184D01*
X0178838Y0230090D01*
X0178774Y0229998D01*
X0178708Y0229908D01*
X0178638Y0229821D01*
X0178565Y0229736D01*
X0178489Y0229654D01*
X0178411Y0229574D01*
X0178329Y0229498D01*
X0178245Y0229424D01*
X0178158Y0229353D01*
X0178069Y0229286D01*
X0177978Y0229222D01*
X0177884Y0229161D01*
X0177788Y0229103D01*
X0177690Y0229049D01*
X0177591Y0228998D01*
X0177489Y0228951D01*
X0177386Y0228908D01*
X0177282Y0228868D01*
X0177176Y0228832D01*
X0177069Y0228799D01*
X0176961Y0228771D01*
X0176852Y0228746D01*
X0176742Y0228726D01*
X0176631Y0228709D01*
X0176520Y0228696D01*
X0176409Y0228687D01*
X0176297Y0228682D01*
X0176185Y0228681D01*
X0176073Y0228684D01*
X0175962Y0228691D01*
X0175850Y0228702D01*
X0175740Y0228717D01*
X0175629Y0228736D01*
X0175520Y0228758D01*
X0175411Y0228785D01*
X0175304Y0228815D01*
X0175197Y0228849D01*
X0175092Y0228887D01*
X0174988Y0228929D01*
X0174886Y0228974D01*
X0174785Y0229023D01*
X0174687Y0229075D01*
X0174590Y0229131D01*
X0174495Y0229191D01*
X0174402Y0229253D01*
X0174312Y0229319D01*
X0174224Y0229388D01*
X0174139Y0229460D01*
X0174056Y0229536D01*
X0173976Y0229614D01*
X0173898Y0229694D01*
X0173824Y0229778D01*
X0173753Y0229864D01*
X0173684Y0229952D01*
X0173619Y0230043D01*
X0173558Y0230137D01*
X0173499Y0230232D01*
X0173444Y0230329D01*
X0173393Y0230428D01*
X0173345Y0230529D01*
X0173300Y0230632D01*
X0173259Y0230736D01*
X0173222Y0230842D01*
X0173189Y0230948D01*
X0173160Y0231056D01*
X0173134Y0231165D01*
X0173112Y0231275D01*
X0173095Y0231385D01*
X0173081Y0231496D01*
X0173071Y0231608D01*
X0173065Y0231719D01*
X0173063Y0231831D01*
D16*
X0181875Y0213701D02*
X0187875Y0213701D01*
X0187875Y0203701D02*
X0181875Y0203701D01*
X0181875Y0193701D02*
X0187875Y0193701D01*
X0187875Y0183701D02*
X0181875Y0183701D01*
D17*
X0176213Y0198701D03*
X0168339Y0187677D03*
X0168339Y0173504D03*
X0156528Y0159331D03*
X0156528Y0153031D03*
X0155741Y0145945D03*
X0147079Y0143583D03*
X0143930Y0136496D03*
X0143930Y0124685D03*
X0136843Y0124685D03*
X0129756Y0124685D03*
X0129756Y0112087D03*
X0142355Y0088465D03*
X0132119Y0075079D03*
X0136843Y0072717D03*
X0142355Y0069567D03*
X0147867Y0060906D03*
X0158890Y0045157D03*
X0153378Y0040433D03*
X0150229Y0040433D03*
X0144717Y0027047D03*
X0136843Y0027047D03*
X0125819Y0027047D03*
X0124245Y0040433D03*
X0121095Y0040433D03*
X0113221Y0027047D03*
X0105347Y0027047D03*
X0095111Y0040433D03*
X0091961Y0040433D03*
X0100623Y0045157D03*
X0089599Y0060906D03*
X0084087Y0069567D03*
X0077788Y0073504D03*
X0074638Y0079016D03*
X0069914Y0077441D03*
X0058103Y0075079D03*
X0050229Y0063268D03*
X0036843Y0054606D03*
X0036843Y0047520D03*
X0036843Y0042008D03*
X0036843Y0030984D03*
X0038418Y0024685D03*
X0032119Y0023110D03*
X0029756Y0030984D03*
X0024245Y0032559D03*
X0019520Y0038071D03*
X0024245Y0042795D03*
X0024245Y0051457D03*
X0019520Y0056969D03*
X0025032Y0062480D03*
X0027394Y0075079D03*
X0034481Y0075079D03*
X0036056Y0062480D03*
X0045504Y0042008D03*
X0052591Y0030197D03*
X0052591Y0024685D03*
X0058103Y0008937D03*
X0065977Y0008937D03*
X0069914Y0027047D03*
X0073851Y0027047D03*
X0082512Y0027047D03*
X0093536Y0027047D03*
X0097473Y0008937D03*
X0089599Y0008937D03*
X0069914Y0044370D03*
X0069914Y0060906D03*
X0054953Y0043583D03*
X0032906Y0008937D03*
X0014796Y0027835D03*
X0014796Y0058543D03*
X0014796Y0088465D03*
X0014796Y0115236D03*
X0026607Y0135709D03*
X0036056Y0127835D03*
X0028182Y0123110D03*
X0028182Y0116024D03*
X0043930Y0099488D03*
X0047867Y0116024D03*
X0054953Y0127047D03*
X0057315Y0123898D03*
X0060465Y0130197D03*
X0059678Y0133346D03*
X0062827Y0132559D03*
X0063615Y0128622D03*
X0069914Y0120748D03*
X0069914Y0110512D03*
X0061252Y0113661D03*
X0059678Y0100276D03*
X0069914Y0095551D03*
X0084087Y0088465D03*
X0094323Y0086890D03*
X0102985Y0075079D03*
X0107709Y0072717D03*
X0113221Y0069567D03*
X0118733Y0060906D03*
X0129756Y0045157D03*
X0128969Y0008937D03*
X0121095Y0008937D03*
X0152591Y0008937D03*
X0160465Y0008937D03*
X0156528Y0027047D03*
X0168339Y0027047D03*
X0176213Y0027047D03*
X0179363Y0040433D03*
X0182512Y0040433D03*
X0188024Y0045157D03*
X0195898Y0044370D03*
X0203772Y0052244D03*
X0195898Y0060906D03*
X0195898Y0077441D03*
X0203772Y0080591D03*
X0195898Y0092402D03*
X0195898Y0108150D03*
X0203772Y0113661D03*
X0195898Y0124685D03*
X0188024Y0112087D03*
X0172276Y0124685D03*
X0165189Y0124685D03*
X0163615Y0132559D03*
X0158103Y0124685D03*
X0158890Y0112087D03*
X0171489Y0088465D03*
X0181725Y0086890D03*
X0171489Y0069567D03*
X0165977Y0072717D03*
X0161252Y0075079D03*
X0152591Y0086890D03*
X0177000Y0060906D03*
X0195898Y0027047D03*
X0203772Y0026260D03*
X0184875Y0008937D03*
X0123457Y0086890D03*
X0113221Y0088465D03*
X0100623Y0112087D03*
X0100623Y0124685D03*
X0094323Y0124685D03*
X0088024Y0124685D03*
X0080938Y0124685D03*
X0087237Y0138858D03*
X0091961Y0142795D03*
X0087237Y0145945D03*
X0088812Y0153819D03*
X0095111Y0154606D03*
X0103772Y0154606D03*
X0111646Y0154606D03*
X0120308Y0154606D03*
X0126607Y0141220D03*
X0132119Y0154606D03*
X0132119Y0166417D03*
X0128182Y0180591D03*
X0132119Y0186102D03*
X0134481Y0191614D03*
X0136843Y0193976D03*
X0136843Y0185315D03*
X0147867Y0186890D03*
X0148654Y0190039D03*
X0150229Y0193189D03*
X0157315Y0197126D03*
X0154953Y0205787D03*
X0148654Y0209724D03*
X0143142Y0217598D03*
X0147867Y0219173D03*
X0151016Y0227047D03*
X0154166Y0228622D03*
X0154953Y0238071D03*
X0158890Y0240433D03*
X0163615Y0230197D03*
X0169126Y0230197D03*
X0168339Y0240433D03*
X0169914Y0245945D03*
X0169914Y0250669D03*
X0169914Y0255394D03*
X0169914Y0260906D03*
X0169914Y0265630D03*
X0169126Y0275866D03*
X0163615Y0275866D03*
X0162827Y0281378D03*
X0160465Y0298701D03*
X0160465Y0305787D03*
X0156528Y0316024D03*
X0149441Y0302638D03*
X0142355Y0305000D03*
X0142355Y0312874D03*
X0128182Y0316024D03*
X0114796Y0312874D03*
X0114796Y0305000D03*
X0102197Y0304213D03*
X0102197Y0312874D03*
X0092749Y0316024D03*
X0093536Y0299488D03*
X0094323Y0293189D03*
X0085662Y0299488D03*
X0080938Y0299488D03*
X0078575Y0290827D03*
X0073063Y0290827D03*
X0076213Y0281378D03*
X0081725Y0275079D03*
X0082512Y0266417D03*
X0080938Y0262480D03*
X0080150Y0253031D03*
X0078575Y0243583D03*
X0088812Y0237283D03*
X0090386Y0227835D03*
X0098260Y0232559D03*
X0105347Y0238071D03*
X0113221Y0238071D03*
X0121095Y0229409D03*
X0128969Y0245157D03*
X0137630Y0238071D03*
X0148654Y0245157D03*
X0156528Y0264843D03*
X0146292Y0272717D03*
X0138418Y0279016D03*
X0128969Y0274291D03*
X0128969Y0264055D03*
X0114008Y0264055D03*
X0112434Y0257756D03*
X0104560Y0254606D03*
X0097473Y0264055D03*
X0093536Y0260906D03*
X0097473Y0274291D03*
X0113221Y0274291D03*
X0097473Y0243583D03*
X0091174Y0214449D03*
X0092749Y0203425D03*
X0096686Y0197913D03*
X0091961Y0193189D03*
X0087237Y0192402D03*
X0090386Y0186102D03*
X0086449Y0185315D03*
X0087237Y0176654D03*
X0087237Y0167205D03*
X0095111Y0184528D03*
X0100623Y0176654D03*
X0102985Y0174291D03*
X0104560Y0171142D03*
X0102197Y0167205D03*
X0110859Y0166417D03*
X0120308Y0189252D03*
X0122670Y0197913D03*
X0125819Y0192402D03*
X0130544Y0209724D03*
X0135268Y0209724D03*
X0137630Y0222323D03*
X0139993Y0224685D03*
X0165189Y0219961D03*
X0165189Y0214449D03*
X0173851Y0218386D03*
X0183300Y0230197D03*
X0188812Y0230197D03*
X0182512Y0240433D03*
X0180150Y0236496D03*
X0180937Y0245945D03*
X0182512Y0250669D03*
X0180937Y0255394D03*
X0182512Y0260906D03*
X0180937Y0265630D03*
X0183300Y0275866D03*
X0188812Y0275866D03*
X0203772Y0273504D03*
X0203772Y0249882D03*
X0203772Y0224685D03*
X0203772Y0198701D03*
X0203772Y0171929D03*
X0185662Y0163268D03*
X0203772Y0143583D03*
X0168339Y0137283D03*
X0151804Y0164055D03*
X0149441Y0176654D03*
X0147867Y0179803D03*
X0148654Y0182953D03*
X0116371Y0138071D03*
X0107709Y0135709D03*
X0100623Y0142008D03*
X0107709Y0124685D03*
X0114796Y0124685D03*
X0076213Y0164055D03*
X0074638Y0168780D03*
X0074638Y0179016D03*
X0069914Y0191614D03*
X0073851Y0201063D03*
X0076213Y0219173D03*
X0072276Y0221535D03*
X0067552Y0226260D03*
X0067552Y0232559D03*
X0067552Y0236496D03*
X0066764Y0241220D03*
X0062827Y0245945D03*
X0054166Y0244370D03*
X0038418Y0243583D03*
X0031331Y0223110D03*
X0037630Y0213661D03*
X0032119Y0205787D03*
X0037630Y0186102D03*
X0037630Y0179803D03*
X0036056Y0169567D03*
X0027394Y0160118D03*
X0014796Y0169567D03*
X0014796Y0193189D03*
X0014796Y0217598D03*
X0014796Y0244370D03*
X0014796Y0271142D03*
X0014796Y0297913D03*
X0032119Y0316024D03*
X0044717Y0299488D03*
X0043142Y0283740D03*
X0051016Y0269567D03*
X0055741Y0269567D03*
X0064402Y0269567D03*
X0070701Y0272717D03*
X0062040Y0316024D03*
X0049441Y0213661D03*
X0058103Y0200276D03*
X0053378Y0198701D03*
X0057315Y0194764D03*
X0053378Y0171929D03*
X0049441Y0167205D03*
X0053378Y0165630D03*
X0054953Y0159331D03*
X0055741Y0146732D03*
X0065189Y0145157D03*
X0072276Y0157756D03*
X0047867Y0128622D03*
X0038418Y0141220D03*
X0046292Y0147520D03*
X0045504Y0164843D03*
X0014796Y0141220D03*
X0103772Y0213661D03*
X0185662Y0316024D03*
X0203772Y0297913D03*
D18*
X0176154Y0240492D02*
X0168280Y0240492D01*
X0168339Y0240433D01*
X0168280Y0240492D02*
X0164599Y0240492D01*
X0176154Y0240492D02*
X0180150Y0236496D01*
X0154953Y0205787D02*
X0147079Y0197913D01*
X0122670Y0197913D01*
X0096686Y0197913D02*
X0077788Y0197913D01*
X0076213Y0196339D01*
X0067552Y0196339D01*
X0065977Y0194764D01*
X0057315Y0194764D01*
X0087237Y0192402D02*
X0087237Y0189252D01*
X0090386Y0186102D01*
X0066764Y0241220D02*
X0057315Y0241220D01*
X0054166Y0244370D01*
D19*
X0051982Y0244703D02*
X0012502Y0244703D01*
X0012502Y0243918D02*
X0051982Y0243918D01*
X0051982Y0243465D02*
X0056411Y0239036D01*
X0067669Y0239036D01*
X0068949Y0240316D01*
X0068949Y0242125D01*
X0068869Y0242205D01*
X0076878Y0242205D01*
X0077674Y0241408D01*
X0079476Y0241408D01*
X0080750Y0242682D01*
X0080750Y0244484D01*
X0079476Y0245757D01*
X0077674Y0245757D01*
X0076878Y0244961D01*
X0069697Y0244961D01*
X0068910Y0245748D01*
X0065002Y0245748D01*
X0065002Y0246846D01*
X0063728Y0248120D01*
X0061926Y0248120D01*
X0060652Y0246846D01*
X0060652Y0245044D01*
X0061926Y0243770D01*
X0063053Y0243770D01*
X0063419Y0243405D01*
X0058220Y0243405D01*
X0055071Y0246554D01*
X0053261Y0246554D01*
X0051982Y0245275D01*
X0051982Y0243465D01*
X0052315Y0243132D02*
X0012502Y0243132D01*
X0012502Y0242346D02*
X0053101Y0242346D01*
X0053887Y0241560D02*
X0012502Y0241560D01*
X0012502Y0240774D02*
X0054673Y0240774D01*
X0055459Y0239988D02*
X0012502Y0239988D01*
X0012502Y0239202D02*
X0056245Y0239202D01*
X0057707Y0243918D02*
X0061779Y0243918D01*
X0060993Y0244703D02*
X0056921Y0244703D01*
X0056136Y0245489D02*
X0060652Y0245489D01*
X0060652Y0246275D02*
X0055350Y0246275D01*
X0052982Y0246275D02*
X0012502Y0246275D01*
X0012502Y0245489D02*
X0052196Y0245489D01*
X0060868Y0247061D02*
X0012502Y0247061D01*
X0012502Y0247847D02*
X0061654Y0247847D01*
X0062827Y0245945D02*
X0064402Y0244370D01*
X0068339Y0244370D01*
X0069126Y0243583D01*
X0078575Y0243583D01*
X0080750Y0243918D02*
X0160662Y0243918D01*
X0160662Y0243510D02*
X0161179Y0242992D01*
X0160662Y0242475D01*
X0160662Y0241737D01*
X0159791Y0242608D01*
X0157989Y0242608D01*
X0156715Y0241334D01*
X0156715Y0239532D01*
X0157512Y0238735D01*
X0157512Y0238642D01*
X0157128Y0238257D01*
X0157128Y0238972D01*
X0155854Y0240246D01*
X0154052Y0240246D01*
X0152778Y0238972D01*
X0152778Y0237170D01*
X0153575Y0236373D01*
X0153575Y0234705D01*
X0150445Y0231575D01*
X0149638Y0230768D01*
X0149638Y0228745D01*
X0148841Y0227948D01*
X0148841Y0226146D01*
X0150115Y0224872D01*
X0151917Y0224872D01*
X0153191Y0226146D01*
X0153191Y0226521D01*
X0153265Y0226447D01*
X0155067Y0226447D01*
X0156341Y0227721D01*
X0156341Y0229523D01*
X0155544Y0230320D01*
X0155544Y0230413D01*
X0157906Y0232776D01*
X0157906Y0235138D01*
X0159461Y0236693D01*
X0160268Y0237500D01*
X0160268Y0238735D01*
X0160662Y0239129D01*
X0160662Y0238510D01*
X0161238Y0237933D01*
X0167959Y0237933D01*
X0168275Y0238249D01*
X0169244Y0238249D01*
X0169303Y0238308D01*
X0175249Y0238308D01*
X0177230Y0236327D01*
X0177117Y0236374D01*
X0175309Y0236374D01*
X0173640Y0235682D01*
X0172361Y0234404D01*
X0172027Y0233598D01*
X0171951Y0233674D01*
X0171633Y0233858D01*
X0171278Y0233953D01*
X0166567Y0233953D01*
X0166567Y0230591D01*
X0165780Y0230591D01*
X0165780Y0233953D01*
X0161069Y0233953D01*
X0160715Y0233858D01*
X0160397Y0233674D01*
X0160137Y0233415D01*
X0159954Y0233097D01*
X0159859Y0232743D01*
X0159859Y0230591D01*
X0165780Y0230591D01*
X0165780Y0229803D01*
X0166567Y0229803D01*
X0166567Y0226441D01*
X0171278Y0226441D01*
X0171633Y0226536D01*
X0171951Y0226719D01*
X0172210Y0226979D01*
X0172394Y0227297D01*
X0172489Y0227651D01*
X0172489Y0229130D01*
X0173640Y0227979D01*
X0175309Y0227287D01*
X0177117Y0227287D01*
X0178787Y0227979D01*
X0179937Y0229130D01*
X0179937Y0227651D01*
X0180032Y0227297D01*
X0180216Y0226979D01*
X0180475Y0226719D01*
X0180793Y0226536D01*
X0181148Y0226441D01*
X0185859Y0226441D01*
X0185859Y0229803D01*
X0186646Y0229803D01*
X0186646Y0226441D01*
X0191357Y0226441D01*
X0191712Y0226536D01*
X0192029Y0226719D01*
X0192289Y0226979D01*
X0192472Y0227297D01*
X0192567Y0227651D01*
X0192567Y0229803D01*
X0186646Y0229803D01*
X0186646Y0230591D01*
X0185859Y0230591D01*
X0185859Y0233953D01*
X0181148Y0233953D01*
X0180793Y0233858D01*
X0180475Y0233674D01*
X0180399Y0233598D01*
X0180103Y0234312D01*
X0181055Y0234312D01*
X0182334Y0235591D01*
X0182334Y0237401D01*
X0177059Y0242676D01*
X0168334Y0242676D01*
X0168018Y0242992D01*
X0168536Y0243510D01*
X0168536Y0244114D01*
X0168669Y0244114D01*
X0169013Y0243770D01*
X0170815Y0243770D01*
X0172089Y0245044D01*
X0172089Y0246846D01*
X0170815Y0248120D01*
X0169013Y0248120D01*
X0168452Y0247559D01*
X0168018Y0247992D01*
X0168536Y0248510D01*
X0168536Y0248972D01*
X0169013Y0248494D01*
X0170815Y0248494D01*
X0172089Y0249768D01*
X0172089Y0251570D01*
X0170815Y0252844D01*
X0169013Y0252844D01*
X0168536Y0252367D01*
X0168536Y0252475D01*
X0168018Y0252992D01*
X0168536Y0253510D01*
X0168536Y0253696D01*
X0169013Y0253219D01*
X0170815Y0253219D01*
X0172089Y0254493D01*
X0172089Y0256295D01*
X0170815Y0257568D01*
X0169013Y0257568D01*
X0168536Y0257091D01*
X0168536Y0257475D01*
X0168018Y0257992D01*
X0168536Y0258510D01*
X0168536Y0259114D01*
X0168630Y0259114D01*
X0169013Y0258731D01*
X0170815Y0258731D01*
X0172089Y0260005D01*
X0172089Y0261806D01*
X0170815Y0263080D01*
X0169013Y0263080D01*
X0168472Y0262539D01*
X0168018Y0262992D01*
X0168536Y0263510D01*
X0168536Y0263932D01*
X0169013Y0263455D01*
X0170815Y0263455D01*
X0172089Y0264729D01*
X0172089Y0266531D01*
X0170815Y0267805D01*
X0169013Y0267805D01*
X0168536Y0267328D01*
X0168536Y0267475D01*
X0167959Y0268051D01*
X0161238Y0268051D01*
X0160662Y0267475D01*
X0160662Y0263510D01*
X0161179Y0262992D01*
X0160662Y0262475D01*
X0160662Y0258510D01*
X0161179Y0257992D01*
X0160662Y0257475D01*
X0160662Y0253510D01*
X0161179Y0252992D01*
X0160662Y0252475D01*
X0160662Y0248510D01*
X0161179Y0247992D01*
X0160662Y0247475D01*
X0160662Y0243510D01*
X0161040Y0243132D02*
X0080750Y0243132D01*
X0080414Y0242346D02*
X0157727Y0242346D01*
X0156941Y0241560D02*
X0079628Y0241560D01*
X0077523Y0241560D02*
X0068949Y0241560D01*
X0068949Y0240774D02*
X0156715Y0240774D01*
X0156715Y0239988D02*
X0156112Y0239988D01*
X0156898Y0239202D02*
X0157046Y0239202D01*
X0157128Y0238416D02*
X0157287Y0238416D01*
X0158890Y0238071D02*
X0156528Y0235709D01*
X0156528Y0233346D01*
X0154166Y0230984D01*
X0154166Y0228622D01*
X0156341Y0228985D02*
X0159859Y0228985D01*
X0159859Y0228199D02*
X0156341Y0228199D01*
X0156033Y0227413D02*
X0159922Y0227413D01*
X0159954Y0227297D02*
X0160137Y0226979D01*
X0160397Y0226719D01*
X0160715Y0226536D01*
X0161069Y0226441D01*
X0165780Y0226441D01*
X0165780Y0229803D01*
X0159859Y0229803D01*
X0159859Y0227651D01*
X0159954Y0227297D01*
X0160556Y0226627D02*
X0155247Y0226627D01*
X0152886Y0225842D02*
X0206065Y0225842D01*
X0206065Y0226627D02*
X0191870Y0226627D01*
X0192504Y0227413D02*
X0206065Y0227413D01*
X0206065Y0228199D02*
X0192567Y0228199D01*
X0192567Y0228985D02*
X0206065Y0228985D01*
X0206065Y0229771D02*
X0192567Y0229771D01*
X0192567Y0230591D02*
X0192567Y0232743D01*
X0192472Y0233097D01*
X0192289Y0233415D01*
X0192029Y0233674D01*
X0191712Y0233858D01*
X0191357Y0233953D01*
X0186646Y0233953D01*
X0186646Y0230591D01*
X0192567Y0230591D01*
X0192567Y0231343D02*
X0206065Y0231343D01*
X0206065Y0232129D02*
X0192567Y0232129D01*
X0192521Y0232915D02*
X0206065Y0232915D01*
X0206065Y0233701D02*
X0191984Y0233701D01*
X0191188Y0237933D02*
X0191764Y0238510D01*
X0191764Y0242475D01*
X0191510Y0242729D01*
X0191636Y0242802D01*
X0191895Y0243062D01*
X0192079Y0243379D01*
X0192174Y0243734D01*
X0192174Y0245098D01*
X0188221Y0245098D01*
X0188221Y0245886D01*
X0192174Y0245886D01*
X0192174Y0247250D01*
X0192079Y0247605D01*
X0191895Y0247923D01*
X0191636Y0248182D01*
X0191510Y0248255D01*
X0191764Y0248510D01*
X0191764Y0252475D01*
X0191510Y0252729D01*
X0191636Y0252802D01*
X0191895Y0253062D01*
X0192079Y0253379D01*
X0192174Y0253734D01*
X0192174Y0255098D01*
X0188221Y0255098D01*
X0188221Y0255886D01*
X0192174Y0255886D01*
X0192174Y0257250D01*
X0192079Y0257605D01*
X0191895Y0257923D01*
X0191636Y0258182D01*
X0191510Y0258255D01*
X0191764Y0258510D01*
X0191764Y0262475D01*
X0191510Y0262729D01*
X0191636Y0262802D01*
X0191895Y0263062D01*
X0192079Y0263379D01*
X0192174Y0263734D01*
X0192174Y0265098D01*
X0188221Y0265098D01*
X0188221Y0265886D01*
X0187434Y0265886D01*
X0187434Y0268461D01*
X0184691Y0268461D01*
X0184337Y0268366D01*
X0184019Y0268182D01*
X0183759Y0267923D01*
X0183576Y0267605D01*
X0183481Y0267250D01*
X0183481Y0265886D01*
X0187434Y0265886D01*
X0187434Y0265098D01*
X0183481Y0265098D01*
X0183481Y0263734D01*
X0183576Y0263379D01*
X0183759Y0263062D01*
X0184019Y0262802D01*
X0184145Y0262729D01*
X0183955Y0262539D01*
X0183413Y0263080D01*
X0181611Y0263080D01*
X0180337Y0261806D01*
X0180337Y0260005D01*
X0181611Y0258731D01*
X0183413Y0258731D01*
X0183797Y0259114D01*
X0183890Y0259114D01*
X0183890Y0258510D01*
X0184145Y0258255D01*
X0184019Y0258182D01*
X0183759Y0257923D01*
X0183576Y0257605D01*
X0183481Y0257250D01*
X0183481Y0255886D01*
X0187434Y0255886D01*
X0187434Y0255098D01*
X0183481Y0255098D01*
X0183481Y0253734D01*
X0183576Y0253379D01*
X0183759Y0253062D01*
X0184019Y0252802D01*
X0184145Y0252729D01*
X0183890Y0252475D01*
X0183890Y0252367D01*
X0183413Y0252844D01*
X0181611Y0252844D01*
X0180337Y0251570D01*
X0180337Y0249768D01*
X0181611Y0248494D01*
X0183413Y0248494D01*
X0183890Y0248972D01*
X0183890Y0248510D01*
X0184145Y0248255D01*
X0184019Y0248182D01*
X0183759Y0247923D01*
X0183576Y0247605D01*
X0183481Y0247250D01*
X0183481Y0245886D01*
X0187434Y0245886D01*
X0187434Y0245098D01*
X0183481Y0245098D01*
X0183481Y0243734D01*
X0183576Y0243379D01*
X0183759Y0243062D01*
X0184019Y0242802D01*
X0184145Y0242729D01*
X0183890Y0242475D01*
X0183890Y0242131D01*
X0183413Y0242608D01*
X0181611Y0242608D01*
X0180337Y0241334D01*
X0180337Y0239532D01*
X0181611Y0238258D01*
X0183413Y0238258D01*
X0183890Y0238735D01*
X0183890Y0238510D01*
X0184467Y0237933D01*
X0191188Y0237933D01*
X0191671Y0238416D02*
X0206065Y0238416D01*
X0206065Y0237630D02*
X0182105Y0237630D01*
X0182334Y0236844D02*
X0206065Y0236844D01*
X0206065Y0236058D02*
X0182334Y0236058D01*
X0182016Y0235272D02*
X0206065Y0235272D01*
X0206065Y0234487D02*
X0181230Y0234487D01*
X0180521Y0233701D02*
X0180356Y0233701D01*
X0180617Y0230591D02*
X0185859Y0230591D01*
X0185859Y0229803D01*
X0180291Y0229803D01*
X0180617Y0230591D01*
X0180603Y0230557D02*
X0185859Y0230557D01*
X0185859Y0231343D02*
X0186646Y0231343D01*
X0186646Y0232129D02*
X0185859Y0232129D01*
X0185859Y0232915D02*
X0186646Y0232915D01*
X0186646Y0233701D02*
X0185859Y0233701D01*
X0186646Y0230557D02*
X0206065Y0230557D01*
X0206065Y0225056D02*
X0152100Y0225056D01*
X0149932Y0225056D02*
X0142167Y0225056D01*
X0142167Y0225586D02*
X0140893Y0226860D01*
X0139092Y0226860D01*
X0137818Y0225586D01*
X0137818Y0224498D01*
X0136730Y0224498D01*
X0135456Y0223224D01*
X0135456Y0221422D01*
X0136252Y0220625D01*
X0136252Y0212657D01*
X0135494Y0211899D01*
X0134367Y0211899D01*
X0133093Y0210625D01*
X0133093Y0208824D01*
X0134367Y0207550D01*
X0136169Y0207550D01*
X0137443Y0208824D01*
X0137443Y0209950D01*
X0139008Y0211516D01*
X0139008Y0220625D01*
X0139402Y0221019D01*
X0139402Y0219390D01*
X0140967Y0217824D01*
X0140967Y0216698D01*
X0142241Y0215424D01*
X0144043Y0215424D01*
X0145317Y0216698D01*
X0145317Y0218499D01*
X0144043Y0219773D01*
X0142916Y0219773D01*
X0142158Y0220531D01*
X0142158Y0223681D01*
X0142111Y0223728D01*
X0142167Y0223784D01*
X0142167Y0225586D01*
X0141912Y0225842D02*
X0149146Y0225842D01*
X0148841Y0226627D02*
X0141126Y0226627D01*
X0139993Y0224685D02*
X0139993Y0223898D01*
X0140780Y0223110D01*
X0140780Y0219961D01*
X0143142Y0217598D01*
X0145317Y0217982D02*
X0206065Y0217982D01*
X0206065Y0217196D02*
X0189846Y0217196D01*
X0190131Y0217078D02*
X0188667Y0217685D01*
X0181082Y0217685D01*
X0179618Y0217078D01*
X0178497Y0215958D01*
X0177890Y0214493D01*
X0177890Y0212908D01*
X0178497Y0211444D01*
X0179618Y0210323D01*
X0181082Y0209717D01*
X0188667Y0209717D01*
X0190131Y0210323D01*
X0191252Y0211444D01*
X0191859Y0212908D01*
X0191859Y0214493D01*
X0191252Y0215958D01*
X0190131Y0217078D01*
X0190799Y0216411D02*
X0206065Y0216411D01*
X0206065Y0215625D02*
X0191390Y0215625D01*
X0191716Y0214839D02*
X0206065Y0214839D01*
X0206065Y0214053D02*
X0191859Y0214053D01*
X0191859Y0213267D02*
X0206065Y0213267D01*
X0206065Y0212481D02*
X0191682Y0212481D01*
X0191356Y0211695D02*
X0206065Y0211695D01*
X0206065Y0210909D02*
X0190717Y0210909D01*
X0189649Y0210123D02*
X0206065Y0210123D01*
X0206065Y0209337D02*
X0137443Y0209337D01*
X0137616Y0210123D02*
X0180100Y0210123D01*
X0179032Y0210909D02*
X0138402Y0210909D01*
X0139008Y0211695D02*
X0178393Y0211695D01*
X0178067Y0212481D02*
X0139008Y0212481D01*
X0139008Y0213267D02*
X0177890Y0213267D01*
X0177890Y0214053D02*
X0139008Y0214053D01*
X0139008Y0214839D02*
X0178033Y0214839D01*
X0178359Y0215625D02*
X0144244Y0215625D01*
X0145030Y0216411D02*
X0178950Y0216411D01*
X0179903Y0217196D02*
X0145317Y0217196D01*
X0145048Y0218768D02*
X0206065Y0218768D01*
X0206065Y0219554D02*
X0144262Y0219554D01*
X0142349Y0220340D02*
X0206065Y0220340D01*
X0206065Y0221126D02*
X0142158Y0221126D01*
X0142158Y0221912D02*
X0206065Y0221912D01*
X0206065Y0222698D02*
X0142158Y0222698D01*
X0142158Y0223484D02*
X0206065Y0223484D01*
X0206065Y0224270D02*
X0142167Y0224270D01*
X0138859Y0226627D02*
X0012502Y0226627D01*
X0012502Y0225842D02*
X0138073Y0225842D01*
X0137818Y0225056D02*
X0012502Y0225056D01*
X0012502Y0224270D02*
X0136502Y0224270D01*
X0135716Y0223484D02*
X0012502Y0223484D01*
X0012502Y0222698D02*
X0135456Y0222698D01*
X0135456Y0221912D02*
X0012502Y0221912D01*
X0012502Y0221126D02*
X0135752Y0221126D01*
X0136252Y0220340D02*
X0012502Y0220340D01*
X0012502Y0219554D02*
X0136252Y0219554D01*
X0136252Y0218768D02*
X0012502Y0218768D01*
X0012502Y0217982D02*
X0136252Y0217982D01*
X0136252Y0217196D02*
X0012502Y0217196D01*
X0012502Y0216411D02*
X0136252Y0216411D01*
X0136252Y0215625D02*
X0012502Y0215625D01*
X0012502Y0214839D02*
X0136252Y0214839D01*
X0136252Y0214053D02*
X0012502Y0214053D01*
X0012502Y0213267D02*
X0136252Y0213267D01*
X0136076Y0212481D02*
X0012502Y0212481D01*
X0012502Y0211695D02*
X0134163Y0211695D01*
X0133377Y0210909D02*
X0012502Y0210909D01*
X0012502Y0210123D02*
X0133093Y0210123D01*
X0133093Y0209337D02*
X0012502Y0209337D01*
X0012502Y0208551D02*
X0133366Y0208551D01*
X0134151Y0207766D02*
X0012502Y0207766D01*
X0012502Y0206980D02*
X0153056Y0206980D01*
X0152271Y0206194D02*
X0012502Y0206194D01*
X0012502Y0205408D02*
X0151485Y0205408D01*
X0150699Y0204622D02*
X0012502Y0204622D01*
X0012502Y0203836D02*
X0149913Y0203836D01*
X0149127Y0203050D02*
X0012502Y0203050D01*
X0012502Y0202264D02*
X0148341Y0202264D01*
X0147555Y0201478D02*
X0012502Y0201478D01*
X0012502Y0200692D02*
X0052294Y0200692D01*
X0052478Y0200876D02*
X0051204Y0199602D01*
X0051204Y0197800D01*
X0052000Y0197003D01*
X0052000Y0194193D01*
X0052808Y0193386D01*
X0055957Y0190236D01*
X0064619Y0190236D01*
X0067768Y0187087D01*
X0071272Y0187087D01*
X0072079Y0187894D01*
X0072847Y0188661D01*
X0081154Y0188661D01*
X0084275Y0185541D01*
X0084275Y0184414D01*
X0085548Y0183140D01*
X0087350Y0183140D01*
X0088624Y0184414D01*
X0088624Y0184776D01*
X0089482Y0183918D01*
X0091291Y0183918D01*
X0092571Y0185198D01*
X0092571Y0187007D01*
X0089421Y0190157D01*
X0089421Y0193306D01*
X0088141Y0194586D01*
X0086332Y0194586D01*
X0085526Y0193780D01*
X0070824Y0193780D01*
X0070815Y0193789D01*
X0069013Y0193789D01*
X0067739Y0192515D01*
X0067739Y0191013D01*
X0066567Y0192185D01*
X0066173Y0192580D01*
X0066882Y0192580D01*
X0068456Y0194154D01*
X0077118Y0194154D01*
X0078693Y0195729D01*
X0097590Y0195729D01*
X0098870Y0197009D01*
X0098870Y0198818D01*
X0097590Y0200098D01*
X0076883Y0200098D01*
X0075604Y0198818D01*
X0075308Y0198523D01*
X0066647Y0198523D01*
X0065367Y0197243D01*
X0065072Y0196948D01*
X0056411Y0196948D01*
X0055131Y0195669D01*
X0055131Y0194960D01*
X0054756Y0195335D01*
X0054756Y0197003D01*
X0055553Y0197800D01*
X0055553Y0199602D01*
X0054279Y0200876D01*
X0052478Y0200876D01*
X0051508Y0199906D02*
X0012502Y0199906D01*
X0012502Y0199120D02*
X0051204Y0199120D01*
X0051204Y0198335D02*
X0012502Y0198335D01*
X0012502Y0197549D02*
X0051455Y0197549D01*
X0052000Y0196763D02*
X0012502Y0196763D01*
X0012502Y0195977D02*
X0052000Y0195977D01*
X0052000Y0195191D02*
X0012502Y0195191D01*
X0012502Y0194405D02*
X0052000Y0194405D01*
X0052574Y0193619D02*
X0012502Y0193619D01*
X0012502Y0192833D02*
X0053360Y0192833D01*
X0054146Y0192047D02*
X0012502Y0192047D01*
X0012502Y0191261D02*
X0054932Y0191261D01*
X0055718Y0190475D02*
X0012502Y0190475D01*
X0012502Y0189690D02*
X0065165Y0189690D01*
X0065951Y0188904D02*
X0012502Y0188904D01*
X0012502Y0188118D02*
X0066737Y0188118D01*
X0067523Y0187332D02*
X0012502Y0187332D01*
X0012502Y0186546D02*
X0083270Y0186546D01*
X0084056Y0185760D02*
X0012502Y0185760D01*
X0012502Y0184974D02*
X0084275Y0184974D01*
X0084500Y0184188D02*
X0012502Y0184188D01*
X0012502Y0183402D02*
X0085286Y0183402D01*
X0086449Y0185315D02*
X0081725Y0190039D01*
X0072276Y0190039D01*
X0070701Y0188465D01*
X0068339Y0188465D01*
X0065189Y0191614D01*
X0056528Y0191614D01*
X0053378Y0194764D01*
X0053378Y0198701D01*
X0055553Y0198335D02*
X0066459Y0198335D01*
X0065673Y0197549D02*
X0055302Y0197549D01*
X0054756Y0196763D02*
X0056225Y0196763D01*
X0055440Y0195977D02*
X0054756Y0195977D01*
X0054900Y0195191D02*
X0055131Y0195191D01*
X0055553Y0199120D02*
X0075906Y0199120D01*
X0076692Y0199906D02*
X0055248Y0199906D01*
X0054463Y0200692D02*
X0146769Y0200692D01*
X0146174Y0200098D02*
X0121765Y0200098D01*
X0120486Y0198818D01*
X0120486Y0197009D01*
X0121765Y0195729D01*
X0135520Y0195729D01*
X0134668Y0194877D01*
X0134668Y0193789D01*
X0133580Y0193789D01*
X0132306Y0192515D01*
X0132306Y0190713D01*
X0132389Y0190630D01*
X0122005Y0190630D01*
X0121208Y0191427D01*
X0119407Y0191427D01*
X0118133Y0190153D01*
X0118133Y0188351D01*
X0119407Y0187077D01*
X0121208Y0187077D01*
X0122005Y0187874D01*
X0130815Y0187874D01*
X0129944Y0187003D01*
X0129944Y0185202D01*
X0131218Y0183928D01*
X0132345Y0183928D01*
X0136272Y0180000D01*
X0145692Y0180000D01*
X0145692Y0178902D01*
X0146966Y0177628D01*
X0148767Y0177628D01*
X0150041Y0178902D01*
X0150041Y0180704D01*
X0149761Y0180984D01*
X0150829Y0182052D01*
X0150829Y0183854D01*
X0149555Y0185128D01*
X0149180Y0185128D01*
X0150041Y0185989D01*
X0150041Y0187791D01*
X0149761Y0188071D01*
X0150829Y0189139D01*
X0150829Y0190940D01*
X0150755Y0191014D01*
X0151130Y0191014D01*
X0152404Y0192288D01*
X0152404Y0194090D01*
X0151130Y0195364D01*
X0149328Y0195364D01*
X0148531Y0194567D01*
X0147296Y0194567D01*
X0145721Y0192992D01*
X0139776Y0192992D01*
X0139018Y0193750D01*
X0139018Y0194877D01*
X0138166Y0195729D01*
X0147984Y0195729D01*
X0157137Y0204883D01*
X0157137Y0206692D01*
X0155858Y0207972D01*
X0154048Y0207972D01*
X0146174Y0200098D01*
X0148232Y0195977D02*
X0178516Y0195977D01*
X0178497Y0195958D02*
X0177890Y0194493D01*
X0177890Y0192908D01*
X0178497Y0191444D01*
X0179618Y0190323D01*
X0181082Y0189717D01*
X0188667Y0189717D01*
X0190131Y0190323D01*
X0191252Y0191444D01*
X0191859Y0192908D01*
X0191859Y0194493D01*
X0191252Y0195958D01*
X0190131Y0197078D01*
X0188667Y0197685D01*
X0181082Y0197685D01*
X0179618Y0197078D01*
X0178497Y0195958D01*
X0178179Y0195191D02*
X0151303Y0195191D01*
X0152088Y0194405D02*
X0177890Y0194405D01*
X0177890Y0193619D02*
X0152404Y0193619D01*
X0152404Y0192833D02*
X0177921Y0192833D01*
X0178247Y0192047D02*
X0152163Y0192047D01*
X0151377Y0191261D02*
X0178679Y0191261D01*
X0179465Y0190475D02*
X0150829Y0190475D01*
X0150829Y0189690D02*
X0206065Y0189690D01*
X0206065Y0190475D02*
X0190284Y0190475D01*
X0191070Y0191261D02*
X0206065Y0191261D01*
X0206065Y0192047D02*
X0191502Y0192047D01*
X0191828Y0192833D02*
X0206065Y0192833D01*
X0206065Y0193619D02*
X0191859Y0193619D01*
X0191859Y0194405D02*
X0206065Y0194405D01*
X0206065Y0195191D02*
X0191570Y0195191D01*
X0191233Y0195977D02*
X0206065Y0195977D01*
X0206065Y0196763D02*
X0190447Y0196763D01*
X0188996Y0197549D02*
X0206065Y0197549D01*
X0206065Y0198335D02*
X0150589Y0198335D01*
X0151375Y0199120D02*
X0206065Y0199120D01*
X0206065Y0199906D02*
X0189125Y0199906D01*
X0188667Y0199717D02*
X0190131Y0200323D01*
X0191252Y0201444D01*
X0191859Y0202908D01*
X0191859Y0204493D01*
X0191252Y0205958D01*
X0190131Y0207078D01*
X0188667Y0207685D01*
X0181082Y0207685D01*
X0179618Y0207078D01*
X0178497Y0205958D01*
X0177890Y0204493D01*
X0177890Y0202908D01*
X0178497Y0201444D01*
X0179618Y0200323D01*
X0181082Y0199717D01*
X0188667Y0199717D01*
X0190501Y0200692D02*
X0206065Y0200692D01*
X0206065Y0201478D02*
X0191266Y0201478D01*
X0191592Y0202264D02*
X0206065Y0202264D01*
X0206065Y0203050D02*
X0191859Y0203050D01*
X0191859Y0203836D02*
X0206065Y0203836D01*
X0206065Y0204622D02*
X0191805Y0204622D01*
X0191480Y0205408D02*
X0206065Y0205408D01*
X0206065Y0206194D02*
X0191016Y0206194D01*
X0190230Y0206980D02*
X0206065Y0206980D01*
X0206065Y0207766D02*
X0156064Y0207766D01*
X0156850Y0206980D02*
X0179519Y0206980D01*
X0178733Y0206194D02*
X0157137Y0206194D01*
X0157137Y0205408D02*
X0178269Y0205408D01*
X0177944Y0204622D02*
X0156877Y0204622D01*
X0156091Y0203836D02*
X0177890Y0203836D01*
X0177890Y0203050D02*
X0155305Y0203050D01*
X0154519Y0202264D02*
X0178157Y0202264D01*
X0178483Y0201478D02*
X0153733Y0201478D01*
X0152947Y0200692D02*
X0179248Y0200692D01*
X0180624Y0199906D02*
X0152161Y0199906D01*
X0149803Y0197549D02*
X0180753Y0197549D01*
X0179302Y0196763D02*
X0149018Y0196763D01*
X0149155Y0195191D02*
X0138704Y0195191D01*
X0139018Y0194405D02*
X0147134Y0194405D01*
X0146348Y0193619D02*
X0139149Y0193619D01*
X0139205Y0191614D02*
X0136843Y0193976D01*
X0134668Y0194405D02*
X0088322Y0194405D01*
X0089108Y0193619D02*
X0133410Y0193619D01*
X0132624Y0192833D02*
X0089421Y0192833D01*
X0089421Y0192047D02*
X0132306Y0192047D01*
X0132306Y0191261D02*
X0121374Y0191261D01*
X0119241Y0191261D02*
X0089421Y0191261D01*
X0089421Y0190475D02*
X0118455Y0190475D01*
X0118133Y0189690D02*
X0089888Y0189690D01*
X0090674Y0188904D02*
X0118133Y0188904D01*
X0118366Y0188118D02*
X0091460Y0188118D01*
X0092246Y0187332D02*
X0119152Y0187332D01*
X0120308Y0189252D02*
X0132906Y0189252D01*
X0133693Y0188465D01*
X0146292Y0188465D01*
X0147867Y0186890D01*
X0150041Y0186546D02*
X0178511Y0186546D01*
X0178523Y0186563D02*
X0178117Y0186004D01*
X0177803Y0185387D01*
X0177589Y0184730D01*
X0177488Y0184094D01*
X0184481Y0184094D01*
X0184481Y0183307D01*
X0185268Y0183307D01*
X0185268Y0179307D01*
X0188220Y0179307D01*
X0188903Y0179415D01*
X0189561Y0179629D01*
X0190177Y0179943D01*
X0190737Y0180349D01*
X0191226Y0180838D01*
X0191632Y0181398D01*
X0191946Y0182014D01*
X0192160Y0182672D01*
X0192261Y0183307D01*
X0185268Y0183307D01*
X0185268Y0184094D01*
X0192261Y0184094D01*
X0192160Y0184730D01*
X0191946Y0185387D01*
X0191632Y0186004D01*
X0191226Y0186563D01*
X0190737Y0187052D01*
X0190177Y0187459D01*
X0189561Y0187773D01*
X0188903Y0187986D01*
X0188220Y0188094D01*
X0185268Y0188094D01*
X0185268Y0184095D01*
X0184481Y0184095D01*
X0184481Y0188094D01*
X0181529Y0188094D01*
X0180846Y0187986D01*
X0180188Y0187773D01*
X0179572Y0187459D01*
X0179012Y0187052D01*
X0178523Y0186563D01*
X0177993Y0185760D02*
X0149812Y0185760D01*
X0149708Y0184974D02*
X0177668Y0184974D01*
X0177503Y0184188D02*
X0150494Y0184188D01*
X0150829Y0183402D02*
X0184481Y0183402D01*
X0184481Y0183307D02*
X0177488Y0183307D01*
X0177589Y0182672D01*
X0177803Y0182014D01*
X0178117Y0181398D01*
X0178523Y0180838D01*
X0179012Y0180349D01*
X0179572Y0179943D01*
X0180188Y0179629D01*
X0180846Y0179415D01*
X0181529Y0179307D01*
X0184481Y0179307D01*
X0184481Y0183307D01*
X0184481Y0182616D02*
X0185268Y0182616D01*
X0185268Y0181830D02*
X0184481Y0181830D01*
X0184481Y0181044D02*
X0185268Y0181044D01*
X0185268Y0180259D02*
X0184481Y0180259D01*
X0184481Y0179473D02*
X0185268Y0179473D01*
X0189080Y0179473D02*
X0206065Y0179473D01*
X0206065Y0180259D02*
X0190612Y0180259D01*
X0191375Y0181044D02*
X0206065Y0181044D01*
X0206065Y0181830D02*
X0191853Y0181830D01*
X0192142Y0182616D02*
X0206065Y0182616D01*
X0206065Y0183402D02*
X0185268Y0183402D01*
X0185268Y0184188D02*
X0184481Y0184188D01*
X0184481Y0184974D02*
X0185268Y0184974D01*
X0185268Y0185760D02*
X0184481Y0185760D01*
X0184481Y0186546D02*
X0185268Y0186546D01*
X0185268Y0187332D02*
X0184481Y0187332D01*
X0179397Y0187332D02*
X0150041Y0187332D01*
X0149808Y0188118D02*
X0206065Y0188118D01*
X0206065Y0188904D02*
X0150594Y0188904D01*
X0148654Y0190039D02*
X0136056Y0190039D01*
X0134481Y0191614D01*
X0134982Y0195191D02*
X0078154Y0195191D01*
X0077369Y0194405D02*
X0086151Y0194405D01*
X0087237Y0192402D02*
X0070701Y0192402D01*
X0069914Y0191614D01*
X0067739Y0191261D02*
X0067491Y0191261D01*
X0067739Y0192047D02*
X0066705Y0192047D01*
X0067135Y0192833D02*
X0068057Y0192833D01*
X0067921Y0193619D02*
X0068843Y0193619D01*
X0065367Y0197243D02*
X0065367Y0197243D01*
X0072303Y0188118D02*
X0081698Y0188118D01*
X0082484Y0187332D02*
X0071517Y0187332D01*
X0073737Y0170954D02*
X0072463Y0169680D01*
X0072463Y0168553D01*
X0070898Y0166988D01*
X0070898Y0161910D01*
X0071705Y0161102D01*
X0074835Y0157973D01*
X0074835Y0149665D01*
X0062256Y0137087D01*
X0061469Y0137087D01*
X0060662Y0136279D01*
X0059904Y0135521D01*
X0058777Y0135521D01*
X0057503Y0134247D01*
X0057503Y0132446D01*
X0058571Y0131378D01*
X0058290Y0131098D01*
X0058290Y0129296D01*
X0059087Y0128499D01*
X0059087Y0126476D01*
X0060662Y0124902D01*
X0060669Y0124894D01*
X0059394Y0124894D01*
X0058216Y0126072D01*
X0056415Y0126072D01*
X0055141Y0124798D01*
X0055141Y0122997D01*
X0056415Y0121723D01*
X0056967Y0121723D01*
X0057364Y0121326D01*
X0066716Y0121326D01*
X0067761Y0122371D01*
X0071698Y0126308D01*
X0071698Y0131820D01*
X0082512Y0142634D01*
X0084135Y0141011D01*
X0090670Y0141011D01*
X0091060Y0140620D01*
X0092862Y0140620D01*
X0094136Y0141894D01*
X0094136Y0143696D01*
X0092862Y0144970D01*
X0091060Y0144970D01*
X0090670Y0144580D01*
X0085614Y0144580D01*
X0085036Y0145157D01*
X0085084Y0145206D01*
X0085084Y0152292D01*
X0088763Y0155972D01*
X0093488Y0155972D01*
X0102546Y0165030D01*
X0103098Y0165030D01*
X0104372Y0166304D01*
X0104372Y0168106D01*
X0103098Y0169380D01*
X0101297Y0169380D01*
X0100023Y0168106D01*
X0100023Y0167553D01*
X0099638Y0167169D01*
X0099638Y0168996D01*
X0100406Y0169764D01*
X0102862Y0169764D01*
X0103659Y0168967D01*
X0105460Y0168967D01*
X0106734Y0170241D01*
X0106734Y0172043D01*
X0105460Y0173317D01*
X0105086Y0173317D01*
X0105160Y0173391D01*
X0105160Y0175192D01*
X0103886Y0176466D01*
X0102797Y0176466D01*
X0102797Y0177554D01*
X0101523Y0178828D01*
X0099722Y0178828D01*
X0098448Y0177554D01*
X0098448Y0176427D01*
X0094540Y0172520D01*
X0093733Y0171713D01*
X0093733Y0169350D01*
X0089028Y0164646D01*
X0085091Y0164646D01*
X0077591Y0157146D01*
X0077591Y0159114D01*
X0073654Y0163051D01*
X0073654Y0165847D01*
X0074412Y0166605D01*
X0075539Y0166605D01*
X0076813Y0167879D01*
X0076813Y0169680D01*
X0075539Y0170954D01*
X0073737Y0170954D01*
X0073611Y0170828D02*
X0012502Y0170828D01*
X0012502Y0171614D02*
X0093733Y0171614D01*
X0093733Y0170828D02*
X0075666Y0170828D01*
X0076452Y0170042D02*
X0093733Y0170042D01*
X0093638Y0169256D02*
X0076813Y0169256D01*
X0076813Y0168470D02*
X0092852Y0168470D01*
X0092066Y0167684D02*
X0076618Y0167684D01*
X0075832Y0166898D02*
X0091281Y0166898D01*
X0090495Y0166112D02*
X0073920Y0166112D01*
X0073654Y0165326D02*
X0089709Y0165326D01*
X0089599Y0163268D02*
X0085662Y0163268D01*
X0077788Y0155394D01*
X0077788Y0148307D01*
X0064402Y0134921D01*
X0064402Y0134134D01*
X0062827Y0132559D01*
X0062827Y0135709D02*
X0062040Y0135709D01*
X0059678Y0133346D01*
X0058890Y0133346D01*
X0057503Y0133104D02*
X0012502Y0133104D01*
X0012502Y0133890D02*
X0057503Y0133890D01*
X0057931Y0134676D02*
X0012502Y0134676D01*
X0012502Y0135462D02*
X0058717Y0135462D01*
X0060630Y0136247D02*
X0012502Y0136247D01*
X0012502Y0137033D02*
X0061416Y0137033D01*
X0062989Y0137819D02*
X0012502Y0137819D01*
X0012502Y0138605D02*
X0063775Y0138605D01*
X0064561Y0139391D02*
X0012502Y0139391D01*
X0012502Y0140177D02*
X0065347Y0140177D01*
X0066133Y0140963D02*
X0012502Y0140963D01*
X0012502Y0141749D02*
X0066919Y0141749D01*
X0067705Y0142535D02*
X0012502Y0142535D01*
X0012502Y0143321D02*
X0068491Y0143321D01*
X0069276Y0144107D02*
X0012502Y0144107D01*
X0012502Y0144892D02*
X0070062Y0144892D01*
X0070848Y0145678D02*
X0047526Y0145678D01*
X0047193Y0145345D02*
X0047990Y0146142D01*
X0048437Y0146142D01*
X0050800Y0148504D01*
X0051607Y0149311D01*
X0051607Y0166294D01*
X0051616Y0166304D01*
X0051616Y0168106D01*
X0050342Y0169380D01*
X0048541Y0169380D01*
X0047267Y0168106D01*
X0047267Y0166304D01*
X0048541Y0165030D01*
X0048851Y0165030D01*
X0048851Y0150453D01*
X0047643Y0149244D01*
X0047193Y0149694D01*
X0045391Y0149694D01*
X0044117Y0148421D01*
X0044117Y0146619D01*
X0045391Y0145345D01*
X0047193Y0145345D01*
X0048760Y0146464D02*
X0071634Y0146464D01*
X0072420Y0147250D02*
X0049546Y0147250D01*
X0050332Y0148036D02*
X0073206Y0148036D01*
X0073992Y0148822D02*
X0051118Y0148822D01*
X0051607Y0149608D02*
X0074778Y0149608D01*
X0074835Y0150394D02*
X0051607Y0150394D01*
X0051607Y0151180D02*
X0074835Y0151180D01*
X0074835Y0151966D02*
X0051607Y0151966D01*
X0051607Y0152752D02*
X0074835Y0152752D01*
X0074835Y0153538D02*
X0051607Y0153538D01*
X0051607Y0154323D02*
X0074835Y0154323D01*
X0074835Y0155109D02*
X0051607Y0155109D01*
X0051607Y0155895D02*
X0074835Y0155895D01*
X0074835Y0156681D02*
X0051607Y0156681D01*
X0051607Y0157467D02*
X0074835Y0157467D01*
X0074555Y0158253D02*
X0051607Y0158253D01*
X0051607Y0159039D02*
X0073769Y0159039D01*
X0072983Y0159825D02*
X0051607Y0159825D01*
X0051607Y0160611D02*
X0072197Y0160611D01*
X0071411Y0161397D02*
X0051607Y0161397D01*
X0051607Y0162183D02*
X0070898Y0162183D01*
X0070898Y0162968D02*
X0051607Y0162968D01*
X0051607Y0163754D02*
X0070898Y0163754D01*
X0070898Y0164540D02*
X0051607Y0164540D01*
X0051607Y0165326D02*
X0070898Y0165326D01*
X0070898Y0166112D02*
X0051607Y0166112D01*
X0051616Y0166898D02*
X0070898Y0166898D01*
X0071594Y0167684D02*
X0051616Y0167684D01*
X0051252Y0168470D02*
X0072380Y0168470D01*
X0072463Y0169256D02*
X0050466Y0169256D01*
X0048417Y0169256D02*
X0012502Y0169256D01*
X0012502Y0170042D02*
X0072825Y0170042D01*
X0074638Y0168780D02*
X0072276Y0166417D01*
X0072276Y0162480D01*
X0076213Y0158543D01*
X0076213Y0149094D01*
X0062827Y0135709D01*
X0065977Y0134134D02*
X0065977Y0130984D01*
X0063615Y0128622D01*
X0062040Y0125472D02*
X0065189Y0125472D01*
X0067552Y0127835D01*
X0067552Y0133346D01*
X0080938Y0146732D01*
X0080938Y0153819D01*
X0087237Y0160118D01*
X0091174Y0160118D01*
X0098260Y0167205D01*
X0098260Y0169567D01*
X0099835Y0171142D01*
X0104560Y0171142D01*
X0106734Y0170828D02*
X0206065Y0170828D01*
X0206065Y0171614D02*
X0106734Y0171614D01*
X0106377Y0172399D02*
X0206065Y0172399D01*
X0206065Y0173185D02*
X0105592Y0173185D01*
X0105160Y0173971D02*
X0206065Y0173971D01*
X0206065Y0174757D02*
X0105160Y0174757D01*
X0104809Y0175543D02*
X0206065Y0175543D01*
X0206065Y0176329D02*
X0104023Y0176329D01*
X0102797Y0177115D02*
X0206065Y0177115D01*
X0206065Y0177901D02*
X0149040Y0177901D01*
X0149826Y0178687D02*
X0206065Y0178687D01*
X0206065Y0184188D02*
X0192246Y0184188D01*
X0192081Y0184974D02*
X0206065Y0184974D01*
X0206065Y0185760D02*
X0191756Y0185760D01*
X0191238Y0186546D02*
X0206065Y0186546D01*
X0206065Y0187332D02*
X0190352Y0187332D01*
X0180669Y0179473D02*
X0150041Y0179473D01*
X0150041Y0180259D02*
X0179137Y0180259D01*
X0178373Y0181044D02*
X0149821Y0181044D01*
X0150607Y0181830D02*
X0177896Y0181830D01*
X0177607Y0182616D02*
X0150829Y0182616D01*
X0148654Y0182953D02*
X0139205Y0182953D01*
X0136843Y0185315D01*
X0136843Y0181378D02*
X0132119Y0186102D01*
X0129944Y0185760D02*
X0092571Y0185760D01*
X0092571Y0186546D02*
X0129944Y0186546D01*
X0130272Y0187332D02*
X0121463Y0187332D01*
X0121517Y0195977D02*
X0097838Y0195977D01*
X0098624Y0196763D02*
X0120731Y0196763D01*
X0120486Y0197549D02*
X0098870Y0197549D01*
X0098870Y0198335D02*
X0120486Y0198335D01*
X0120788Y0199120D02*
X0098567Y0199120D01*
X0097781Y0199906D02*
X0121574Y0199906D01*
X0130171Y0184974D02*
X0092347Y0184974D01*
X0091561Y0184188D02*
X0130957Y0184188D01*
X0132870Y0183402D02*
X0087612Y0183402D01*
X0088398Y0184188D02*
X0089212Y0184188D01*
X0095206Y0173185D02*
X0012502Y0173185D01*
X0012502Y0172399D02*
X0094420Y0172399D01*
X0095111Y0171142D02*
X0095111Y0168780D01*
X0089599Y0163268D01*
X0090386Y0161693D02*
X0086449Y0161693D01*
X0079363Y0154606D01*
X0079363Y0147520D01*
X0065977Y0134134D01*
X0071698Y0131532D02*
X0206065Y0131532D01*
X0206065Y0132318D02*
X0072196Y0132318D01*
X0072982Y0133104D02*
X0206065Y0133104D01*
X0206065Y0133890D02*
X0073768Y0133890D01*
X0074554Y0134676D02*
X0206065Y0134676D01*
X0206065Y0135462D02*
X0075340Y0135462D01*
X0076126Y0136247D02*
X0206065Y0136247D01*
X0206065Y0137033D02*
X0076911Y0137033D01*
X0077697Y0137819D02*
X0206065Y0137819D01*
X0206065Y0138605D02*
X0078483Y0138605D01*
X0079269Y0139391D02*
X0206065Y0139391D01*
X0206065Y0140177D02*
X0080055Y0140177D01*
X0080841Y0140963D02*
X0090718Y0140963D01*
X0093204Y0140963D02*
X0206065Y0140963D01*
X0206065Y0141749D02*
X0093990Y0141749D01*
X0094136Y0142535D02*
X0206065Y0142535D01*
X0206065Y0143321D02*
X0094136Y0143321D01*
X0093725Y0144107D02*
X0206065Y0144107D01*
X0206065Y0144892D02*
X0092940Y0144892D01*
X0090983Y0144892D02*
X0085301Y0144892D01*
X0085084Y0145678D02*
X0206065Y0145678D01*
X0206065Y0146464D02*
X0085084Y0146464D01*
X0085084Y0147250D02*
X0206065Y0147250D01*
X0206065Y0148036D02*
X0085084Y0148036D01*
X0085084Y0148822D02*
X0206065Y0148822D01*
X0206065Y0149608D02*
X0085084Y0149608D01*
X0085084Y0150394D02*
X0206065Y0150394D01*
X0206065Y0151180D02*
X0085084Y0151180D01*
X0085084Y0151966D02*
X0206065Y0151966D01*
X0206065Y0152752D02*
X0085543Y0152752D01*
X0086329Y0153538D02*
X0206065Y0153538D01*
X0206065Y0154323D02*
X0087115Y0154323D01*
X0087901Y0155109D02*
X0206065Y0155109D01*
X0206065Y0155895D02*
X0088687Y0155895D01*
X0090386Y0161693D02*
X0096686Y0167992D01*
X0096686Y0170354D01*
X0099048Y0172717D01*
X0101410Y0172717D01*
X0102985Y0174291D01*
X0100623Y0176654D02*
X0095111Y0171142D01*
X0095992Y0173971D02*
X0012502Y0173971D01*
X0012502Y0174757D02*
X0096777Y0174757D01*
X0097563Y0175543D02*
X0012502Y0175543D01*
X0012502Y0176329D02*
X0098349Y0176329D01*
X0098448Y0177115D02*
X0012502Y0177115D01*
X0012502Y0177901D02*
X0098794Y0177901D01*
X0099580Y0178687D02*
X0012502Y0178687D01*
X0012502Y0179473D02*
X0145692Y0179473D01*
X0145907Y0178687D02*
X0101665Y0178687D01*
X0102451Y0177901D02*
X0146693Y0177901D01*
X0147867Y0179803D02*
X0146292Y0181378D01*
X0136843Y0181378D01*
X0136014Y0180259D02*
X0012502Y0180259D01*
X0012502Y0181044D02*
X0135228Y0181044D01*
X0134442Y0181830D02*
X0012502Y0181830D01*
X0012502Y0182616D02*
X0133656Y0182616D01*
X0139205Y0191614D02*
X0146292Y0191614D01*
X0147867Y0193189D01*
X0150229Y0193189D01*
X0153842Y0207766D02*
X0136385Y0207766D01*
X0137171Y0208551D02*
X0206065Y0208551D01*
X0186646Y0226627D02*
X0185859Y0226627D01*
X0185859Y0227413D02*
X0186646Y0227413D01*
X0186646Y0228199D02*
X0185859Y0228199D01*
X0185859Y0228985D02*
X0186646Y0228985D01*
X0186646Y0229771D02*
X0185859Y0229771D01*
X0179937Y0228985D02*
X0179793Y0228985D01*
X0179937Y0228199D02*
X0179007Y0228199D01*
X0180001Y0227413D02*
X0177421Y0227413D01*
X0175005Y0227413D02*
X0172425Y0227413D01*
X0172489Y0228199D02*
X0173419Y0228199D01*
X0172633Y0228985D02*
X0172489Y0228985D01*
X0172135Y0229803D02*
X0166567Y0229803D01*
X0166567Y0230591D01*
X0171809Y0230591D01*
X0172135Y0229803D01*
X0171823Y0230557D02*
X0166567Y0230557D01*
X0166567Y0231343D02*
X0165780Y0231343D01*
X0165780Y0232129D02*
X0166567Y0232129D01*
X0166567Y0232915D02*
X0165780Y0232915D01*
X0165780Y0233701D02*
X0166567Y0233701D01*
X0165780Y0230557D02*
X0155687Y0230557D01*
X0156092Y0229771D02*
X0159859Y0229771D01*
X0159859Y0231343D02*
X0156473Y0231343D01*
X0157259Y0232129D02*
X0159859Y0232129D01*
X0159905Y0232915D02*
X0157906Y0232915D01*
X0157906Y0233701D02*
X0160442Y0233701D01*
X0157906Y0234487D02*
X0172444Y0234487D01*
X0172070Y0233701D02*
X0171905Y0233701D01*
X0173230Y0235272D02*
X0158041Y0235272D01*
X0158826Y0236058D02*
X0174547Y0236058D01*
X0175927Y0237630D02*
X0160268Y0237630D01*
X0160268Y0238416D02*
X0160755Y0238416D01*
X0158890Y0238071D02*
X0158890Y0240433D01*
X0160053Y0242346D02*
X0160662Y0242346D01*
X0160662Y0244703D02*
X0080530Y0244703D01*
X0079744Y0245489D02*
X0160662Y0245489D01*
X0160662Y0246275D02*
X0065002Y0246275D01*
X0064787Y0247061D02*
X0160662Y0247061D01*
X0161034Y0247847D02*
X0064001Y0247847D01*
X0069169Y0245489D02*
X0077406Y0245489D01*
X0068621Y0239988D02*
X0153795Y0239988D01*
X0153009Y0239202D02*
X0067835Y0239202D01*
X0080037Y0260306D02*
X0081164Y0260306D01*
X0081942Y0259528D01*
X0091838Y0259528D01*
X0092635Y0258731D01*
X0094437Y0258731D01*
X0095711Y0260005D01*
X0095711Y0261806D01*
X0094437Y0263080D01*
X0092635Y0263080D01*
X0091838Y0262283D01*
X0083112Y0262283D01*
X0083112Y0263381D01*
X0081838Y0264655D01*
X0080037Y0264655D01*
X0078763Y0263381D01*
X0078763Y0261579D01*
X0080037Y0260306D01*
X0079920Y0260422D02*
X0012502Y0260422D01*
X0012502Y0261208D02*
X0079135Y0261208D01*
X0078763Y0261994D02*
X0012502Y0261994D01*
X0012502Y0262779D02*
X0078763Y0262779D01*
X0078947Y0263565D02*
X0012502Y0263565D01*
X0012502Y0264351D02*
X0079733Y0264351D01*
X0080938Y0262480D02*
X0082512Y0260906D01*
X0093536Y0260906D01*
X0095711Y0261208D02*
X0111056Y0261208D01*
X0111056Y0261994D02*
X0095524Y0261994D01*
X0094738Y0262779D02*
X0111056Y0262779D01*
X0111056Y0263051D02*
X0111056Y0259454D01*
X0110259Y0258657D01*
X0110259Y0256855D01*
X0111533Y0255581D01*
X0113334Y0255581D01*
X0114608Y0256855D01*
X0114608Y0258657D01*
X0113812Y0259454D01*
X0113812Y0261880D01*
X0114909Y0261880D01*
X0116183Y0263154D01*
X0116183Y0264956D01*
X0114909Y0266230D01*
X0113108Y0266230D01*
X0111834Y0264956D01*
X0111834Y0263829D01*
X0111056Y0263051D01*
X0111570Y0263565D02*
X0082928Y0263565D01*
X0083112Y0262779D02*
X0092334Y0262779D01*
X0092516Y0258850D02*
X0012502Y0258850D01*
X0012502Y0259636D02*
X0081833Y0259636D01*
X0082142Y0264351D02*
X0111834Y0264351D01*
X0112015Y0265137D02*
X0012502Y0265137D01*
X0012502Y0265923D02*
X0112801Y0265923D01*
X0114008Y0264055D02*
X0112434Y0262480D01*
X0112434Y0257756D01*
X0114608Y0258064D02*
X0161108Y0258064D01*
X0160662Y0258850D02*
X0114415Y0258850D01*
X0113812Y0259636D02*
X0160662Y0259636D01*
X0160662Y0260422D02*
X0113812Y0260422D01*
X0113812Y0261208D02*
X0160662Y0261208D01*
X0160662Y0261994D02*
X0115022Y0261994D01*
X0115808Y0262779D02*
X0160967Y0262779D01*
X0160662Y0263565D02*
X0116183Y0263565D01*
X0116183Y0264351D02*
X0160662Y0264351D01*
X0160662Y0265137D02*
X0116002Y0265137D01*
X0115216Y0265923D02*
X0160662Y0265923D01*
X0160662Y0266709D02*
X0012502Y0266709D01*
X0012502Y0267495D02*
X0160682Y0267495D01*
X0161069Y0272110D02*
X0165780Y0272110D01*
X0165780Y0275472D01*
X0166567Y0275472D01*
X0166567Y0272110D01*
X0171278Y0272110D01*
X0171633Y0272205D01*
X0171951Y0272389D01*
X0172027Y0272465D01*
X0172361Y0271659D01*
X0173640Y0270381D01*
X0175309Y0269689D01*
X0177117Y0269689D01*
X0178787Y0270381D01*
X0180065Y0271659D01*
X0180399Y0272465D01*
X0180475Y0272389D01*
X0180793Y0272205D01*
X0181148Y0272110D01*
X0185859Y0272110D01*
X0185859Y0275472D01*
X0186646Y0275472D01*
X0186646Y0272110D01*
X0191357Y0272110D01*
X0191712Y0272205D01*
X0192029Y0272389D01*
X0192289Y0272648D01*
X0192472Y0272966D01*
X0192567Y0273320D01*
X0192567Y0275472D01*
X0186646Y0275472D01*
X0186646Y0276260D01*
X0185859Y0276260D01*
X0185859Y0279622D01*
X0181148Y0279622D01*
X0180793Y0279527D01*
X0180475Y0279344D01*
X0180216Y0279084D01*
X0180032Y0278766D01*
X0179937Y0278412D01*
X0179937Y0276933D01*
X0178787Y0278084D01*
X0177117Y0278776D01*
X0175309Y0278776D01*
X0173640Y0278084D01*
X0172489Y0276933D01*
X0172489Y0278412D01*
X0172394Y0278766D01*
X0172210Y0279084D01*
X0171951Y0279344D01*
X0171633Y0279527D01*
X0171278Y0279622D01*
X0166567Y0279622D01*
X0166567Y0276260D01*
X0165780Y0276260D01*
X0165780Y0279622D01*
X0161069Y0279622D01*
X0160715Y0279527D01*
X0160397Y0279344D01*
X0160137Y0279084D01*
X0159954Y0278766D01*
X0159859Y0278412D01*
X0159859Y0276260D01*
X0165780Y0276260D01*
X0165780Y0275472D01*
X0159859Y0275472D01*
X0159859Y0273320D01*
X0159954Y0272966D01*
X0160137Y0272648D01*
X0160397Y0272389D01*
X0160715Y0272205D01*
X0161069Y0272110D01*
X0160706Y0272210D02*
X0012502Y0272210D01*
X0012502Y0271424D02*
X0172596Y0271424D01*
X0172133Y0272210D02*
X0171642Y0272210D01*
X0173382Y0270639D02*
X0012502Y0270639D01*
X0012502Y0269853D02*
X0174914Y0269853D01*
X0177512Y0269853D02*
X0206065Y0269853D01*
X0206065Y0270639D02*
X0179045Y0270639D01*
X0179830Y0271424D02*
X0206065Y0271424D01*
X0206065Y0272210D02*
X0191721Y0272210D01*
X0192481Y0272996D02*
X0206065Y0272996D01*
X0206065Y0273782D02*
X0192567Y0273782D01*
X0192567Y0274568D02*
X0206065Y0274568D01*
X0206065Y0275354D02*
X0192567Y0275354D01*
X0192567Y0276260D02*
X0192567Y0278412D01*
X0192472Y0278766D01*
X0192289Y0279084D01*
X0192029Y0279344D01*
X0191712Y0279527D01*
X0191357Y0279622D01*
X0186646Y0279622D01*
X0186646Y0276260D01*
X0192567Y0276260D01*
X0192567Y0276926D02*
X0206065Y0276926D01*
X0206065Y0277712D02*
X0192567Y0277712D01*
X0192544Y0278498D02*
X0206065Y0278498D01*
X0206065Y0279284D02*
X0192089Y0279284D01*
X0186646Y0279284D02*
X0185859Y0279284D01*
X0185859Y0278498D02*
X0186646Y0278498D01*
X0186646Y0277712D02*
X0185859Y0277712D01*
X0185859Y0276926D02*
X0186646Y0276926D01*
X0186646Y0276140D02*
X0206065Y0276140D01*
X0206065Y0280070D02*
X0012502Y0280070D01*
X0012502Y0280855D02*
X0206065Y0280855D01*
X0206065Y0281641D02*
X0012502Y0281641D01*
X0012502Y0282427D02*
X0206065Y0282427D01*
X0206065Y0283213D02*
X0012502Y0283213D01*
X0012502Y0283999D02*
X0206065Y0283999D01*
X0206065Y0284785D02*
X0012502Y0284785D01*
X0012502Y0285571D02*
X0206065Y0285571D01*
X0206065Y0286357D02*
X0012502Y0286357D01*
X0012502Y0287143D02*
X0206065Y0287143D01*
X0206065Y0287929D02*
X0012502Y0287929D01*
X0012502Y0288715D02*
X0206065Y0288715D01*
X0206065Y0289500D02*
X0012502Y0289500D01*
X0012502Y0290286D02*
X0206065Y0290286D01*
X0206065Y0291072D02*
X0012502Y0291072D01*
X0012502Y0291858D02*
X0206065Y0291858D01*
X0206065Y0292644D02*
X0012502Y0292644D01*
X0012502Y0293430D02*
X0206065Y0293430D01*
X0206065Y0294216D02*
X0012502Y0294216D01*
X0012502Y0295002D02*
X0206065Y0295002D01*
X0206065Y0295788D02*
X0012502Y0295788D01*
X0012502Y0296574D02*
X0206065Y0296574D01*
X0206065Y0297360D02*
X0012502Y0297360D01*
X0012502Y0298146D02*
X0206065Y0298146D01*
X0206065Y0298931D02*
X0012502Y0298931D01*
X0012502Y0299717D02*
X0206065Y0299717D01*
X0206065Y0300503D02*
X0201429Y0300503D01*
X0201796Y0300632D02*
X0202834Y0301131D01*
X0203808Y0301744D01*
X0204709Y0302462D01*
X0205523Y0303276D01*
X0206065Y0303956D01*
X0206065Y0021004D01*
X0205523Y0021685D01*
X0204709Y0022499D01*
X0203808Y0023217D01*
X0202834Y0023829D01*
X0201796Y0024329D01*
X0200709Y0024709D01*
X0199587Y0024966D01*
X0198442Y0025094D01*
X0198260Y0025094D01*
X0198260Y0015236D01*
X0197473Y0015236D01*
X0197473Y0014449D01*
X0187615Y0014449D01*
X0187615Y0014267D01*
X0187744Y0013123D01*
X0188000Y0012000D01*
X0188380Y0010913D01*
X0188880Y0009876D01*
X0189492Y0008901D01*
X0190210Y0008000D01*
X0191024Y0007186D01*
X0191705Y0006644D01*
X0180611Y0006644D01*
X0180993Y0007171D01*
X0181304Y0007780D01*
X0181516Y0008431D01*
X0181614Y0009055D01*
X0177670Y0009055D01*
X0177670Y0009842D01*
X0181614Y0009842D01*
X0181516Y0010467D01*
X0181304Y0011117D01*
X0180993Y0011727D01*
X0180591Y0012280D01*
X0180108Y0012764D01*
X0179554Y0013166D01*
X0178945Y0013477D01*
X0178294Y0013688D01*
X0177670Y0013787D01*
X0177670Y0009843D01*
X0176882Y0009843D01*
X0176882Y0013787D01*
X0176258Y0013688D01*
X0176213Y0013674D01*
X0176213Y0015224D01*
X0176258Y0015209D01*
X0176882Y0015111D01*
X0176882Y0019055D01*
X0172938Y0019055D01*
X0173037Y0018431D01*
X0173051Y0018386D01*
X0171501Y0018386D01*
X0171516Y0018431D01*
X0171614Y0019055D01*
X0167670Y0019055D01*
X0167670Y0019842D01*
X0171614Y0019842D01*
X0171516Y0020467D01*
X0171304Y0021117D01*
X0170993Y0021727D01*
X0170591Y0022280D01*
X0170108Y0022764D01*
X0169554Y0023166D01*
X0168945Y0023477D01*
X0168294Y0023688D01*
X0167670Y0023787D01*
X0167670Y0019843D01*
X0166882Y0019843D01*
X0166882Y0023787D01*
X0166258Y0023688D01*
X0165608Y0023477D01*
X0164998Y0023166D01*
X0164445Y0022764D01*
X0163961Y0022280D01*
X0163559Y0021727D01*
X0163248Y0021117D01*
X0163037Y0020467D01*
X0162938Y0019842D01*
X0166882Y0019842D01*
X0166882Y0019055D01*
X0162938Y0019055D01*
X0163037Y0018431D01*
X0163248Y0017780D01*
X0163559Y0017171D01*
X0163961Y0016617D01*
X0164445Y0016134D01*
X0164998Y0015731D01*
X0165608Y0015421D01*
X0166258Y0015209D01*
X0166882Y0015111D01*
X0166882Y0019055D01*
X0167670Y0019055D01*
X0167670Y0015111D01*
X0168294Y0015209D01*
X0168339Y0015224D01*
X0168339Y0013674D01*
X0168294Y0013688D01*
X0167670Y0013787D01*
X0167670Y0009843D01*
X0166882Y0009843D01*
X0166882Y0013787D01*
X0166258Y0013688D01*
X0165608Y0013477D01*
X0164998Y0013166D01*
X0164445Y0012764D01*
X0163961Y0012280D01*
X0163559Y0011727D01*
X0163248Y0011117D01*
X0163037Y0010467D01*
X0162938Y0009842D01*
X0166882Y0009842D01*
X0166882Y0009055D01*
X0162938Y0009055D01*
X0163037Y0008431D01*
X0163248Y0007780D01*
X0163559Y0007171D01*
X0163942Y0006644D01*
X0149114Y0006644D01*
X0149497Y0007171D01*
X0149808Y0007780D01*
X0150019Y0008431D01*
X0150118Y0009055D01*
X0146174Y0009055D01*
X0146174Y0009842D01*
X0150118Y0009842D01*
X0150019Y0010467D01*
X0149808Y0011117D01*
X0149497Y0011727D01*
X0149095Y0012280D01*
X0148612Y0012764D01*
X0148058Y0013166D01*
X0147448Y0013477D01*
X0146798Y0013688D01*
X0146174Y0013787D01*
X0146174Y0009843D01*
X0145386Y0009843D01*
X0145386Y0013787D01*
X0144762Y0013688D01*
X0144717Y0013674D01*
X0144717Y0015224D01*
X0144762Y0015209D01*
X0145386Y0015111D01*
X0145386Y0019055D01*
X0141442Y0019055D01*
X0141541Y0018431D01*
X0141555Y0018386D01*
X0140005Y0018386D01*
X0140019Y0018431D01*
X0140118Y0019055D01*
X0136174Y0019055D01*
X0136174Y0019842D01*
X0140118Y0019842D01*
X0140019Y0020467D01*
X0139808Y0021117D01*
X0139497Y0021727D01*
X0139095Y0022280D01*
X0138612Y0022764D01*
X0138058Y0023166D01*
X0137448Y0023477D01*
X0136798Y0023688D01*
X0136174Y0023787D01*
X0136174Y0019843D01*
X0135386Y0019843D01*
X0135386Y0023787D01*
X0134762Y0023688D01*
X0134112Y0023477D01*
X0133502Y0023166D01*
X0132948Y0022764D01*
X0132465Y0022280D01*
X0132063Y0021727D01*
X0131752Y0021117D01*
X0131541Y0020467D01*
X0131442Y0019842D01*
X0135386Y0019842D01*
X0135386Y0019055D01*
X0131442Y0019055D01*
X0131541Y0018431D01*
X0131752Y0017780D01*
X0132063Y0017171D01*
X0132465Y0016617D01*
X0132948Y0016134D01*
X0133502Y0015731D01*
X0134112Y0015421D01*
X0134762Y0015209D01*
X0135386Y0015111D01*
X0135386Y0019055D01*
X0136174Y0019055D01*
X0136174Y0015111D01*
X0136798Y0015209D01*
X0136843Y0015224D01*
X0136843Y0013674D01*
X0136798Y0013688D01*
X0136174Y0013787D01*
X0136174Y0009843D01*
X0135386Y0009843D01*
X0135386Y0013787D01*
X0134762Y0013688D01*
X0134112Y0013477D01*
X0133502Y0013166D01*
X0132948Y0012764D01*
X0132465Y0012280D01*
X0132063Y0011727D01*
X0131752Y0011117D01*
X0131541Y0010467D01*
X0131442Y0009842D01*
X0135386Y0009842D01*
X0135386Y0009055D01*
X0131442Y0009055D01*
X0131541Y0008431D01*
X0131752Y0007780D01*
X0132063Y0007171D01*
X0132446Y0006644D01*
X0117618Y0006644D01*
X0118001Y0007171D01*
X0118312Y0007780D01*
X0118523Y0008431D01*
X0118622Y0009055D01*
X0114678Y0009055D01*
X0114678Y0009842D01*
X0118622Y0009842D01*
X0118523Y0010467D01*
X0118312Y0011117D01*
X0118001Y0011727D01*
X0117599Y0012280D01*
X0117115Y0012764D01*
X0116562Y0013166D01*
X0115952Y0013477D01*
X0115302Y0013688D01*
X0114678Y0013787D01*
X0114678Y0009843D01*
X0113890Y0009843D01*
X0113890Y0013787D01*
X0113266Y0013688D01*
X0113221Y0013674D01*
X0113221Y0015224D01*
X0113266Y0015209D01*
X0113890Y0015111D01*
X0113890Y0019055D01*
X0109946Y0019055D01*
X0110045Y0018431D01*
X0110059Y0018386D01*
X0108509Y0018386D01*
X0108523Y0018431D01*
X0108622Y0019055D01*
X0104678Y0019055D01*
X0104678Y0019842D01*
X0108622Y0019842D01*
X0108523Y0020467D01*
X0108312Y0021117D01*
X0108001Y0021727D01*
X0107599Y0022280D01*
X0107115Y0022764D01*
X0106562Y0023166D01*
X0105952Y0023477D01*
X0105302Y0023688D01*
X0104678Y0023787D01*
X0104678Y0019843D01*
X0103890Y0019843D01*
X0103890Y0023787D01*
X0103266Y0023688D01*
X0102615Y0023477D01*
X0102006Y0023166D01*
X0101452Y0022764D01*
X0100969Y0022280D01*
X0100567Y0021727D01*
X0100256Y0021117D01*
X0100045Y0020467D01*
X0099946Y0019842D01*
X0103890Y0019842D01*
X0103890Y0019055D01*
X0099946Y0019055D01*
X0100045Y0018431D01*
X0100256Y0017780D01*
X0100567Y0017171D01*
X0100969Y0016617D01*
X0101452Y0016134D01*
X0102006Y0015731D01*
X0102615Y0015421D01*
X0103266Y0015209D01*
X0103890Y0015111D01*
X0103890Y0019055D01*
X0104678Y0019055D01*
X0104678Y0015111D01*
X0105302Y0015209D01*
X0105347Y0015224D01*
X0105347Y0013674D01*
X0105302Y0013688D01*
X0104678Y0013787D01*
X0104678Y0009843D01*
X0103890Y0009843D01*
X0103890Y0013787D01*
X0103266Y0013688D01*
X0102615Y0013477D01*
X0102006Y0013166D01*
X0101452Y0012764D01*
X0100969Y0012280D01*
X0100567Y0011727D01*
X0100256Y0011117D01*
X0100045Y0010467D01*
X0099946Y0009842D01*
X0103890Y0009842D01*
X0103890Y0009055D01*
X0099946Y0009055D01*
X0100045Y0008431D01*
X0100256Y0007780D01*
X0100567Y0007171D01*
X0100949Y0006644D01*
X0086122Y0006644D01*
X0086505Y0007171D01*
X0086816Y0007780D01*
X0087027Y0008431D01*
X0087126Y0009055D01*
X0083182Y0009055D01*
X0083182Y0009842D01*
X0087126Y0009842D01*
X0087027Y0010467D01*
X0086816Y0011117D01*
X0086505Y0011727D01*
X0086103Y0012280D01*
X0085619Y0012764D01*
X0085066Y0013166D01*
X0084456Y0013477D01*
X0083806Y0013688D01*
X0083182Y0013787D01*
X0083182Y0009843D01*
X0082394Y0009843D01*
X0082394Y0013787D01*
X0081770Y0013688D01*
X0081725Y0013674D01*
X0081725Y0015224D01*
X0081770Y0015209D01*
X0082394Y0015111D01*
X0082394Y0019055D01*
X0078450Y0019055D01*
X0078548Y0018431D01*
X0078563Y0018386D01*
X0077013Y0018386D01*
X0077027Y0018431D01*
X0077126Y0019055D01*
X0073182Y0019055D01*
X0073182Y0019842D01*
X0077126Y0019842D01*
X0077027Y0020467D01*
X0076816Y0021117D01*
X0076505Y0021727D01*
X0076103Y0022280D01*
X0075619Y0022764D01*
X0075066Y0023166D01*
X0074456Y0023477D01*
X0073806Y0023688D01*
X0073182Y0023787D01*
X0073182Y0019843D01*
X0072394Y0019843D01*
X0072394Y0023787D01*
X0071770Y0023688D01*
X0071119Y0023477D01*
X0070510Y0023166D01*
X0069956Y0022764D01*
X0069473Y0022280D01*
X0069070Y0021727D01*
X0068760Y0021117D01*
X0068548Y0020467D01*
X0068450Y0019842D01*
X0072394Y0019842D01*
X0072394Y0019055D01*
X0068450Y0019055D01*
X0068548Y0018431D01*
X0068760Y0017780D01*
X0069070Y0017171D01*
X0069473Y0016617D01*
X0069956Y0016134D01*
X0070510Y0015731D01*
X0071119Y0015421D01*
X0071770Y0015209D01*
X0072394Y0015111D01*
X0072394Y0019055D01*
X0073182Y0019055D01*
X0073182Y0015111D01*
X0073806Y0015209D01*
X0073851Y0015224D01*
X0073851Y0013674D01*
X0073806Y0013688D01*
X0073182Y0013787D01*
X0073182Y0009843D01*
X0072394Y0009843D01*
X0072394Y0013787D01*
X0071770Y0013688D01*
X0071119Y0013477D01*
X0070510Y0013166D01*
X0069956Y0012764D01*
X0069473Y0012280D01*
X0069070Y0011727D01*
X0068760Y0011117D01*
X0068548Y0010467D01*
X0068450Y0009842D01*
X0072394Y0009842D01*
X0072394Y0009055D01*
X0068450Y0009055D01*
X0068548Y0008431D01*
X0068760Y0007780D01*
X0069070Y0007171D01*
X0069453Y0006644D01*
X0054626Y0006644D01*
X0055009Y0007171D01*
X0055320Y0007780D01*
X0055531Y0008431D01*
X0055630Y0009055D01*
X0051686Y0009055D01*
X0051686Y0009842D01*
X0055630Y0009842D01*
X0055531Y0010467D01*
X0055320Y0011117D01*
X0055009Y0011727D01*
X0054607Y0012280D01*
X0054123Y0012764D01*
X0053570Y0013166D01*
X0052960Y0013477D01*
X0052310Y0013688D01*
X0052000Y0013737D01*
X0052000Y0015160D01*
X0052310Y0015209D01*
X0052960Y0015421D01*
X0053570Y0015731D01*
X0054123Y0016134D01*
X0054607Y0016617D01*
X0055009Y0017171D01*
X0055320Y0017780D01*
X0055531Y0018431D01*
X0055630Y0019055D01*
X0051686Y0019055D01*
X0051686Y0019842D01*
X0055630Y0019842D01*
X0055531Y0020467D01*
X0055320Y0021117D01*
X0055009Y0021727D01*
X0054607Y0022280D01*
X0054123Y0022764D01*
X0053570Y0023166D01*
X0052960Y0023477D01*
X0052310Y0023688D01*
X0051686Y0023787D01*
X0051686Y0019843D01*
X0050898Y0019843D01*
X0050898Y0023787D01*
X0050274Y0023688D01*
X0049623Y0023477D01*
X0049014Y0023166D01*
X0048460Y0022764D01*
X0047977Y0022280D01*
X0047574Y0021727D01*
X0047264Y0021117D01*
X0047052Y0020467D01*
X0047003Y0020157D01*
X0045580Y0020157D01*
X0045531Y0020467D01*
X0045320Y0021117D01*
X0045009Y0021727D01*
X0044607Y0022280D01*
X0044123Y0022764D01*
X0043570Y0023166D01*
X0042960Y0023477D01*
X0042310Y0023688D01*
X0041686Y0023787D01*
X0041686Y0019843D01*
X0040898Y0019843D01*
X0040898Y0023787D01*
X0040274Y0023688D01*
X0039623Y0023477D01*
X0039014Y0023166D01*
X0038460Y0022764D01*
X0037977Y0022280D01*
X0037574Y0021727D01*
X0037264Y0021117D01*
X0037052Y0020467D01*
X0036954Y0019842D01*
X0040898Y0019842D01*
X0040898Y0019055D01*
X0036954Y0019055D01*
X0037052Y0018431D01*
X0037264Y0017780D01*
X0037574Y0017171D01*
X0037977Y0016617D01*
X0038460Y0016134D01*
X0039014Y0015731D01*
X0039623Y0015421D01*
X0040274Y0015209D01*
X0040583Y0015160D01*
X0040583Y0013737D01*
X0040274Y0013688D01*
X0039623Y0013477D01*
X0039014Y0013166D01*
X0038460Y0012764D01*
X0037977Y0012280D01*
X0037574Y0011727D01*
X0037264Y0011117D01*
X0037052Y0010467D01*
X0036954Y0009842D01*
X0040898Y0009842D01*
X0040898Y0009055D01*
X0036954Y0009055D01*
X0037052Y0008431D01*
X0037264Y0007780D01*
X0037574Y0007171D01*
X0037957Y0006644D01*
X0026863Y0006644D01*
X0027543Y0007186D01*
X0028358Y0008000D01*
X0029076Y0008901D01*
X0029688Y0009876D01*
X0030188Y0010913D01*
X0030568Y0012000D01*
X0030824Y0013123D01*
X0030953Y0014267D01*
X0030953Y0014449D01*
X0021095Y0014449D01*
X0021095Y0015236D01*
X0030953Y0015236D01*
X0030953Y0015418D01*
X0030824Y0016562D01*
X0030568Y0017685D01*
X0030188Y0018772D01*
X0029688Y0019809D01*
X0029076Y0020784D01*
X0028358Y0021685D01*
X0027543Y0022499D01*
X0026643Y0023217D01*
X0025668Y0023829D01*
X0024631Y0024329D01*
X0023544Y0024709D01*
X0022421Y0024966D01*
X0021277Y0025094D01*
X0021095Y0025094D01*
X0021095Y0015236D01*
X0020308Y0015236D01*
X0020308Y0025094D01*
X0020126Y0025094D01*
X0018981Y0024966D01*
X0017859Y0024709D01*
X0016772Y0024329D01*
X0015734Y0023829D01*
X0014759Y0023217D01*
X0013859Y0022499D01*
X0013045Y0021685D01*
X0012502Y0021004D01*
X0012502Y0303956D01*
X0013045Y0303276D01*
X0013859Y0302462D01*
X0014759Y0301744D01*
X0015734Y0301131D01*
X0016772Y0300632D01*
X0017859Y0300251D01*
X0018981Y0299995D01*
X0020126Y0299866D01*
X0020308Y0299866D01*
X0020308Y0309724D01*
X0021095Y0309724D01*
X0021095Y0299866D01*
X0021277Y0299866D01*
X0022421Y0299995D01*
X0023544Y0300251D01*
X0024631Y0300632D01*
X0025668Y0301131D01*
X0026643Y0301744D01*
X0027543Y0302462D01*
X0028358Y0303276D01*
X0029076Y0304176D01*
X0029688Y0305151D01*
X0030188Y0306189D01*
X0030568Y0307276D01*
X0030824Y0308398D01*
X0030953Y0309542D01*
X0030953Y0309724D01*
X0021095Y0309724D01*
X0021095Y0310512D01*
X0030953Y0310512D01*
X0030953Y0310694D01*
X0030824Y0311838D01*
X0030568Y0312961D01*
X0030188Y0314048D01*
X0029688Y0315085D01*
X0029076Y0316060D01*
X0028358Y0316960D01*
X0027543Y0317774D01*
X0026863Y0318317D01*
X0191705Y0318317D01*
X0191024Y0317774D01*
X0190210Y0316960D01*
X0189492Y0316060D01*
X0188880Y0315085D01*
X0188380Y0314048D01*
X0188000Y0312961D01*
X0187744Y0311838D01*
X0187615Y0310694D01*
X0187615Y0310512D01*
X0197473Y0310512D01*
X0197473Y0309724D01*
X0198260Y0309724D01*
X0198260Y0299866D01*
X0198442Y0299866D01*
X0199587Y0299995D01*
X0200709Y0300251D01*
X0201796Y0300632D01*
X0203085Y0301289D02*
X0206065Y0301289D01*
X0206065Y0302075D02*
X0204224Y0302075D01*
X0205108Y0302861D02*
X0206065Y0302861D01*
X0206065Y0303647D02*
X0205819Y0303647D01*
X0198260Y0303647D02*
X0197473Y0303647D01*
X0197473Y0304433D02*
X0198260Y0304433D01*
X0198260Y0305219D02*
X0197473Y0305219D01*
X0197473Y0306005D02*
X0198260Y0306005D01*
X0198260Y0306791D02*
X0197473Y0306791D01*
X0197473Y0307576D02*
X0198260Y0307576D01*
X0198260Y0308362D02*
X0197473Y0308362D01*
X0197473Y0309148D02*
X0198260Y0309148D01*
X0197473Y0309724D02*
X0197473Y0299866D01*
X0197291Y0299866D01*
X0196147Y0299995D01*
X0195024Y0300251D01*
X0193937Y0300632D01*
X0192900Y0301131D01*
X0191925Y0301744D01*
X0191024Y0302462D01*
X0190210Y0303276D01*
X0189492Y0304176D01*
X0188880Y0305151D01*
X0188380Y0306189D01*
X0188000Y0307276D01*
X0187744Y0308398D01*
X0187615Y0309542D01*
X0187615Y0309724D01*
X0197473Y0309724D01*
X0197473Y0309934D02*
X0021095Y0309934D01*
X0021095Y0309148D02*
X0020308Y0309148D01*
X0020308Y0308362D02*
X0021095Y0308362D01*
X0021095Y0307576D02*
X0020308Y0307576D01*
X0020308Y0306791D02*
X0021095Y0306791D01*
X0021095Y0306005D02*
X0020308Y0306005D01*
X0020308Y0305219D02*
X0021095Y0305219D01*
X0021095Y0304433D02*
X0020308Y0304433D01*
X0020308Y0303647D02*
X0021095Y0303647D01*
X0021095Y0302861D02*
X0020308Y0302861D01*
X0020308Y0302075D02*
X0021095Y0302075D01*
X0021095Y0301289D02*
X0020308Y0301289D01*
X0020308Y0300503D02*
X0021095Y0300503D01*
X0017139Y0300503D02*
X0012502Y0300503D01*
X0012502Y0301289D02*
X0015483Y0301289D01*
X0014344Y0302075D02*
X0012502Y0302075D01*
X0012502Y0302861D02*
X0013460Y0302861D01*
X0012749Y0303647D02*
X0012502Y0303647D01*
X0024264Y0300503D02*
X0194304Y0300503D01*
X0192648Y0301289D02*
X0025920Y0301289D01*
X0027059Y0302075D02*
X0191509Y0302075D01*
X0190625Y0302861D02*
X0027943Y0302861D01*
X0028653Y0303647D02*
X0189914Y0303647D01*
X0189331Y0304433D02*
X0029237Y0304433D01*
X0029721Y0305219D02*
X0188847Y0305219D01*
X0188469Y0306005D02*
X0030099Y0306005D01*
X0030398Y0306791D02*
X0188170Y0306791D01*
X0187931Y0307576D02*
X0030637Y0307576D01*
X0030816Y0308362D02*
X0187752Y0308362D01*
X0187659Y0309148D02*
X0030909Y0309148D01*
X0030950Y0310720D02*
X0187618Y0310720D01*
X0187706Y0311506D02*
X0030862Y0311506D01*
X0030721Y0312292D02*
X0187847Y0312292D01*
X0188041Y0313078D02*
X0030527Y0313078D01*
X0030252Y0313864D02*
X0188316Y0313864D01*
X0188670Y0314650D02*
X0029898Y0314650D01*
X0029468Y0315436D02*
X0189100Y0315436D01*
X0189621Y0316222D02*
X0028947Y0316222D01*
X0028310Y0317007D02*
X0190257Y0317007D01*
X0191048Y0317793D02*
X0027520Y0317793D01*
X0012502Y0279284D02*
X0160337Y0279284D01*
X0159882Y0278498D02*
X0012502Y0278498D01*
X0012502Y0277712D02*
X0159859Y0277712D01*
X0159859Y0276926D02*
X0012502Y0276926D01*
X0012502Y0276140D02*
X0165780Y0276140D01*
X0165780Y0276926D02*
X0166567Y0276926D01*
X0166567Y0276260D02*
X0172135Y0276260D01*
X0171809Y0275472D01*
X0166567Y0275472D01*
X0166567Y0276260D01*
X0166567Y0276140D02*
X0172086Y0276140D01*
X0172489Y0277712D02*
X0173267Y0277712D01*
X0172466Y0278498D02*
X0174638Y0278498D01*
X0177788Y0278498D02*
X0179961Y0278498D01*
X0179937Y0277712D02*
X0179159Y0277712D01*
X0180291Y0276260D02*
X0185859Y0276260D01*
X0185859Y0275472D01*
X0180617Y0275472D01*
X0180291Y0276260D01*
X0180341Y0276140D02*
X0185859Y0276140D01*
X0185859Y0275354D02*
X0186646Y0275354D01*
X0186646Y0274568D02*
X0185859Y0274568D01*
X0185859Y0273782D02*
X0186646Y0273782D01*
X0186646Y0272996D02*
X0185859Y0272996D01*
X0185859Y0272210D02*
X0186646Y0272210D01*
X0187434Y0268281D02*
X0188221Y0268281D01*
X0188221Y0268461D02*
X0188221Y0265886D01*
X0192174Y0265886D01*
X0192174Y0267250D01*
X0192079Y0267605D01*
X0191895Y0267923D01*
X0191636Y0268182D01*
X0191318Y0268366D01*
X0190963Y0268461D01*
X0188221Y0268461D01*
X0188221Y0267495D02*
X0187434Y0267495D01*
X0187434Y0266709D02*
X0188221Y0266709D01*
X0188221Y0265923D02*
X0187434Y0265923D01*
X0187434Y0265137D02*
X0172089Y0265137D01*
X0172089Y0265923D02*
X0183481Y0265923D01*
X0183481Y0266709D02*
X0171910Y0266709D01*
X0171125Y0267495D02*
X0183546Y0267495D01*
X0184190Y0268281D02*
X0012502Y0268281D01*
X0012502Y0269067D02*
X0206065Y0269067D01*
X0206065Y0268281D02*
X0191465Y0268281D01*
X0192108Y0267495D02*
X0206065Y0267495D01*
X0206065Y0266709D02*
X0192174Y0266709D01*
X0192174Y0265923D02*
X0206065Y0265923D01*
X0206065Y0265137D02*
X0188221Y0265137D01*
X0192174Y0264351D02*
X0206065Y0264351D01*
X0206065Y0263565D02*
X0192129Y0263565D01*
X0191597Y0262779D02*
X0206065Y0262779D01*
X0206065Y0261994D02*
X0191764Y0261994D01*
X0191764Y0261208D02*
X0206065Y0261208D01*
X0206065Y0260422D02*
X0191764Y0260422D01*
X0191764Y0259636D02*
X0206065Y0259636D01*
X0206065Y0258850D02*
X0191764Y0258850D01*
X0191754Y0258064D02*
X0206065Y0258064D01*
X0206065Y0257278D02*
X0192166Y0257278D01*
X0192174Y0256492D02*
X0206065Y0256492D01*
X0206065Y0255706D02*
X0188221Y0255706D01*
X0187434Y0255706D02*
X0172089Y0255706D01*
X0172089Y0254920D02*
X0183481Y0254920D01*
X0183481Y0254134D02*
X0171730Y0254134D01*
X0170944Y0253348D02*
X0183594Y0253348D01*
X0183695Y0252563D02*
X0183978Y0252563D01*
X0182512Y0250669D02*
X0182689Y0250492D01*
X0187827Y0250492D01*
X0187434Y0245489D02*
X0172089Y0245489D01*
X0172089Y0246275D02*
X0183481Y0246275D01*
X0183481Y0247061D02*
X0171873Y0247061D01*
X0171087Y0247847D02*
X0183716Y0247847D01*
X0183552Y0248633D02*
X0183890Y0248633D01*
X0181473Y0248633D02*
X0170953Y0248633D01*
X0171739Y0249419D02*
X0180687Y0249419D01*
X0180337Y0250205D02*
X0172089Y0250205D01*
X0172089Y0250991D02*
X0180337Y0250991D01*
X0180544Y0251777D02*
X0171882Y0251777D01*
X0171096Y0252563D02*
X0181330Y0252563D01*
X0183481Y0256492D02*
X0171891Y0256492D01*
X0171105Y0257278D02*
X0183488Y0257278D01*
X0183901Y0258064D02*
X0168090Y0258064D01*
X0168536Y0258850D02*
X0168894Y0258850D01*
X0168723Y0257278D02*
X0168536Y0257278D01*
X0169815Y0255492D02*
X0169914Y0255394D01*
X0169815Y0255492D02*
X0164599Y0255492D01*
X0164599Y0260492D02*
X0169500Y0260492D01*
X0169914Y0260906D01*
X0172089Y0261208D02*
X0180337Y0261208D01*
X0180337Y0260422D02*
X0172089Y0260422D01*
X0171720Y0259636D02*
X0180706Y0259636D01*
X0181492Y0258850D02*
X0170934Y0258850D01*
X0171901Y0261994D02*
X0180525Y0261994D01*
X0181311Y0262779D02*
X0171116Y0262779D01*
X0170925Y0263565D02*
X0183526Y0263565D01*
X0183481Y0264351D02*
X0171711Y0264351D01*
X0169914Y0265630D02*
X0169776Y0265492D01*
X0164599Y0265492D01*
X0168536Y0263565D02*
X0168903Y0263565D01*
X0168712Y0262779D02*
X0168231Y0262779D01*
X0168516Y0267495D02*
X0168703Y0267495D01*
X0166567Y0272210D02*
X0165780Y0272210D01*
X0165780Y0272996D02*
X0166567Y0272996D01*
X0166567Y0273782D02*
X0165780Y0273782D01*
X0165780Y0274568D02*
X0166567Y0274568D01*
X0166567Y0275354D02*
X0165780Y0275354D01*
X0165780Y0277712D02*
X0166567Y0277712D01*
X0166567Y0278498D02*
X0165780Y0278498D01*
X0165780Y0279284D02*
X0166567Y0279284D01*
X0172011Y0279284D02*
X0180415Y0279284D01*
X0180293Y0272210D02*
X0180784Y0272210D01*
X0183714Y0262779D02*
X0184058Y0262779D01*
X0182512Y0260906D02*
X0182926Y0260492D01*
X0187827Y0260492D01*
X0183890Y0258850D02*
X0183532Y0258850D01*
X0192174Y0254920D02*
X0206065Y0254920D01*
X0206065Y0254134D02*
X0192174Y0254134D01*
X0192061Y0253348D02*
X0206065Y0253348D01*
X0206065Y0252563D02*
X0191676Y0252563D01*
X0191764Y0251777D02*
X0206065Y0251777D01*
X0206065Y0250991D02*
X0191764Y0250991D01*
X0191764Y0250205D02*
X0206065Y0250205D01*
X0206065Y0249419D02*
X0191764Y0249419D01*
X0191764Y0248633D02*
X0206065Y0248633D01*
X0206065Y0247847D02*
X0191939Y0247847D01*
X0192174Y0247061D02*
X0206065Y0247061D01*
X0206065Y0246275D02*
X0192174Y0246275D01*
X0192174Y0244703D02*
X0206065Y0244703D01*
X0206065Y0243918D02*
X0192174Y0243918D01*
X0191936Y0243132D02*
X0206065Y0243132D01*
X0206065Y0242346D02*
X0191764Y0242346D01*
X0191764Y0241560D02*
X0206065Y0241560D01*
X0206065Y0240774D02*
X0191764Y0240774D01*
X0191764Y0239988D02*
X0206065Y0239988D01*
X0206065Y0239202D02*
X0191764Y0239202D01*
X0187827Y0240492D02*
X0182571Y0240492D01*
X0182512Y0240433D01*
X0180337Y0240774D02*
X0178961Y0240774D01*
X0178175Y0241560D02*
X0180563Y0241560D01*
X0181349Y0242346D02*
X0177389Y0242346D01*
X0179747Y0239988D02*
X0180337Y0239988D01*
X0180533Y0239202D02*
X0180668Y0239202D01*
X0181319Y0238416D02*
X0181454Y0238416D01*
X0183571Y0238416D02*
X0183984Y0238416D01*
X0183890Y0242346D02*
X0183675Y0242346D01*
X0183719Y0243132D02*
X0168158Y0243132D01*
X0168536Y0243918D02*
X0168866Y0243918D01*
X0169461Y0245492D02*
X0169914Y0245945D01*
X0169461Y0245492D02*
X0164599Y0245492D01*
X0164599Y0250492D02*
X0169737Y0250492D01*
X0169914Y0250669D01*
X0168732Y0252563D02*
X0168448Y0252563D01*
X0168375Y0253348D02*
X0168883Y0253348D01*
X0168875Y0248633D02*
X0168536Y0248633D01*
X0168740Y0247847D02*
X0168163Y0247847D01*
X0171748Y0244703D02*
X0183481Y0244703D01*
X0183481Y0243918D02*
X0170962Y0243918D01*
X0176713Y0236844D02*
X0159612Y0236844D01*
X0159461Y0236693D02*
X0159461Y0236693D01*
X0154953Y0238071D02*
X0154953Y0234134D01*
X0151016Y0230197D01*
X0151016Y0227047D01*
X0148841Y0227413D02*
X0012502Y0227413D01*
X0012502Y0228199D02*
X0149093Y0228199D01*
X0149638Y0228985D02*
X0012502Y0228985D01*
X0012502Y0229771D02*
X0149638Y0229771D01*
X0149638Y0230557D02*
X0012502Y0230557D01*
X0012502Y0231343D02*
X0150214Y0231343D01*
X0150999Y0232129D02*
X0012502Y0232129D01*
X0012502Y0232915D02*
X0151785Y0232915D01*
X0152571Y0233701D02*
X0012502Y0233701D01*
X0012502Y0234487D02*
X0153357Y0234487D01*
X0153575Y0235272D02*
X0012502Y0235272D01*
X0012502Y0236058D02*
X0153575Y0236058D01*
X0153104Y0236844D02*
X0012502Y0236844D01*
X0012502Y0237630D02*
X0152778Y0237630D01*
X0152778Y0238416D02*
X0012502Y0238416D01*
X0012502Y0248633D02*
X0160662Y0248633D01*
X0160662Y0249419D02*
X0012502Y0249419D01*
X0012502Y0250205D02*
X0160662Y0250205D01*
X0160662Y0250991D02*
X0012502Y0250991D01*
X0012502Y0251777D02*
X0160662Y0251777D01*
X0160750Y0252563D02*
X0012502Y0252563D01*
X0012502Y0253348D02*
X0160823Y0253348D01*
X0160662Y0254134D02*
X0012502Y0254134D01*
X0012502Y0254920D02*
X0160662Y0254920D01*
X0160662Y0255706D02*
X0113459Y0255706D01*
X0114245Y0256492D02*
X0160662Y0256492D01*
X0160662Y0257278D02*
X0114608Y0257278D01*
X0111408Y0255706D02*
X0012502Y0255706D01*
X0012502Y0256492D02*
X0110622Y0256492D01*
X0110259Y0257278D02*
X0012502Y0257278D01*
X0012502Y0258064D02*
X0110259Y0258064D01*
X0110452Y0258850D02*
X0094556Y0258850D01*
X0095342Y0259636D02*
X0111056Y0259636D01*
X0111056Y0260422D02*
X0095711Y0260422D01*
X0137630Y0212087D02*
X0135268Y0209724D01*
X0137630Y0212087D02*
X0137630Y0222323D01*
X0139008Y0220340D02*
X0139402Y0220340D01*
X0139402Y0219554D02*
X0139008Y0219554D01*
X0139008Y0218768D02*
X0140024Y0218768D01*
X0140810Y0217982D02*
X0139008Y0217982D01*
X0139008Y0217196D02*
X0140967Y0217196D01*
X0141254Y0216411D02*
X0139008Y0216411D01*
X0139008Y0215625D02*
X0142040Y0215625D01*
X0165780Y0226627D02*
X0166567Y0226627D01*
X0166567Y0227413D02*
X0165780Y0227413D01*
X0165780Y0228199D02*
X0166567Y0228199D01*
X0166567Y0228985D02*
X0165780Y0228985D01*
X0165780Y0229771D02*
X0166567Y0229771D01*
X0171791Y0226627D02*
X0180635Y0226627D01*
X0188221Y0245489D02*
X0206065Y0245489D01*
X0198260Y0300503D02*
X0197473Y0300503D01*
X0197473Y0301289D02*
X0198260Y0301289D01*
X0198260Y0302075D02*
X0197473Y0302075D01*
X0197473Y0302861D02*
X0198260Y0302861D01*
X0159859Y0275354D02*
X0012502Y0275354D01*
X0012502Y0274568D02*
X0159859Y0274568D01*
X0159859Y0273782D02*
X0012502Y0273782D01*
X0012502Y0272996D02*
X0159946Y0272996D01*
X0206065Y0170042D02*
X0106535Y0170042D01*
X0105749Y0169256D02*
X0206065Y0169256D01*
X0206065Y0168470D02*
X0104008Y0168470D01*
X0104372Y0167684D02*
X0206065Y0167684D01*
X0206065Y0166898D02*
X0104372Y0166898D01*
X0104180Y0166112D02*
X0206065Y0166112D01*
X0206065Y0165326D02*
X0103394Y0165326D01*
X0102056Y0164540D02*
X0206065Y0164540D01*
X0206065Y0163754D02*
X0101270Y0163754D01*
X0100484Y0162968D02*
X0206065Y0162968D01*
X0206065Y0162183D02*
X0099698Y0162183D01*
X0098913Y0161397D02*
X0206065Y0161397D01*
X0206065Y0160611D02*
X0098127Y0160611D01*
X0097341Y0159825D02*
X0206065Y0159825D01*
X0206065Y0159039D02*
X0096555Y0159039D01*
X0095769Y0158253D02*
X0206065Y0158253D01*
X0206065Y0157467D02*
X0094983Y0157467D01*
X0094197Y0156681D02*
X0206065Y0156681D01*
X0206065Y0130746D02*
X0071698Y0130746D01*
X0071698Y0129960D02*
X0206065Y0129960D01*
X0206065Y0129174D02*
X0071698Y0129174D01*
X0071698Y0128388D02*
X0206065Y0128388D01*
X0206065Y0127602D02*
X0071698Y0127602D01*
X0071698Y0126816D02*
X0206065Y0126816D01*
X0206065Y0126031D02*
X0071421Y0126031D01*
X0070635Y0125245D02*
X0206065Y0125245D01*
X0206065Y0124459D02*
X0069849Y0124459D01*
X0069063Y0123673D02*
X0206065Y0123673D01*
X0206065Y0122887D02*
X0068277Y0122887D01*
X0067491Y0122101D02*
X0206065Y0122101D01*
X0206065Y0121315D02*
X0012502Y0121315D01*
X0012502Y0120529D02*
X0206065Y0120529D01*
X0206065Y0119743D02*
X0012502Y0119743D01*
X0012502Y0118957D02*
X0206065Y0118957D01*
X0206065Y0118171D02*
X0012502Y0118171D01*
X0012502Y0117386D02*
X0206065Y0117386D01*
X0206065Y0116600D02*
X0012502Y0116600D01*
X0012502Y0115814D02*
X0206065Y0115814D01*
X0206065Y0115028D02*
X0012502Y0115028D01*
X0012502Y0114242D02*
X0206065Y0114242D01*
X0206065Y0113456D02*
X0012502Y0113456D01*
X0012502Y0112670D02*
X0206065Y0112670D01*
X0206065Y0111884D02*
X0012502Y0111884D01*
X0012502Y0111098D02*
X0206065Y0111098D01*
X0206065Y0110312D02*
X0012502Y0110312D01*
X0012502Y0109526D02*
X0206065Y0109526D01*
X0206065Y0108741D02*
X0012502Y0108741D01*
X0012502Y0107955D02*
X0206065Y0107955D01*
X0206065Y0107169D02*
X0012502Y0107169D01*
X0012502Y0106383D02*
X0206065Y0106383D01*
X0206065Y0105597D02*
X0012502Y0105597D01*
X0012502Y0104811D02*
X0206065Y0104811D01*
X0206065Y0104025D02*
X0012502Y0104025D01*
X0012502Y0103239D02*
X0206065Y0103239D01*
X0206065Y0102453D02*
X0012502Y0102453D01*
X0012502Y0101667D02*
X0206065Y0101667D01*
X0206065Y0100881D02*
X0012502Y0100881D01*
X0012502Y0100095D02*
X0206065Y0100095D01*
X0206065Y0099310D02*
X0012502Y0099310D01*
X0012502Y0098524D02*
X0206065Y0098524D01*
X0206065Y0097738D02*
X0012502Y0097738D01*
X0012502Y0096952D02*
X0206065Y0096952D01*
X0206065Y0096166D02*
X0012502Y0096166D01*
X0012502Y0095380D02*
X0206065Y0095380D01*
X0206065Y0094594D02*
X0012502Y0094594D01*
X0012502Y0093808D02*
X0206065Y0093808D01*
X0206065Y0093022D02*
X0012502Y0093022D01*
X0012502Y0092236D02*
X0206065Y0092236D01*
X0206065Y0091450D02*
X0012502Y0091450D01*
X0012502Y0090665D02*
X0206065Y0090665D01*
X0206065Y0089879D02*
X0012502Y0089879D01*
X0012502Y0089093D02*
X0206065Y0089093D01*
X0206065Y0088307D02*
X0012502Y0088307D01*
X0012502Y0087521D02*
X0206065Y0087521D01*
X0206065Y0086735D02*
X0012502Y0086735D01*
X0012502Y0085949D02*
X0206065Y0085949D01*
X0206065Y0085163D02*
X0012502Y0085163D01*
X0012502Y0084377D02*
X0206065Y0084377D01*
X0206065Y0083591D02*
X0012502Y0083591D01*
X0012502Y0082805D02*
X0206065Y0082805D01*
X0206065Y0082019D02*
X0012502Y0082019D01*
X0012502Y0081234D02*
X0206065Y0081234D01*
X0206065Y0080448D02*
X0076282Y0080448D01*
X0076813Y0079917D02*
X0075539Y0081191D01*
X0073737Y0081191D01*
X0072463Y0079917D01*
X0072463Y0078115D01*
X0073737Y0076841D01*
X0075539Y0076841D01*
X0075662Y0076963D01*
X0076410Y0076589D01*
X0076410Y0075202D01*
X0075613Y0074405D01*
X0075613Y0072603D01*
X0076887Y0071329D01*
X0078689Y0071329D01*
X0079963Y0072603D01*
X0079963Y0074405D01*
X0079166Y0075202D01*
X0079166Y0077116D01*
X0079276Y0077335D01*
X0079166Y0077665D01*
X0079166Y0078012D01*
X0078992Y0078185D01*
X0078915Y0078418D01*
X0078604Y0078573D01*
X0078359Y0078819D01*
X0078113Y0078819D01*
X0076813Y0079469D01*
X0076813Y0079917D01*
X0076813Y0079662D02*
X0206065Y0079662D01*
X0206065Y0078876D02*
X0077999Y0078876D01*
X0079088Y0078090D02*
X0206065Y0078090D01*
X0206065Y0077304D02*
X0079260Y0077304D01*
X0079166Y0076518D02*
X0101348Y0076518D01*
X0100810Y0075980D02*
X0100810Y0074178D01*
X0102084Y0072904D01*
X0103211Y0072904D01*
X0104776Y0071339D01*
X0106011Y0071339D01*
X0106808Y0070542D01*
X0108610Y0070542D01*
X0109884Y0071816D01*
X0109884Y0073617D01*
X0108610Y0074891D01*
X0106808Y0074891D01*
X0106011Y0074094D01*
X0105918Y0074094D01*
X0105160Y0074853D01*
X0105160Y0075980D01*
X0103886Y0077254D01*
X0102084Y0077254D01*
X0100810Y0075980D01*
X0100810Y0075732D02*
X0079166Y0075732D01*
X0079421Y0074946D02*
X0100810Y0074946D01*
X0100828Y0074160D02*
X0079963Y0074160D01*
X0079963Y0073374D02*
X0101613Y0073374D01*
X0103526Y0072589D02*
X0079948Y0072589D01*
X0079162Y0071803D02*
X0104312Y0071803D01*
X0105347Y0072717D02*
X0102985Y0075079D01*
X0105160Y0074946D02*
X0129944Y0074946D01*
X0129944Y0074178D02*
X0131218Y0072904D01*
X0132345Y0072904D01*
X0133910Y0071339D01*
X0135145Y0071339D01*
X0135942Y0070542D01*
X0137744Y0070542D01*
X0139018Y0071816D01*
X0139018Y0073617D01*
X0137744Y0074891D01*
X0135942Y0074891D01*
X0135145Y0074094D01*
X0135052Y0074094D01*
X0134293Y0074853D01*
X0134293Y0075980D01*
X0133019Y0077254D01*
X0131218Y0077254D01*
X0129944Y0075980D01*
X0129944Y0074178D01*
X0129961Y0074160D02*
X0109341Y0074160D01*
X0109884Y0073374D02*
X0130747Y0073374D01*
X0132660Y0072589D02*
X0109884Y0072589D01*
X0109871Y0071803D02*
X0133446Y0071803D01*
X0134481Y0072717D02*
X0132119Y0075079D01*
X0134293Y0074946D02*
X0159078Y0074946D01*
X0159078Y0074178D02*
X0160352Y0072904D01*
X0161479Y0072904D01*
X0163044Y0071339D01*
X0164279Y0071339D01*
X0165076Y0070542D01*
X0166878Y0070542D01*
X0168152Y0071816D01*
X0168152Y0073617D01*
X0166878Y0074891D01*
X0165076Y0074891D01*
X0164279Y0074094D01*
X0164185Y0074094D01*
X0163427Y0074853D01*
X0163427Y0075980D01*
X0162153Y0077254D01*
X0160352Y0077254D01*
X0159078Y0075980D01*
X0159078Y0074178D01*
X0159095Y0074160D02*
X0138475Y0074160D01*
X0139018Y0073374D02*
X0159881Y0073374D01*
X0161794Y0072589D02*
X0139018Y0072589D01*
X0139005Y0071803D02*
X0162580Y0071803D01*
X0163615Y0072717D02*
X0161252Y0075079D01*
X0159616Y0076518D02*
X0133755Y0076518D01*
X0134293Y0075732D02*
X0159078Y0075732D01*
X0162889Y0076518D02*
X0206065Y0076518D01*
X0206065Y0075732D02*
X0163427Y0075732D01*
X0163427Y0074946D02*
X0206065Y0074946D01*
X0206065Y0074160D02*
X0167609Y0074160D01*
X0168152Y0073374D02*
X0206065Y0073374D01*
X0206065Y0072589D02*
X0168152Y0072589D01*
X0168139Y0071803D02*
X0206065Y0071803D01*
X0206065Y0071017D02*
X0167353Y0071017D01*
X0165977Y0072717D02*
X0163615Y0072717D01*
X0164120Y0074160D02*
X0164345Y0074160D01*
X0164601Y0071017D02*
X0138219Y0071017D01*
X0136843Y0072717D02*
X0134481Y0072717D01*
X0134986Y0074160D02*
X0135211Y0074160D01*
X0135467Y0071017D02*
X0109085Y0071017D01*
X0107709Y0072717D02*
X0105347Y0072717D01*
X0105852Y0074160D02*
X0106077Y0074160D01*
X0105160Y0075732D02*
X0129944Y0075732D01*
X0130482Y0076518D02*
X0104621Y0076518D01*
X0106333Y0071017D02*
X0012502Y0071017D01*
X0012502Y0071803D02*
X0076414Y0071803D01*
X0075628Y0072589D02*
X0012502Y0072589D01*
X0012502Y0073374D02*
X0075613Y0073374D01*
X0075613Y0074160D02*
X0012502Y0074160D01*
X0012502Y0074946D02*
X0076155Y0074946D01*
X0076410Y0075732D02*
X0012502Y0075732D01*
X0012502Y0076518D02*
X0076410Y0076518D01*
X0077788Y0077441D02*
X0074638Y0079016D01*
X0072463Y0078876D02*
X0012502Y0078876D01*
X0012502Y0079662D02*
X0072463Y0079662D01*
X0072995Y0080448D02*
X0012502Y0080448D01*
X0012502Y0078090D02*
X0072488Y0078090D01*
X0073274Y0077304D02*
X0012502Y0077304D01*
X0012502Y0070231D02*
X0206065Y0070231D01*
X0206065Y0069445D02*
X0012502Y0069445D01*
X0012502Y0068659D02*
X0206065Y0068659D01*
X0206065Y0067873D02*
X0012502Y0067873D01*
X0012502Y0067087D02*
X0206065Y0067087D01*
X0206065Y0066301D02*
X0012502Y0066301D01*
X0012502Y0065515D02*
X0206065Y0065515D01*
X0206065Y0064729D02*
X0012502Y0064729D01*
X0012502Y0063943D02*
X0206065Y0063943D01*
X0206065Y0063158D02*
X0012502Y0063158D01*
X0012502Y0062372D02*
X0206065Y0062372D01*
X0206065Y0061586D02*
X0012502Y0061586D01*
X0012502Y0060800D02*
X0206065Y0060800D01*
X0206065Y0060014D02*
X0012502Y0060014D01*
X0012502Y0059228D02*
X0206065Y0059228D01*
X0206065Y0058442D02*
X0012502Y0058442D01*
X0012502Y0057656D02*
X0206065Y0057656D01*
X0206065Y0056870D02*
X0012502Y0056870D01*
X0012502Y0056084D02*
X0206065Y0056084D01*
X0206065Y0055298D02*
X0012502Y0055298D01*
X0012502Y0054513D02*
X0206065Y0054513D01*
X0206065Y0053727D02*
X0012502Y0053727D01*
X0012502Y0052941D02*
X0206065Y0052941D01*
X0206065Y0052155D02*
X0012502Y0052155D01*
X0012502Y0051369D02*
X0206065Y0051369D01*
X0206065Y0050583D02*
X0012502Y0050583D01*
X0012502Y0049797D02*
X0206065Y0049797D01*
X0206065Y0049011D02*
X0012502Y0049011D01*
X0012502Y0048225D02*
X0206065Y0048225D01*
X0206065Y0047439D02*
X0012502Y0047439D01*
X0012502Y0046653D02*
X0206065Y0046653D01*
X0206065Y0045867D02*
X0012502Y0045867D01*
X0012502Y0045082D02*
X0206065Y0045082D01*
X0206065Y0044296D02*
X0012502Y0044296D01*
X0012502Y0043510D02*
X0206065Y0043510D01*
X0206065Y0042724D02*
X0012502Y0042724D01*
X0012502Y0041938D02*
X0206065Y0041938D01*
X0206065Y0041152D02*
X0012502Y0041152D01*
X0012502Y0040366D02*
X0206065Y0040366D01*
X0206065Y0039580D02*
X0012502Y0039580D01*
X0012502Y0038794D02*
X0206065Y0038794D01*
X0206065Y0038008D02*
X0012502Y0038008D01*
X0012502Y0037222D02*
X0206065Y0037222D01*
X0206065Y0036437D02*
X0012502Y0036437D01*
X0012502Y0035651D02*
X0206065Y0035651D01*
X0206065Y0034865D02*
X0012502Y0034865D01*
X0012502Y0034079D02*
X0206065Y0034079D01*
X0206065Y0033293D02*
X0012502Y0033293D01*
X0012502Y0032507D02*
X0206065Y0032507D01*
X0206065Y0031721D02*
X0012502Y0031721D01*
X0012502Y0030935D02*
X0206065Y0030935D01*
X0206065Y0030149D02*
X0012502Y0030149D01*
X0012502Y0029363D02*
X0206065Y0029363D01*
X0206065Y0028577D02*
X0012502Y0028577D01*
X0012502Y0027791D02*
X0206065Y0027791D01*
X0206065Y0027006D02*
X0012502Y0027006D01*
X0012502Y0026220D02*
X0206065Y0026220D01*
X0206065Y0025434D02*
X0012502Y0025434D01*
X0012502Y0024648D02*
X0017683Y0024648D01*
X0015802Y0023862D02*
X0012502Y0023862D01*
X0012502Y0023076D02*
X0014583Y0023076D01*
X0013650Y0022290D02*
X0012502Y0022290D01*
X0012502Y0021504D02*
X0012901Y0021504D01*
X0020308Y0021504D02*
X0021095Y0021504D01*
X0021095Y0020718D02*
X0020308Y0020718D01*
X0020308Y0019932D02*
X0021095Y0019932D01*
X0021095Y0019146D02*
X0020308Y0019146D01*
X0020308Y0018361D02*
X0021095Y0018361D01*
X0021095Y0017575D02*
X0020308Y0017575D01*
X0020308Y0016789D02*
X0021095Y0016789D01*
X0021095Y0016003D02*
X0020308Y0016003D01*
X0021095Y0015217D02*
X0040251Y0015217D01*
X0040583Y0014431D02*
X0030953Y0014431D01*
X0030883Y0013645D02*
X0040141Y0013645D01*
X0038591Y0012859D02*
X0030764Y0012859D01*
X0030585Y0012073D02*
X0037826Y0012073D01*
X0037350Y0011287D02*
X0030319Y0011287D01*
X0029990Y0010501D02*
X0037064Y0010501D01*
X0036973Y0008930D02*
X0029094Y0008930D01*
X0029588Y0009715D02*
X0040898Y0009715D01*
X0037146Y0008144D02*
X0028472Y0008144D01*
X0027715Y0007358D02*
X0037479Y0007358D01*
X0038640Y0016003D02*
X0030887Y0016003D01*
X0030773Y0016789D02*
X0037852Y0016789D01*
X0037369Y0017575D02*
X0030593Y0017575D01*
X0030332Y0018361D02*
X0037075Y0018361D01*
X0036968Y0019932D02*
X0029611Y0019932D01*
X0030007Y0019146D02*
X0040898Y0019146D01*
X0040898Y0019932D02*
X0041686Y0019932D01*
X0041686Y0020718D02*
X0040898Y0020718D01*
X0040898Y0021504D02*
X0041686Y0021504D01*
X0041686Y0022290D02*
X0040898Y0022290D01*
X0040898Y0023076D02*
X0041686Y0023076D01*
X0043694Y0023076D02*
X0048890Y0023076D01*
X0047986Y0022290D02*
X0044597Y0022290D01*
X0045123Y0021504D02*
X0047461Y0021504D01*
X0047134Y0020718D02*
X0045449Y0020718D01*
X0050898Y0020718D02*
X0051686Y0020718D01*
X0051686Y0019932D02*
X0050898Y0019932D01*
X0051686Y0019146D02*
X0072394Y0019146D01*
X0072394Y0018361D02*
X0073182Y0018361D01*
X0073182Y0019146D02*
X0082394Y0019146D01*
X0082394Y0019055D02*
X0082394Y0019842D01*
X0078450Y0019842D01*
X0078548Y0020467D01*
X0078760Y0021117D01*
X0079070Y0021727D01*
X0079473Y0022280D01*
X0079956Y0022764D01*
X0080510Y0023166D01*
X0081119Y0023477D01*
X0081770Y0023688D01*
X0082394Y0023787D01*
X0082394Y0019843D01*
X0083182Y0019843D01*
X0083182Y0023787D01*
X0083806Y0023688D01*
X0084456Y0023477D01*
X0085066Y0023166D01*
X0085619Y0022764D01*
X0086103Y0022280D01*
X0086505Y0021727D01*
X0086816Y0021117D01*
X0087027Y0020467D01*
X0087126Y0019842D01*
X0083182Y0019842D01*
X0083182Y0019055D01*
X0087126Y0019055D01*
X0087027Y0018431D01*
X0086816Y0017780D01*
X0086505Y0017171D01*
X0086103Y0016617D01*
X0085619Y0016134D01*
X0085066Y0015731D01*
X0084456Y0015421D01*
X0083806Y0015209D01*
X0083182Y0015111D01*
X0083182Y0019055D01*
X0082394Y0019055D01*
X0082394Y0018361D02*
X0083182Y0018361D01*
X0083182Y0019146D02*
X0103890Y0019146D01*
X0103890Y0018361D02*
X0104678Y0018361D01*
X0104678Y0019146D02*
X0113890Y0019146D01*
X0113890Y0019055D02*
X0113890Y0019842D01*
X0109946Y0019842D01*
X0110045Y0020467D01*
X0110256Y0021117D01*
X0110567Y0021727D01*
X0110969Y0022280D01*
X0111452Y0022764D01*
X0112006Y0023166D01*
X0112615Y0023477D01*
X0113266Y0023688D01*
X0113890Y0023787D01*
X0113890Y0019843D01*
X0114678Y0019843D01*
X0114678Y0023787D01*
X0115302Y0023688D01*
X0115952Y0023477D01*
X0116562Y0023166D01*
X0117115Y0022764D01*
X0117599Y0022280D01*
X0118001Y0021727D01*
X0118312Y0021117D01*
X0118523Y0020467D01*
X0118622Y0019842D01*
X0114678Y0019842D01*
X0114678Y0019055D01*
X0118622Y0019055D01*
X0118523Y0018431D01*
X0118312Y0017780D01*
X0118001Y0017171D01*
X0117599Y0016617D01*
X0117115Y0016134D01*
X0116562Y0015731D01*
X0115952Y0015421D01*
X0115302Y0015209D01*
X0114678Y0015111D01*
X0114678Y0019055D01*
X0113890Y0019055D01*
X0113890Y0018361D02*
X0114678Y0018361D01*
X0114678Y0019146D02*
X0135386Y0019146D01*
X0135386Y0018361D02*
X0136174Y0018361D01*
X0136174Y0019146D02*
X0145386Y0019146D01*
X0145386Y0019055D02*
X0145386Y0019842D01*
X0141442Y0019842D01*
X0141541Y0020467D01*
X0141752Y0021117D01*
X0142063Y0021727D01*
X0142465Y0022280D01*
X0142948Y0022764D01*
X0143502Y0023166D01*
X0144112Y0023477D01*
X0144762Y0023688D01*
X0145386Y0023787D01*
X0145386Y0019843D01*
X0146174Y0019843D01*
X0146174Y0023787D01*
X0146798Y0023688D01*
X0147448Y0023477D01*
X0148058Y0023166D01*
X0148612Y0022764D01*
X0149095Y0022280D01*
X0149497Y0021727D01*
X0149808Y0021117D01*
X0150019Y0020467D01*
X0150118Y0019842D01*
X0146174Y0019842D01*
X0146174Y0019055D01*
X0150118Y0019055D01*
X0150019Y0018431D01*
X0149808Y0017780D01*
X0149497Y0017171D01*
X0149095Y0016617D01*
X0148612Y0016134D01*
X0148058Y0015731D01*
X0147448Y0015421D01*
X0146798Y0015209D01*
X0146174Y0015111D01*
X0146174Y0019055D01*
X0145386Y0019055D01*
X0145386Y0018361D02*
X0146174Y0018361D01*
X0146174Y0019146D02*
X0166882Y0019146D01*
X0166882Y0018361D02*
X0167670Y0018361D01*
X0167670Y0019146D02*
X0176882Y0019146D01*
X0176882Y0019055D02*
X0176882Y0019842D01*
X0172938Y0019842D01*
X0173037Y0020467D01*
X0173248Y0021117D01*
X0173559Y0021727D01*
X0173961Y0022280D01*
X0174445Y0022764D01*
X0174998Y0023166D01*
X0175608Y0023477D01*
X0176258Y0023688D01*
X0176882Y0023787D01*
X0176882Y0019843D01*
X0177670Y0019843D01*
X0177670Y0023787D01*
X0178294Y0023688D01*
X0178945Y0023477D01*
X0179554Y0023166D01*
X0180108Y0022764D01*
X0180591Y0022280D01*
X0180993Y0021727D01*
X0181304Y0021117D01*
X0181516Y0020467D01*
X0181614Y0019842D01*
X0177670Y0019842D01*
X0177670Y0019055D01*
X0181614Y0019055D01*
X0181516Y0018431D01*
X0181304Y0017780D01*
X0180993Y0017171D01*
X0180591Y0016617D01*
X0180108Y0016134D01*
X0179554Y0015731D01*
X0178945Y0015421D01*
X0178294Y0015209D01*
X0177670Y0015111D01*
X0177670Y0019055D01*
X0176882Y0019055D01*
X0176882Y0018361D02*
X0177670Y0018361D01*
X0177670Y0019146D02*
X0188560Y0019146D01*
X0188380Y0018772D02*
X0188000Y0017685D01*
X0187744Y0016562D01*
X0187615Y0015418D01*
X0187615Y0015236D01*
X0197473Y0015236D01*
X0197473Y0025094D01*
X0197291Y0025094D01*
X0196147Y0024966D01*
X0195024Y0024709D01*
X0193937Y0024329D01*
X0192900Y0023829D01*
X0191925Y0023217D01*
X0191024Y0022499D01*
X0190210Y0021685D01*
X0189492Y0020784D01*
X0188880Y0019809D01*
X0188380Y0018772D01*
X0188236Y0018361D02*
X0181493Y0018361D01*
X0181199Y0017575D02*
X0187975Y0017575D01*
X0187795Y0016789D02*
X0180716Y0016789D01*
X0179928Y0016003D02*
X0187681Y0016003D01*
X0187615Y0014431D02*
X0176213Y0014431D01*
X0176213Y0015217D02*
X0176235Y0015217D01*
X0176882Y0015217D02*
X0177670Y0015217D01*
X0178317Y0015217D02*
X0197473Y0015217D01*
X0197473Y0016003D02*
X0198260Y0016003D01*
X0198260Y0016789D02*
X0197473Y0016789D01*
X0197473Y0017575D02*
X0198260Y0017575D01*
X0198260Y0018361D02*
X0197473Y0018361D01*
X0197473Y0019146D02*
X0198260Y0019146D01*
X0198260Y0019932D02*
X0197473Y0019932D01*
X0197473Y0020718D02*
X0198260Y0020718D01*
X0198260Y0021504D02*
X0197473Y0021504D01*
X0197473Y0022290D02*
X0198260Y0022290D01*
X0198260Y0023076D02*
X0197473Y0023076D01*
X0197473Y0023862D02*
X0198260Y0023862D01*
X0198260Y0024648D02*
X0197473Y0024648D01*
X0194848Y0024648D02*
X0023720Y0024648D01*
X0025601Y0023862D02*
X0192967Y0023862D01*
X0191748Y0023076D02*
X0179678Y0023076D01*
X0180582Y0022290D02*
X0190816Y0022290D01*
X0190066Y0021504D02*
X0181107Y0021504D01*
X0181434Y0020718D02*
X0189451Y0020718D01*
X0188957Y0019932D02*
X0181600Y0019932D01*
X0177670Y0019932D02*
X0176882Y0019932D01*
X0176882Y0020718D02*
X0177670Y0020718D01*
X0177670Y0021504D02*
X0176882Y0021504D01*
X0176882Y0022290D02*
X0177670Y0022290D01*
X0177670Y0023076D02*
X0176882Y0023076D01*
X0174874Y0023076D02*
X0169678Y0023076D01*
X0170582Y0022290D02*
X0173971Y0022290D01*
X0173445Y0021504D02*
X0171107Y0021504D01*
X0171434Y0020718D02*
X0173118Y0020718D01*
X0172952Y0019932D02*
X0171600Y0019932D01*
X0167670Y0019932D02*
X0166882Y0019932D01*
X0166882Y0020718D02*
X0167670Y0020718D01*
X0167670Y0021504D02*
X0166882Y0021504D01*
X0166882Y0022290D02*
X0167670Y0022290D01*
X0167670Y0023076D02*
X0166882Y0023076D01*
X0164874Y0023076D02*
X0148182Y0023076D01*
X0149086Y0022290D02*
X0163971Y0022290D01*
X0163445Y0021504D02*
X0149611Y0021504D01*
X0149938Y0020718D02*
X0163118Y0020718D01*
X0162952Y0019932D02*
X0150104Y0019932D01*
X0149997Y0018361D02*
X0163060Y0018361D01*
X0163353Y0017575D02*
X0149703Y0017575D01*
X0149220Y0016789D02*
X0163836Y0016789D01*
X0164624Y0016003D02*
X0148432Y0016003D01*
X0146821Y0015217D02*
X0166235Y0015217D01*
X0166882Y0015217D02*
X0167670Y0015217D01*
X0168317Y0015217D02*
X0168339Y0015217D01*
X0168339Y0014431D02*
X0144717Y0014431D01*
X0144717Y0015217D02*
X0144739Y0015217D01*
X0145386Y0015217D02*
X0146174Y0015217D01*
X0146174Y0016003D02*
X0145386Y0016003D01*
X0145386Y0016789D02*
X0146174Y0016789D01*
X0146174Y0017575D02*
X0145386Y0017575D01*
X0145386Y0019932D02*
X0146174Y0019932D01*
X0146174Y0020718D02*
X0145386Y0020718D01*
X0145386Y0021504D02*
X0146174Y0021504D01*
X0146174Y0022290D02*
X0145386Y0022290D01*
X0145386Y0023076D02*
X0146174Y0023076D01*
X0143378Y0023076D02*
X0138182Y0023076D01*
X0139086Y0022290D02*
X0142474Y0022290D01*
X0141949Y0021504D02*
X0139611Y0021504D01*
X0139938Y0020718D02*
X0141622Y0020718D01*
X0141456Y0019932D02*
X0140104Y0019932D01*
X0136174Y0019932D02*
X0135386Y0019932D01*
X0135386Y0020718D02*
X0136174Y0020718D01*
X0136174Y0021504D02*
X0135386Y0021504D01*
X0135386Y0022290D02*
X0136174Y0022290D01*
X0136174Y0023076D02*
X0135386Y0023076D01*
X0133378Y0023076D02*
X0116686Y0023076D01*
X0117589Y0022290D02*
X0132474Y0022290D01*
X0131949Y0021504D02*
X0118115Y0021504D01*
X0118442Y0020718D02*
X0131622Y0020718D01*
X0131456Y0019932D02*
X0118608Y0019932D01*
X0118500Y0018361D02*
X0131563Y0018361D01*
X0131857Y0017575D02*
X0118207Y0017575D01*
X0117724Y0016789D02*
X0132340Y0016789D01*
X0133128Y0016003D02*
X0116936Y0016003D01*
X0115325Y0015217D02*
X0134739Y0015217D01*
X0135386Y0015217D02*
X0136174Y0015217D01*
X0136821Y0015217D02*
X0136843Y0015217D01*
X0136843Y0014431D02*
X0113221Y0014431D01*
X0113221Y0015217D02*
X0113243Y0015217D01*
X0113890Y0015217D02*
X0114678Y0015217D01*
X0114678Y0016003D02*
X0113890Y0016003D01*
X0113890Y0016789D02*
X0114678Y0016789D01*
X0114678Y0017575D02*
X0113890Y0017575D01*
X0113890Y0019932D02*
X0114678Y0019932D01*
X0114678Y0020718D02*
X0113890Y0020718D01*
X0113890Y0021504D02*
X0114678Y0021504D01*
X0114678Y0022290D02*
X0113890Y0022290D01*
X0113890Y0023076D02*
X0114678Y0023076D01*
X0111882Y0023076D02*
X0106686Y0023076D01*
X0107589Y0022290D02*
X0110978Y0022290D01*
X0110453Y0021504D02*
X0108115Y0021504D01*
X0108442Y0020718D02*
X0110126Y0020718D01*
X0109960Y0019932D02*
X0108608Y0019932D01*
X0104678Y0019932D02*
X0103890Y0019932D01*
X0103890Y0020718D02*
X0104678Y0020718D01*
X0104678Y0021504D02*
X0103890Y0021504D01*
X0103890Y0022290D02*
X0104678Y0022290D01*
X0104678Y0023076D02*
X0103890Y0023076D01*
X0101882Y0023076D02*
X0085190Y0023076D01*
X0086093Y0022290D02*
X0100978Y0022290D01*
X0100453Y0021504D02*
X0086619Y0021504D01*
X0086946Y0020718D02*
X0100126Y0020718D01*
X0099960Y0019932D02*
X0087112Y0019932D01*
X0087004Y0018361D02*
X0100067Y0018361D01*
X0100361Y0017575D02*
X0086711Y0017575D01*
X0086228Y0016789D02*
X0100844Y0016789D01*
X0101632Y0016003D02*
X0085439Y0016003D01*
X0083829Y0015217D02*
X0103243Y0015217D01*
X0103890Y0015217D02*
X0104678Y0015217D01*
X0105325Y0015217D02*
X0105347Y0015217D01*
X0105347Y0014431D02*
X0081725Y0014431D01*
X0081725Y0015217D02*
X0081747Y0015217D01*
X0082394Y0015217D02*
X0083182Y0015217D01*
X0083182Y0016003D02*
X0082394Y0016003D01*
X0082394Y0016789D02*
X0083182Y0016789D01*
X0083182Y0017575D02*
X0082394Y0017575D01*
X0082394Y0019932D02*
X0083182Y0019932D01*
X0083182Y0020718D02*
X0082394Y0020718D01*
X0082394Y0021504D02*
X0083182Y0021504D01*
X0083182Y0022290D02*
X0082394Y0022290D01*
X0082394Y0023076D02*
X0083182Y0023076D01*
X0080386Y0023076D02*
X0075190Y0023076D01*
X0076093Y0022290D02*
X0079482Y0022290D01*
X0078957Y0021504D02*
X0076619Y0021504D01*
X0076946Y0020718D02*
X0078630Y0020718D01*
X0078464Y0019932D02*
X0077112Y0019932D01*
X0073182Y0019932D02*
X0072394Y0019932D01*
X0072394Y0020718D02*
X0073182Y0020718D01*
X0073182Y0021504D02*
X0072394Y0021504D01*
X0072394Y0022290D02*
X0073182Y0022290D01*
X0073182Y0023076D02*
X0072394Y0023076D01*
X0070386Y0023076D02*
X0053694Y0023076D01*
X0054597Y0022290D02*
X0069482Y0022290D01*
X0068957Y0021504D02*
X0055123Y0021504D01*
X0055449Y0020718D02*
X0068630Y0020718D01*
X0068464Y0019932D02*
X0055616Y0019932D01*
X0055508Y0018361D02*
X0068571Y0018361D01*
X0068865Y0017575D02*
X0055215Y0017575D01*
X0054732Y0016789D02*
X0069348Y0016789D01*
X0070136Y0016003D02*
X0053943Y0016003D01*
X0052333Y0015217D02*
X0071747Y0015217D01*
X0072394Y0015217D02*
X0073182Y0015217D01*
X0073829Y0015217D02*
X0073851Y0015217D01*
X0073851Y0014431D02*
X0052000Y0014431D01*
X0052443Y0013645D02*
X0071637Y0013645D01*
X0072394Y0013645D02*
X0073182Y0013645D01*
X0073182Y0012859D02*
X0072394Y0012859D01*
X0072394Y0012073D02*
X0073182Y0012073D01*
X0073182Y0011287D02*
X0072394Y0011287D01*
X0072394Y0010501D02*
X0073182Y0010501D01*
X0073182Y0009842D02*
X0077126Y0009842D01*
X0077027Y0010467D01*
X0077013Y0010512D01*
X0078563Y0010512D01*
X0078548Y0010467D01*
X0078450Y0009842D01*
X0082394Y0009842D01*
X0082394Y0009055D01*
X0078450Y0009055D01*
X0078548Y0008431D01*
X0078760Y0007780D01*
X0079070Y0007171D01*
X0079453Y0006644D01*
X0076122Y0006644D01*
X0076505Y0007171D01*
X0076816Y0007780D01*
X0077027Y0008431D01*
X0077126Y0009055D01*
X0073182Y0009055D01*
X0073182Y0009842D01*
X0073182Y0009715D02*
X0082394Y0009715D01*
X0082394Y0010501D02*
X0083182Y0010501D01*
X0083182Y0009715D02*
X0103890Y0009715D01*
X0103890Y0010501D02*
X0104678Y0010501D01*
X0104678Y0009842D02*
X0108622Y0009842D01*
X0108523Y0010467D01*
X0108509Y0010512D01*
X0110059Y0010512D01*
X0110045Y0010467D01*
X0109946Y0009842D01*
X0113890Y0009842D01*
X0113890Y0009055D01*
X0109946Y0009055D01*
X0110045Y0008431D01*
X0110256Y0007780D01*
X0110567Y0007171D01*
X0110949Y0006644D01*
X0107618Y0006644D01*
X0108001Y0007171D01*
X0108312Y0007780D01*
X0108523Y0008431D01*
X0108622Y0009055D01*
X0104678Y0009055D01*
X0104678Y0009842D01*
X0104678Y0009715D02*
X0113890Y0009715D01*
X0113890Y0010501D02*
X0114678Y0010501D01*
X0114678Y0009715D02*
X0135386Y0009715D01*
X0135386Y0010501D02*
X0136174Y0010501D01*
X0136174Y0009842D02*
X0140118Y0009842D01*
X0140019Y0010467D01*
X0140005Y0010512D01*
X0141555Y0010512D01*
X0141541Y0010467D01*
X0141442Y0009842D01*
X0145386Y0009842D01*
X0145386Y0009055D01*
X0141442Y0009055D01*
X0141541Y0008431D01*
X0141752Y0007780D01*
X0142063Y0007171D01*
X0142446Y0006644D01*
X0139114Y0006644D01*
X0139497Y0007171D01*
X0139808Y0007780D01*
X0140019Y0008431D01*
X0140118Y0009055D01*
X0136174Y0009055D01*
X0136174Y0009842D01*
X0136174Y0009715D02*
X0145386Y0009715D01*
X0145386Y0010501D02*
X0146174Y0010501D01*
X0146174Y0009715D02*
X0166882Y0009715D01*
X0166882Y0010501D02*
X0167670Y0010501D01*
X0167670Y0009842D02*
X0171614Y0009842D01*
X0171516Y0010467D01*
X0171501Y0010512D01*
X0173051Y0010512D01*
X0173037Y0010467D01*
X0172938Y0009842D01*
X0176882Y0009842D01*
X0176882Y0009055D01*
X0172938Y0009055D01*
X0173037Y0008431D01*
X0173248Y0007780D01*
X0173559Y0007171D01*
X0173942Y0006644D01*
X0170611Y0006644D01*
X0170993Y0007171D01*
X0171304Y0007780D01*
X0171516Y0008431D01*
X0171614Y0009055D01*
X0167670Y0009055D01*
X0167670Y0009842D01*
X0167670Y0009715D02*
X0176882Y0009715D01*
X0176882Y0010501D02*
X0177670Y0010501D01*
X0177670Y0009715D02*
X0188980Y0009715D01*
X0188578Y0010501D02*
X0181504Y0010501D01*
X0181217Y0011287D02*
X0188249Y0011287D01*
X0187983Y0012073D02*
X0180742Y0012073D01*
X0179977Y0012859D02*
X0187804Y0012859D01*
X0187685Y0013645D02*
X0178427Y0013645D01*
X0177670Y0013645D02*
X0176882Y0013645D01*
X0176882Y0012859D02*
X0177670Y0012859D01*
X0177670Y0012073D02*
X0176882Y0012073D01*
X0176882Y0011287D02*
X0177670Y0011287D01*
X0177670Y0016003D02*
X0176882Y0016003D01*
X0176882Y0016789D02*
X0177670Y0016789D01*
X0177670Y0017575D02*
X0176882Y0017575D01*
X0173048Y0010501D02*
X0171504Y0010501D01*
X0171594Y0008930D02*
X0172958Y0008930D01*
X0173130Y0008144D02*
X0171422Y0008144D01*
X0171089Y0007358D02*
X0173463Y0007358D01*
X0167670Y0011287D02*
X0166882Y0011287D01*
X0166882Y0012073D02*
X0167670Y0012073D01*
X0167670Y0012859D02*
X0166882Y0012859D01*
X0166882Y0013645D02*
X0167670Y0013645D01*
X0166125Y0013645D02*
X0146931Y0013645D01*
X0146174Y0013645D02*
X0145386Y0013645D01*
X0145386Y0012859D02*
X0146174Y0012859D01*
X0146174Y0012073D02*
X0145386Y0012073D01*
X0145386Y0011287D02*
X0146174Y0011287D01*
X0148481Y0012859D02*
X0164575Y0012859D01*
X0163810Y0012073D02*
X0149246Y0012073D01*
X0149721Y0011287D02*
X0163335Y0011287D01*
X0163048Y0010501D02*
X0150008Y0010501D01*
X0150098Y0008930D02*
X0162958Y0008930D01*
X0163130Y0008144D02*
X0149926Y0008144D01*
X0149593Y0007358D02*
X0163463Y0007358D01*
X0166882Y0016003D02*
X0167670Y0016003D01*
X0167670Y0016789D02*
X0166882Y0016789D01*
X0166882Y0017575D02*
X0167670Y0017575D01*
X0181594Y0008930D02*
X0189474Y0008930D01*
X0190096Y0008144D02*
X0181422Y0008144D01*
X0181089Y0007358D02*
X0190853Y0007358D01*
X0200885Y0024648D02*
X0206065Y0024648D01*
X0206065Y0023862D02*
X0202766Y0023862D01*
X0203985Y0023076D02*
X0206065Y0023076D01*
X0206065Y0022290D02*
X0204918Y0022290D01*
X0205667Y0021504D02*
X0206065Y0021504D01*
X0141552Y0010501D02*
X0140008Y0010501D01*
X0140098Y0008930D02*
X0141462Y0008930D01*
X0141634Y0008144D02*
X0139926Y0008144D01*
X0139593Y0007358D02*
X0141967Y0007358D01*
X0136174Y0011287D02*
X0135386Y0011287D01*
X0135386Y0012073D02*
X0136174Y0012073D01*
X0136174Y0012859D02*
X0135386Y0012859D01*
X0135386Y0013645D02*
X0136174Y0013645D01*
X0134629Y0013645D02*
X0115435Y0013645D01*
X0114678Y0013645D02*
X0113890Y0013645D01*
X0113890Y0012859D02*
X0114678Y0012859D01*
X0114678Y0012073D02*
X0113890Y0012073D01*
X0113890Y0011287D02*
X0114678Y0011287D01*
X0116985Y0012859D02*
X0133079Y0012859D01*
X0132314Y0012073D02*
X0117750Y0012073D01*
X0118225Y0011287D02*
X0131839Y0011287D01*
X0131552Y0010501D02*
X0118512Y0010501D01*
X0118602Y0008930D02*
X0131462Y0008930D01*
X0131634Y0008144D02*
X0118430Y0008144D01*
X0118097Y0007358D02*
X0131967Y0007358D01*
X0135386Y0016003D02*
X0136174Y0016003D01*
X0136174Y0016789D02*
X0135386Y0016789D01*
X0135386Y0017575D02*
X0136174Y0017575D01*
X0110056Y0010501D02*
X0108512Y0010501D01*
X0108602Y0008930D02*
X0109966Y0008930D01*
X0110138Y0008144D02*
X0108430Y0008144D01*
X0108097Y0007358D02*
X0110471Y0007358D01*
X0104678Y0011287D02*
X0103890Y0011287D01*
X0103890Y0012073D02*
X0104678Y0012073D01*
X0104678Y0012859D02*
X0103890Y0012859D01*
X0103890Y0013645D02*
X0104678Y0013645D01*
X0103133Y0013645D02*
X0083939Y0013645D01*
X0083182Y0013645D02*
X0082394Y0013645D01*
X0082394Y0012859D02*
X0083182Y0012859D01*
X0083182Y0012073D02*
X0082394Y0012073D01*
X0082394Y0011287D02*
X0083182Y0011287D01*
X0085489Y0012859D02*
X0101583Y0012859D01*
X0100818Y0012073D02*
X0086254Y0012073D01*
X0086729Y0011287D02*
X0100343Y0011287D01*
X0100056Y0010501D02*
X0087016Y0010501D01*
X0087106Y0008930D02*
X0099966Y0008930D01*
X0100138Y0008144D02*
X0086934Y0008144D01*
X0086601Y0007358D02*
X0100471Y0007358D01*
X0103890Y0016003D02*
X0104678Y0016003D01*
X0104678Y0016789D02*
X0103890Y0016789D01*
X0103890Y0017575D02*
X0104678Y0017575D01*
X0078975Y0007358D02*
X0076601Y0007358D01*
X0076934Y0008144D02*
X0078642Y0008144D01*
X0078469Y0008930D02*
X0077106Y0008930D01*
X0077016Y0010501D02*
X0078560Y0010501D01*
X0072394Y0009715D02*
X0051686Y0009715D01*
X0054758Y0012073D02*
X0069322Y0012073D01*
X0068847Y0011287D02*
X0055233Y0011287D01*
X0055520Y0010501D02*
X0068560Y0010501D01*
X0068469Y0008930D02*
X0055610Y0008930D01*
X0055438Y0008144D02*
X0068642Y0008144D01*
X0068975Y0007358D02*
X0055105Y0007358D01*
X0053993Y0012859D02*
X0070087Y0012859D01*
X0072394Y0016003D02*
X0073182Y0016003D01*
X0073182Y0016789D02*
X0072394Y0016789D01*
X0072394Y0017575D02*
X0073182Y0017575D01*
X0051686Y0021504D02*
X0050898Y0021504D01*
X0050898Y0022290D02*
X0051686Y0022290D01*
X0051686Y0023076D02*
X0050898Y0023076D01*
X0038890Y0023076D02*
X0026820Y0023076D01*
X0027752Y0022290D02*
X0037986Y0022290D01*
X0037461Y0021504D02*
X0028502Y0021504D01*
X0029117Y0020718D02*
X0037134Y0020718D01*
X0021095Y0022290D02*
X0020308Y0022290D01*
X0020308Y0023076D02*
X0021095Y0023076D01*
X0021095Y0023862D02*
X0020308Y0023862D01*
X0020308Y0024648D02*
X0021095Y0024648D01*
X0077788Y0073504D02*
X0077788Y0077441D01*
X0056036Y0122101D02*
X0012502Y0122101D01*
X0012502Y0122887D02*
X0055251Y0122887D01*
X0055141Y0123673D02*
X0012502Y0123673D01*
X0012502Y0124459D02*
X0055141Y0124459D01*
X0055587Y0125245D02*
X0012502Y0125245D01*
X0012502Y0126031D02*
X0056373Y0126031D01*
X0058258Y0126031D02*
X0059533Y0126031D01*
X0059087Y0126816D02*
X0012502Y0126816D01*
X0012502Y0127602D02*
X0059087Y0127602D01*
X0059087Y0128388D02*
X0012502Y0128388D01*
X0012502Y0129174D02*
X0058412Y0129174D01*
X0058290Y0129960D02*
X0012502Y0129960D01*
X0012502Y0130746D02*
X0058290Y0130746D01*
X0058416Y0131532D02*
X0012502Y0131532D01*
X0012502Y0132318D02*
X0057631Y0132318D01*
X0060465Y0130197D02*
X0060465Y0127047D01*
X0062040Y0125472D01*
X0060319Y0125245D02*
X0059044Y0125245D01*
X0045057Y0145678D02*
X0012502Y0145678D01*
X0012502Y0146464D02*
X0044272Y0146464D01*
X0044117Y0147250D02*
X0012502Y0147250D01*
X0012502Y0148036D02*
X0044117Y0148036D01*
X0044519Y0148822D02*
X0012502Y0148822D01*
X0012502Y0149608D02*
X0045304Y0149608D01*
X0047279Y0149608D02*
X0048006Y0149608D01*
X0048792Y0150394D02*
X0012502Y0150394D01*
X0012502Y0151180D02*
X0048851Y0151180D01*
X0048851Y0151966D02*
X0012502Y0151966D01*
X0012502Y0152752D02*
X0048851Y0152752D01*
X0048851Y0153538D02*
X0012502Y0153538D01*
X0012502Y0154323D02*
X0048851Y0154323D01*
X0048851Y0155109D02*
X0012502Y0155109D01*
X0012502Y0155895D02*
X0048851Y0155895D01*
X0048851Y0156681D02*
X0012502Y0156681D01*
X0012502Y0157467D02*
X0048851Y0157467D01*
X0048851Y0158253D02*
X0012502Y0158253D01*
X0012502Y0159039D02*
X0048851Y0159039D01*
X0048851Y0159825D02*
X0012502Y0159825D01*
X0012502Y0160611D02*
X0048851Y0160611D01*
X0048851Y0161397D02*
X0012502Y0161397D01*
X0012502Y0162183D02*
X0048851Y0162183D01*
X0048851Y0162968D02*
X0012502Y0162968D01*
X0012502Y0163754D02*
X0048851Y0163754D01*
X0048851Y0164540D02*
X0012502Y0164540D01*
X0012502Y0165326D02*
X0048244Y0165326D01*
X0047458Y0166112D02*
X0012502Y0166112D01*
X0012502Y0166898D02*
X0047267Y0166898D01*
X0047267Y0167684D02*
X0012502Y0167684D01*
X0012502Y0168470D02*
X0047631Y0168470D01*
X0049441Y0167205D02*
X0050229Y0166417D01*
X0050229Y0149882D01*
X0047867Y0147520D01*
X0046292Y0147520D01*
X0073737Y0162968D02*
X0083414Y0162968D01*
X0082628Y0162183D02*
X0074523Y0162183D01*
X0075308Y0161397D02*
X0081842Y0161397D01*
X0081056Y0160611D02*
X0076094Y0160611D01*
X0076880Y0159825D02*
X0080270Y0159825D01*
X0079484Y0159039D02*
X0077591Y0159039D01*
X0077591Y0158253D02*
X0078698Y0158253D01*
X0077913Y0157467D02*
X0077591Y0157467D01*
X0073654Y0163754D02*
X0084200Y0163754D01*
X0084986Y0164540D02*
X0073654Y0164540D01*
X0082413Y0142535D02*
X0082612Y0142535D01*
X0083398Y0141749D02*
X0081627Y0141749D01*
X0099638Y0167684D02*
X0100023Y0167684D01*
X0100387Y0168470D02*
X0099638Y0168470D01*
X0099898Y0169256D02*
X0101173Y0169256D01*
X0103222Y0169256D02*
X0103370Y0169256D01*
D20*
X0102197Y0167205D02*
X0092749Y0157756D01*
X0088024Y0157756D01*
X0083300Y0153031D01*
X0083300Y0145945D01*
X0082512Y0145157D01*
X0084875Y0142795D01*
X0091961Y0142795D01*
X0082512Y0145157D02*
X0069914Y0132559D01*
X0069914Y0127047D01*
X0065977Y0123110D01*
X0058103Y0123110D01*
X0057315Y0123898D01*
M02*
