%
M48
M72
T01C0.0118
T02C0.0394
T03C0.0400
T04C0.0630
T05C0.0866
%
T01
X1480Y2783
X1952Y3807
X2424Y4280
X2424Y5146
X1952Y5697
X2503Y6248
X2739Y7508
X3448Y7508
X3606Y6248
X3684Y5461
X3684Y4752
X3684Y4201
X3684Y3098
X3842Y2469
X3212Y2311
X2976Y3098
X2424Y3256
X3291Y894
X5259Y2469
X5259Y3020
X4550Y4201
X5495Y4358
X5023Y6327
X5810Y7508
X6991Y7744
X7464Y7902
X7779Y7350
X8409Y6957
X8960Y6091
X10062Y4516
X9511Y4043
X9196Y4043
X9354Y2705
X8251Y2705
X7385Y2705
X6991Y2705
X6991Y4437
X6991Y6091
X8409Y8846
X9432Y8689
X10298Y7508
X10771Y7272
X11322Y6957
X11873Y6091
X12976Y4516
X12424Y4043
X12109Y4043
X12582Y2705
X13684Y2705
X14472Y2705
X15023Y4043
X15338Y4043
X15889Y4516
X15653Y2705
X16834Y2705
X17621Y2705
X17936Y4043
X18251Y4043
X18802Y4516
X19590Y4437
X20377Y5224
X19590Y6091
X19590Y7744
X20377Y8059
X19590Y9240
X19590Y10815
X20377Y11366
X19590Y12469
X18802Y11209
X17228Y12469
X16519Y12469
X16361Y13256
X15810Y12469
X15889Y11209
X14393Y12469
X13684Y12469
X12976Y12469
X12976Y11209
X14235Y8846
X13212Y7508
X13684Y7272
X14235Y6957
X14787Y6091
X16125Y7508
X16598Y7272
X17149Y6957
X17700Y6091
X18172Y8689
X17149Y8846
X15259Y8689
X12346Y8689
X11322Y8846
X10062Y11209
X10062Y12469
X9432Y12469
X8802Y12469
X8094Y12469
X8724Y13886
X9196Y14280
X8724Y14594
X8881Y15382
X9511Y15461
X10377Y15461
X11165Y15461
X12031Y15461
X12661Y14122
X13212Y15461
X13212Y16642
X12818Y18059
X13212Y18610
X13448Y19161
X13684Y19398
X13684Y18531
X14787Y18689
X14865Y19004
X15023Y19319
X15732Y19713
X15495Y20579
X14865Y20972
X14314Y21760
X14787Y21917
X15102Y22705
X15417Y22862
X15495Y23807
X15889Y24043
X16361Y23020
X16913Y23020
X16834Y24043
X16991Y24594
X16991Y25067
X16991Y25539
X16991Y26091
X16991Y26563
X16913Y27587
X16361Y27587
X16283Y28138
X16047Y29870
X16047Y30579
X15653Y31602
X14944Y30264
X14235Y30500
X14235Y31287
X12818Y31602
X11480Y31287
X11480Y30500
X10220Y30421
X10220Y31287
X9275Y31602
X9354Y29949
X9432Y29319
X8566Y29949
X8094Y29949
X7858Y29083
X7306Y29083
X7621Y28138
X8172Y27508
X8251Y26642
X8094Y26248
X8015Y25303
X7858Y24358
X8881Y23728
X9039Y22783
X9826Y23256
X10535Y23807
X11322Y23807
X12109Y22941
X12897Y24516
X13763Y23807
X14865Y24516
X15653Y26484
X14629Y27272
X13842Y27902
X12897Y27429
X12897Y26406
X11401Y26406
X11243Y25776
X10456Y25461
X9747Y26406
X9354Y26091
X9747Y27429
X11322Y27429
X9747Y24358
X9117Y21445
X9275Y20343
X9669Y19791
X9196Y19319
X8724Y19240
X9039Y18610
X8645Y18531
X8724Y17665
X8724Y16720
X9511Y18453
X10062Y17665
X10298Y17429
X10456Y17114
X10220Y16720
X11086Y16642
X12031Y18925
X12267Y19791
X12582Y19240
X13054Y20972
X13527Y20972
X13763Y22232
X13999Y22469
X16519Y21996
X16519Y21445
X17385Y21839
X18330Y23020
X18881Y23020
X18251Y24043
X18015Y23650
X18094Y24594
X18251Y25067
X18094Y25539
X18251Y26091
X18094Y26563
X18330Y27587
X18881Y27587
X20377Y27350
X20377Y24988
X20377Y22469
X20377Y19870
X20377Y17193
X18566Y16327
X16834Y17350
X16834Y18768
X17621Y19870
X15180Y16406
X15653Y15933
X15653Y15303
X15574Y14594
X14708Y14358
X14393Y13650
X16834Y13728
X14944Y17665
X14787Y17980
X14865Y18295
X11637Y13807
X10771Y13571
X10062Y14201
X10771Y12469
X11480Y12469
X7621Y16406
X7464Y16878
X7464Y17902
X6991Y19161
X7385Y20106
X7621Y21917
X7228Y22154
X6755Y22626
X6755Y23256
X6755Y23650
X6676Y24122
X6283Y24594
X5417Y24437
X3842Y24358
X3133Y22311
X3763Y21366
X3212Y20579
X3763Y18610
X3763Y17980
X3606Y16957
X2739Y16012
X1480Y16957
X1480Y19319
X1480Y21760
X1480Y24437
X1480Y27114
X1480Y29791
X3212Y31602
X4472Y29949
X4314Y28374
X5102Y26957
X5574Y26957
X6440Y26957
X7070Y27272
X6204Y31602
X4944Y21366
X5810Y20028
X5338Y19870
X5732Y19476
X5338Y17193
X4944Y16720
X5338Y16563
X5495Y15933
X5574Y14673
X6519Y14516
X6283Y13256
X5968Y13335
X6047Y13020
X6361Y12862
X5732Y12390
X5495Y12705
X4787Y12862
X4787Y11602
X4393Y9949
X2818Y11602
X2818Y12311
X3606Y12783
X2661Y13571
X3842Y14122
X4629Y14752
X4550Y16484
X7228Y15776
X6991Y12075
X6991Y11051
X6125Y11366
X5968Y10028
X6991Y9555
X10535Y2705
X11322Y2705
X12109Y894
X12897Y894
X15259Y894
X16047Y894
X18487Y894
X19590Y2705
X20377Y2626
X20377Y14358
X10377Y21366
X18566Y31602
X20377Y29791
X1480Y14122
X1480Y11524
X1480Y8846
X1480Y5854
X5810Y894
X6598Y894
X8960Y894
X9747Y894
T02
X4129Y945
X4629Y1445
X4129Y1945
X5129Y1945
X5129Y945
X7279Y945
X7779Y1445
X8279Y1945
X8279Y945
X7279Y1945
X10428Y1945
X10928Y1445
X10428Y945
X11428Y945
X11428Y1945
X13578Y1945
X14078Y1445
X14578Y1945
X14578Y945
X13578Y945
X16728Y945
X17228Y1445
X16728Y1945
X17728Y1945
X17728Y945
T03
X18487Y21370
X18487Y20370
X18487Y19370
X18487Y18370
T04
X17621Y23183
X17621Y23183
X17621Y27423
X17621Y27423
T05
X2070Y1484
X19787Y31012
X2070Y31012
X19787Y1484
M30
