G75*
%MOIN*%
%OFA0B0*%
%FSLAX25Y25*%
%IPPOS*%
%LPD*%
%AMOC8*
5,1,8,0,0,1.08239X$1,22.5*
%
%ADD10C,0.00600*%
%ADD11C,0.00500*%
%ADD12C,0.00000*%
%ADD13C,0.00787*%
D10*
X0030403Y0039158D02*
X0029269Y0040293D01*
X0029836Y0041614D02*
X0029269Y0042181D01*
X0029269Y0043882D01*
X0029269Y0045297D02*
X0030403Y0046431D01*
X0031538Y0046431D01*
X0032672Y0045297D01*
X0031538Y0043882D02*
X0031538Y0042181D01*
X0030970Y0041614D01*
X0029836Y0041614D01*
X0030403Y0039158D02*
X0031538Y0039158D01*
X0032672Y0040293D01*
X0040293Y0040860D02*
X0040860Y0041427D01*
X0041994Y0041427D01*
X0041994Y0040293D01*
X0043128Y0041427D02*
X0043696Y0040860D01*
X0043696Y0039725D01*
X0043128Y0039158D01*
X0040860Y0039158D01*
X0040293Y0039725D01*
X0040293Y0040860D01*
X0040293Y0042841D02*
X0043696Y0042841D01*
X0043696Y0044543D01*
X0043128Y0045110D01*
X0041994Y0045110D01*
X0041427Y0044543D01*
X0041427Y0042841D01*
X0040860Y0046525D02*
X0040293Y0047092D01*
X0040293Y0048226D01*
X0040860Y0048793D01*
X0041427Y0048793D01*
X0041994Y0048226D01*
X0041994Y0047092D01*
X0042561Y0046525D01*
X0043128Y0046525D01*
X0043696Y0047092D01*
X0043696Y0048226D01*
X0043128Y0048793D01*
X0046592Y0048933D02*
X0048860Y0048933D01*
X0048860Y0048366D01*
X0049995Y0048933D02*
X0050562Y0048933D01*
X0048860Y0046952D02*
X0047159Y0046952D01*
X0046592Y0046384D01*
X0047159Y0045817D01*
X0046592Y0045250D01*
X0047159Y0044683D01*
X0048860Y0044683D01*
X0048860Y0042795D02*
X0046592Y0042795D01*
X0046592Y0042228D02*
X0046592Y0043362D01*
X0048860Y0042795D02*
X0048860Y0042228D01*
X0049995Y0042795D02*
X0050562Y0042795D01*
X0048860Y0040860D02*
X0047726Y0039158D01*
X0046592Y0040860D01*
X0046592Y0039158D02*
X0049995Y0039158D01*
X0046592Y0048366D02*
X0046592Y0049500D01*
X0048293Y0050822D02*
X0048293Y0053090D01*
X0048860Y0054505D02*
X0048860Y0056206D01*
X0048293Y0056773D01*
X0047159Y0056773D01*
X0046592Y0056206D01*
X0046592Y0054505D01*
X0049995Y0054505D01*
X0047159Y0058188D02*
X0047726Y0058755D01*
X0047726Y0060456D01*
X0048293Y0060456D02*
X0046592Y0060456D01*
X0046592Y0058755D01*
X0047159Y0058188D01*
X0048860Y0058755D02*
X0048860Y0059889D01*
X0048293Y0060456D01*
X0048293Y0061871D02*
X0048860Y0062438D01*
X0048860Y0064140D01*
X0047726Y0063572D02*
X0047726Y0062438D01*
X0048293Y0061871D01*
X0046592Y0061871D02*
X0046592Y0063572D01*
X0047159Y0064140D01*
X0047726Y0063572D01*
X0046592Y0065554D02*
X0046592Y0066688D01*
X0046592Y0066121D02*
X0048860Y0066121D01*
X0048860Y0065554D01*
X0049995Y0066121D02*
X0050562Y0066121D01*
X0048293Y0068010D02*
X0048860Y0068577D01*
X0048860Y0070278D01*
X0048293Y0071693D02*
X0048293Y0073961D01*
X0048860Y0075376D02*
X0049995Y0076510D01*
X0046592Y0076510D01*
X0046592Y0075376D02*
X0046592Y0077644D01*
X0046592Y0079059D02*
X0046592Y0079626D01*
X0047159Y0079626D01*
X0047159Y0079059D01*
X0046592Y0079059D01*
X0047159Y0080901D02*
X0046592Y0081468D01*
X0046592Y0082602D01*
X0047159Y0083169D01*
X0049428Y0083169D01*
X0047159Y0080901D01*
X0049428Y0080901D01*
X0049995Y0081468D01*
X0049995Y0082602D01*
X0049428Y0083169D01*
X0047159Y0084584D02*
X0047159Y0085151D01*
X0046592Y0085151D01*
X0046592Y0084584D01*
X0047159Y0084584D01*
X0047159Y0086425D02*
X0046592Y0086992D01*
X0046592Y0088127D01*
X0047159Y0088694D01*
X0049428Y0088694D01*
X0047159Y0086425D01*
X0049428Y0086425D01*
X0049995Y0086992D01*
X0049995Y0088127D01*
X0049428Y0088694D01*
X0048293Y0090108D02*
X0048293Y0092377D01*
X0047159Y0091243D02*
X0049428Y0091243D01*
X0049428Y0093792D02*
X0049995Y0094359D01*
X0049995Y0095493D01*
X0049428Y0096060D01*
X0048860Y0096060D01*
X0046592Y0093792D01*
X0046592Y0096060D01*
X0047159Y0097475D02*
X0046592Y0098042D01*
X0046592Y0099176D01*
X0047159Y0099743D01*
X0049428Y0099743D01*
X0047159Y0097475D01*
X0049428Y0097475D01*
X0049995Y0098042D01*
X0049995Y0099176D01*
X0049428Y0099743D01*
X0048860Y0101158D02*
X0049995Y0102292D01*
X0046592Y0102292D01*
X0046592Y0101158D02*
X0046592Y0103426D01*
X0046592Y0104841D02*
X0047159Y0104841D01*
X0049428Y0107110D01*
X0049995Y0107110D01*
X0049995Y0104841D01*
X0049428Y0108524D02*
X0047159Y0108524D01*
X0049428Y0110793D01*
X0047159Y0110793D01*
X0046592Y0110226D01*
X0046592Y0109091D01*
X0047159Y0108524D01*
X0049428Y0108524D02*
X0049995Y0109091D01*
X0049995Y0110226D01*
X0049428Y0110793D01*
X0049995Y0112207D02*
X0049995Y0114476D01*
X0049428Y0114476D01*
X0047159Y0112207D01*
X0046592Y0112207D01*
X0046592Y0115890D02*
X0048860Y0118159D01*
X0049428Y0118159D01*
X0049995Y0117592D01*
X0049995Y0116458D01*
X0049428Y0115890D01*
X0049428Y0119574D02*
X0049995Y0120141D01*
X0049995Y0121275D01*
X0049428Y0121842D01*
X0048860Y0121842D01*
X0048293Y0121275D01*
X0047726Y0121842D01*
X0047159Y0121842D01*
X0046592Y0121275D01*
X0046592Y0120141D01*
X0047159Y0119574D01*
X0046592Y0118159D02*
X0046592Y0115890D01*
X0043696Y0117118D02*
X0043696Y0117685D01*
X0040293Y0117685D01*
X0040293Y0117118D02*
X0040293Y0118252D01*
X0040293Y0115704D02*
X0040293Y0114002D01*
X0040860Y0113435D01*
X0041427Y0114002D01*
X0041427Y0115704D01*
X0041994Y0115704D02*
X0040293Y0115704D01*
X0041994Y0115704D02*
X0042561Y0115136D01*
X0042561Y0114002D01*
X0041994Y0112020D02*
X0042561Y0111453D01*
X0042561Y0109752D01*
X0040293Y0109752D01*
X0040293Y0108337D02*
X0040293Y0106636D01*
X0040860Y0106069D01*
X0041994Y0106069D01*
X0042561Y0106636D01*
X0042561Y0108337D01*
X0039725Y0108337D01*
X0039158Y0107770D01*
X0039158Y0107203D01*
X0040293Y0104748D02*
X0040293Y0103613D01*
X0040293Y0104180D02*
X0042561Y0104180D01*
X0042561Y0103613D01*
X0043696Y0104180D02*
X0044263Y0104180D01*
X0042561Y0102199D02*
X0042561Y0100497D01*
X0041994Y0099930D01*
X0041427Y0100497D01*
X0041427Y0101632D01*
X0040860Y0102199D01*
X0040293Y0101632D01*
X0040293Y0099930D01*
X0040293Y0094832D02*
X0040293Y0093131D01*
X0040860Y0092564D01*
X0041994Y0092564D01*
X0042561Y0093131D01*
X0042561Y0094832D01*
X0043696Y0094832D02*
X0040293Y0094832D01*
X0041427Y0091149D02*
X0041427Y0088881D01*
X0041994Y0088881D02*
X0042561Y0089448D01*
X0042561Y0090582D01*
X0041994Y0091149D01*
X0041427Y0091149D01*
X0040293Y0090582D02*
X0040293Y0089448D01*
X0040860Y0088881D01*
X0041994Y0088881D01*
X0042561Y0087466D02*
X0040293Y0085198D01*
X0040293Y0087466D01*
X0040293Y0083876D02*
X0040293Y0082742D01*
X0040293Y0083309D02*
X0042561Y0083309D01*
X0042561Y0082742D01*
X0043696Y0083309D02*
X0044263Y0083309D01*
X0042561Y0085198D02*
X0042561Y0087466D01*
X0041994Y0081328D02*
X0040293Y0081328D01*
X0041994Y0081328D02*
X0042561Y0080760D01*
X0042561Y0079059D01*
X0040293Y0079059D01*
X0040860Y0077644D02*
X0040293Y0077077D01*
X0040293Y0075943D01*
X0040860Y0075376D01*
X0041994Y0075376D01*
X0042561Y0075943D01*
X0042561Y0077077D01*
X0041994Y0077644D01*
X0040860Y0077644D01*
X0042561Y0074008D02*
X0042561Y0073441D01*
X0041427Y0072307D01*
X0040293Y0072307D02*
X0042561Y0072307D01*
X0041994Y0070892D02*
X0040293Y0070892D01*
X0041994Y0070892D02*
X0042561Y0070325D01*
X0042561Y0069191D01*
X0041994Y0068623D01*
X0042561Y0067209D02*
X0042561Y0065507D01*
X0041994Y0064940D01*
X0040860Y0064940D01*
X0040293Y0065507D01*
X0040293Y0067209D01*
X0040293Y0068623D02*
X0043696Y0068623D01*
X0046592Y0068577D02*
X0046592Y0070278D01*
X0046592Y0068577D02*
X0047159Y0068010D01*
X0048293Y0068010D01*
X0042561Y0062959D02*
X0042561Y0061257D01*
X0040293Y0061257D01*
X0040293Y0059843D02*
X0040293Y0058141D01*
X0040860Y0057574D01*
X0042561Y0057574D01*
X0042561Y0056159D02*
X0042561Y0054458D01*
X0041994Y0053891D01*
X0041427Y0054458D01*
X0041427Y0055592D01*
X0040860Y0056159D01*
X0040293Y0055592D01*
X0040293Y0053891D01*
X0039158Y0058708D02*
X0039158Y0059275D01*
X0039725Y0059843D01*
X0042561Y0059843D01*
X0042561Y0062959D02*
X0041994Y0063526D01*
X0040293Y0063526D01*
X0032672Y0062485D02*
X0032672Y0064753D01*
X0032105Y0064753D01*
X0029836Y0062485D01*
X0029269Y0062485D01*
X0029269Y0061070D02*
X0029269Y0058802D01*
X0029269Y0059936D02*
X0032672Y0059936D01*
X0031538Y0058802D01*
X0032105Y0057387D02*
X0029836Y0057387D01*
X0029269Y0056820D01*
X0029269Y0055686D01*
X0029836Y0055119D01*
X0032105Y0057387D01*
X0032672Y0056820D01*
X0032672Y0055686D01*
X0032105Y0055119D01*
X0029836Y0055119D01*
X0029269Y0053704D02*
X0029269Y0051435D01*
X0031538Y0053704D01*
X0032105Y0053704D01*
X0032672Y0053137D01*
X0032672Y0052003D01*
X0032105Y0051435D01*
X0030970Y0069851D02*
X0029836Y0069851D01*
X0029269Y0070418D01*
X0029269Y0072120D01*
X0028135Y0072120D02*
X0031538Y0072120D01*
X0031538Y0070418D01*
X0030970Y0069851D01*
X0031538Y0073534D02*
X0029836Y0073534D01*
X0029269Y0074101D01*
X0029269Y0075803D01*
X0028702Y0075803D02*
X0028135Y0075236D01*
X0028135Y0074669D01*
X0028702Y0075803D02*
X0031538Y0075803D01*
X0031538Y0077217D02*
X0029269Y0079486D01*
X0029836Y0080901D02*
X0029269Y0081468D01*
X0029269Y0082602D01*
X0029836Y0083169D01*
X0030403Y0082602D02*
X0031538Y0082602D01*
X0031538Y0081468D01*
X0030403Y0081468D01*
X0030403Y0082602D01*
X0030970Y0083169D01*
X0032105Y0083169D01*
X0032672Y0082602D01*
X0032672Y0081468D01*
X0032105Y0080901D01*
X0029836Y0080901D01*
X0031538Y0079486D02*
X0029269Y0077217D01*
X0029269Y0084584D02*
X0032672Y0084584D01*
X0031538Y0086285D02*
X0030403Y0084584D01*
X0029269Y0086285D01*
X0029269Y0087653D02*
X0031538Y0087653D01*
X0031538Y0088787D02*
X0030403Y0087653D01*
X0031538Y0088787D02*
X0031538Y0089354D01*
X0031538Y0090722D02*
X0031538Y0091857D01*
X0032105Y0091289D02*
X0029836Y0091289D01*
X0029269Y0091857D01*
X0029269Y0093178D02*
X0032672Y0093178D01*
X0031538Y0094879D02*
X0030403Y0093178D01*
X0029269Y0094879D01*
X0029836Y0096247D02*
X0029269Y0096814D01*
X0029269Y0097948D01*
X0029836Y0098516D01*
X0030970Y0098516D01*
X0031538Y0097948D01*
X0031538Y0096814D01*
X0030970Y0096247D01*
X0029836Y0096247D01*
X0029836Y0099930D02*
X0029269Y0099930D01*
X0029269Y0100497D01*
X0029836Y0100497D01*
X0029836Y0099930D01*
X0029836Y0101772D02*
X0029269Y0102339D01*
X0029269Y0103473D01*
X0029836Y0104040D01*
X0030970Y0104040D01*
X0031538Y0103473D01*
X0031538Y0102339D01*
X0030970Y0101772D01*
X0029836Y0101772D01*
X0029269Y0105455D02*
X0031538Y0105455D01*
X0031538Y0106589D02*
X0031538Y0107156D01*
X0031538Y0106589D02*
X0030403Y0105455D01*
X0029836Y0108524D02*
X0029269Y0109091D01*
X0029269Y0110793D01*
X0028702Y0110793D02*
X0031538Y0110793D01*
X0031538Y0109091D01*
X0030970Y0108524D01*
X0029836Y0108524D01*
X0028135Y0109658D02*
X0028135Y0110226D01*
X0028702Y0110793D01*
X0028135Y0112207D02*
X0029269Y0113342D01*
X0029269Y0112774D01*
X0029836Y0112774D01*
X0029836Y0113342D01*
X0029269Y0113342D01*
X0029836Y0118346D02*
X0029269Y0118913D01*
X0029269Y0120047D01*
X0029836Y0120614D01*
X0029836Y0122029D02*
X0029269Y0122596D01*
X0029269Y0123730D01*
X0029836Y0124298D01*
X0030970Y0125712D02*
X0030970Y0127981D01*
X0030970Y0129395D02*
X0030970Y0131097D01*
X0030403Y0131664D01*
X0029836Y0131664D01*
X0029269Y0131097D01*
X0029269Y0129395D01*
X0032672Y0129395D01*
X0032672Y0131097D01*
X0032105Y0131664D01*
X0031538Y0131664D01*
X0030970Y0131097D01*
X0032105Y0133078D02*
X0030970Y0134213D01*
X0029269Y0134213D01*
X0030970Y0134213D02*
X0032105Y0135347D01*
X0032672Y0135347D01*
X0030970Y0136762D02*
X0030970Y0139030D01*
X0031538Y0140445D02*
X0030970Y0141012D01*
X0030970Y0142146D01*
X0030403Y0142713D01*
X0029836Y0142713D01*
X0029269Y0142146D01*
X0029269Y0141012D01*
X0029836Y0140445D01*
X0031538Y0140445D02*
X0032105Y0140445D01*
X0032672Y0141012D01*
X0032672Y0142146D01*
X0032105Y0142713D01*
X0031538Y0144128D02*
X0032672Y0145262D01*
X0031538Y0146396D01*
X0029269Y0146396D01*
X0030970Y0146396D02*
X0030970Y0144128D01*
X0031538Y0144128D02*
X0029269Y0144128D01*
X0032105Y0133078D02*
X0032672Y0133078D01*
X0032105Y0124298D02*
X0032672Y0123730D01*
X0032672Y0122596D01*
X0032105Y0122029D01*
X0029836Y0122029D01*
X0032105Y0120614D02*
X0032672Y0120047D01*
X0032672Y0118913D01*
X0032105Y0118346D01*
X0029836Y0118346D01*
X0040293Y0123824D02*
X0040860Y0123257D01*
X0041994Y0123257D01*
X0042561Y0123824D01*
X0042561Y0125525D01*
X0043696Y0125525D02*
X0040293Y0125525D01*
X0040293Y0123824D01*
X0040293Y0126940D02*
X0040293Y0128074D01*
X0040293Y0127507D02*
X0042561Y0127507D01*
X0042561Y0126940D01*
X0043696Y0127507D02*
X0044263Y0127507D01*
X0041994Y0129395D02*
X0042561Y0129962D01*
X0042561Y0131664D01*
X0039725Y0131664D01*
X0039158Y0131097D01*
X0039158Y0130530D01*
X0040293Y0129962D02*
X0040293Y0131664D01*
X0040293Y0133078D02*
X0040293Y0134213D01*
X0040293Y0133646D02*
X0042561Y0133646D01*
X0042561Y0133078D01*
X0043696Y0133646D02*
X0044263Y0133646D01*
X0042561Y0135534D02*
X0042561Y0136668D01*
X0043128Y0136101D02*
X0040860Y0136101D01*
X0040293Y0136668D01*
X0040293Y0137989D02*
X0040293Y0139124D01*
X0040293Y0138556D02*
X0042561Y0138556D01*
X0042561Y0137989D01*
X0043696Y0138556D02*
X0044263Y0138556D01*
X0042561Y0140445D02*
X0042561Y0142713D01*
X0040293Y0140445D01*
X0040293Y0142713D01*
X0040860Y0144128D02*
X0040293Y0144695D01*
X0040293Y0145829D01*
X0041427Y0146396D02*
X0041427Y0144128D01*
X0041994Y0144128D02*
X0042561Y0144695D01*
X0042561Y0145829D01*
X0041994Y0146396D01*
X0041427Y0146396D01*
X0041427Y0147811D02*
X0042561Y0148945D01*
X0042561Y0149512D01*
X0042561Y0147811D02*
X0040293Y0147811D01*
X0040860Y0144128D02*
X0041994Y0144128D01*
X0040293Y0129962D02*
X0040860Y0129395D01*
X0041994Y0129395D01*
X0048293Y0121275D02*
X0048293Y0120708D01*
X0041994Y0112020D02*
X0040293Y0112020D01*
X0153009Y0230261D02*
X0156412Y0232529D01*
X0154711Y0233944D02*
X0154711Y0235645D01*
X0154143Y0236212D01*
X0153576Y0236212D01*
X0153009Y0235645D01*
X0153009Y0234511D01*
X0153576Y0233944D01*
X0154711Y0233944D01*
X0155845Y0235078D01*
X0156412Y0236212D01*
X0153009Y0232529D02*
X0156412Y0230261D01*
D11*
X0010859Y0316024D02*
X0010859Y0008937D01*
X0010861Y0008813D01*
X0010867Y0008690D01*
X0010876Y0008566D01*
X0010890Y0008444D01*
X0010907Y0008321D01*
X0010929Y0008199D01*
X0010954Y0008078D01*
X0010983Y0007958D01*
X0011015Y0007839D01*
X0011052Y0007720D01*
X0011092Y0007603D01*
X0011135Y0007488D01*
X0011183Y0007373D01*
X0011234Y0007261D01*
X0011288Y0007150D01*
X0011346Y0007040D01*
X0011407Y0006933D01*
X0011472Y0006827D01*
X0011540Y0006724D01*
X0011611Y0006623D01*
X0011685Y0006524D01*
X0011762Y0006427D01*
X0011843Y0006333D01*
X0011926Y0006242D01*
X0012012Y0006153D01*
X0012101Y0006067D01*
X0012192Y0005984D01*
X0012286Y0005903D01*
X0012383Y0005826D01*
X0012482Y0005752D01*
X0012583Y0005681D01*
X0012686Y0005613D01*
X0012792Y0005548D01*
X0012899Y0005487D01*
X0013009Y0005429D01*
X0013120Y0005375D01*
X0013232Y0005324D01*
X0013347Y0005276D01*
X0013462Y0005233D01*
X0013579Y0005193D01*
X0013698Y0005156D01*
X0013817Y0005124D01*
X0013937Y0005095D01*
X0014058Y0005070D01*
X0014180Y0005048D01*
X0014303Y0005031D01*
X0014425Y0005017D01*
X0014549Y0005008D01*
X0014672Y0005002D01*
X0014796Y0005000D01*
X0203772Y0005000D01*
X0203896Y0005002D01*
X0204019Y0005008D01*
X0204143Y0005017D01*
X0204265Y0005031D01*
X0204388Y0005048D01*
X0204510Y0005070D01*
X0204631Y0005095D01*
X0204751Y0005124D01*
X0204870Y0005156D01*
X0204989Y0005193D01*
X0205106Y0005233D01*
X0205221Y0005276D01*
X0205336Y0005324D01*
X0205448Y0005375D01*
X0205559Y0005429D01*
X0205669Y0005487D01*
X0205776Y0005548D01*
X0205882Y0005613D01*
X0205985Y0005681D01*
X0206086Y0005752D01*
X0206185Y0005826D01*
X0206282Y0005903D01*
X0206376Y0005984D01*
X0206467Y0006067D01*
X0206556Y0006153D01*
X0206642Y0006242D01*
X0206725Y0006333D01*
X0206806Y0006427D01*
X0206883Y0006524D01*
X0206957Y0006623D01*
X0207028Y0006724D01*
X0207096Y0006827D01*
X0207161Y0006933D01*
X0207222Y0007040D01*
X0207280Y0007150D01*
X0207334Y0007261D01*
X0207385Y0007373D01*
X0207433Y0007488D01*
X0207476Y0007603D01*
X0207516Y0007720D01*
X0207553Y0007839D01*
X0207585Y0007958D01*
X0207614Y0008078D01*
X0207639Y0008199D01*
X0207661Y0008321D01*
X0207678Y0008444D01*
X0207692Y0008566D01*
X0207701Y0008690D01*
X0207707Y0008813D01*
X0207709Y0008937D01*
X0207709Y0316024D01*
X0207707Y0316148D01*
X0207701Y0316271D01*
X0207692Y0316395D01*
X0207678Y0316517D01*
X0207661Y0316640D01*
X0207639Y0316762D01*
X0207614Y0316883D01*
X0207585Y0317003D01*
X0207553Y0317122D01*
X0207516Y0317241D01*
X0207476Y0317358D01*
X0207433Y0317473D01*
X0207385Y0317588D01*
X0207334Y0317700D01*
X0207280Y0317811D01*
X0207222Y0317921D01*
X0207161Y0318028D01*
X0207096Y0318134D01*
X0207028Y0318237D01*
X0206957Y0318338D01*
X0206883Y0318437D01*
X0206806Y0318534D01*
X0206725Y0318628D01*
X0206642Y0318719D01*
X0206556Y0318808D01*
X0206467Y0318894D01*
X0206376Y0318977D01*
X0206282Y0319058D01*
X0206185Y0319135D01*
X0206086Y0319209D01*
X0205985Y0319280D01*
X0205882Y0319348D01*
X0205776Y0319413D01*
X0205669Y0319474D01*
X0205559Y0319532D01*
X0205448Y0319586D01*
X0205336Y0319637D01*
X0205221Y0319685D01*
X0205106Y0319728D01*
X0204989Y0319768D01*
X0204870Y0319805D01*
X0204751Y0319837D01*
X0204631Y0319866D01*
X0204510Y0319891D01*
X0204388Y0319913D01*
X0204265Y0319930D01*
X0204143Y0319944D01*
X0204019Y0319953D01*
X0203896Y0319959D01*
X0203772Y0319961D01*
X0014796Y0319961D01*
X0014672Y0319959D01*
X0014549Y0319953D01*
X0014425Y0319944D01*
X0014303Y0319930D01*
X0014180Y0319913D01*
X0014058Y0319891D01*
X0013937Y0319866D01*
X0013817Y0319837D01*
X0013698Y0319805D01*
X0013579Y0319768D01*
X0013462Y0319728D01*
X0013347Y0319685D01*
X0013232Y0319637D01*
X0013120Y0319586D01*
X0013009Y0319532D01*
X0012899Y0319474D01*
X0012792Y0319413D01*
X0012686Y0319348D01*
X0012583Y0319280D01*
X0012482Y0319209D01*
X0012383Y0319135D01*
X0012286Y0319058D01*
X0012192Y0318977D01*
X0012101Y0318894D01*
X0012012Y0318808D01*
X0011926Y0318719D01*
X0011843Y0318628D01*
X0011762Y0318534D01*
X0011685Y0318437D01*
X0011611Y0318338D01*
X0011540Y0318237D01*
X0011472Y0318134D01*
X0011407Y0318028D01*
X0011346Y0317921D01*
X0011288Y0317811D01*
X0011234Y0317700D01*
X0011183Y0317588D01*
X0011135Y0317473D01*
X0011092Y0317358D01*
X0011052Y0317241D01*
X0011015Y0317122D01*
X0010983Y0317003D01*
X0010954Y0316883D01*
X0010929Y0316762D01*
X0010907Y0316640D01*
X0010890Y0316517D01*
X0010876Y0316395D01*
X0010867Y0316271D01*
X0010861Y0316148D01*
X0010859Y0316024D01*
D12*
X0173063Y0274232D02*
X0173065Y0274344D01*
X0173071Y0274455D01*
X0173081Y0274567D01*
X0173095Y0274678D01*
X0173112Y0274788D01*
X0173134Y0274898D01*
X0173160Y0275007D01*
X0173189Y0275115D01*
X0173222Y0275221D01*
X0173259Y0275327D01*
X0173300Y0275431D01*
X0173345Y0275534D01*
X0173393Y0275635D01*
X0173444Y0275734D01*
X0173499Y0275831D01*
X0173558Y0275926D01*
X0173619Y0276020D01*
X0173684Y0276111D01*
X0173753Y0276199D01*
X0173824Y0276285D01*
X0173898Y0276369D01*
X0173976Y0276449D01*
X0174056Y0276527D01*
X0174139Y0276603D01*
X0174224Y0276675D01*
X0174312Y0276744D01*
X0174402Y0276810D01*
X0174495Y0276872D01*
X0174590Y0276932D01*
X0174687Y0276988D01*
X0174785Y0277040D01*
X0174886Y0277089D01*
X0174988Y0277134D01*
X0175092Y0277176D01*
X0175197Y0277214D01*
X0175304Y0277248D01*
X0175411Y0277278D01*
X0175520Y0277305D01*
X0175629Y0277327D01*
X0175740Y0277346D01*
X0175850Y0277361D01*
X0175962Y0277372D01*
X0176073Y0277379D01*
X0176185Y0277382D01*
X0176297Y0277381D01*
X0176409Y0277376D01*
X0176520Y0277367D01*
X0176631Y0277354D01*
X0176742Y0277337D01*
X0176852Y0277317D01*
X0176961Y0277292D01*
X0177069Y0277264D01*
X0177176Y0277231D01*
X0177282Y0277195D01*
X0177386Y0277155D01*
X0177489Y0277112D01*
X0177591Y0277065D01*
X0177690Y0277014D01*
X0177788Y0276960D01*
X0177884Y0276902D01*
X0177978Y0276841D01*
X0178069Y0276777D01*
X0178158Y0276710D01*
X0178245Y0276639D01*
X0178329Y0276565D01*
X0178411Y0276489D01*
X0178489Y0276409D01*
X0178565Y0276327D01*
X0178638Y0276242D01*
X0178708Y0276155D01*
X0178774Y0276065D01*
X0178838Y0275973D01*
X0178898Y0275879D01*
X0178955Y0275783D01*
X0179008Y0275684D01*
X0179058Y0275584D01*
X0179104Y0275483D01*
X0179147Y0275379D01*
X0179186Y0275274D01*
X0179221Y0275168D01*
X0179252Y0275061D01*
X0179280Y0274952D01*
X0179303Y0274843D01*
X0179323Y0274733D01*
X0179339Y0274622D01*
X0179351Y0274511D01*
X0179359Y0274400D01*
X0179363Y0274288D01*
X0179363Y0274176D01*
X0179359Y0274064D01*
X0179351Y0273953D01*
X0179339Y0273842D01*
X0179323Y0273731D01*
X0179303Y0273621D01*
X0179280Y0273512D01*
X0179252Y0273403D01*
X0179221Y0273296D01*
X0179186Y0273190D01*
X0179147Y0273085D01*
X0179104Y0272981D01*
X0179058Y0272880D01*
X0179008Y0272780D01*
X0178955Y0272681D01*
X0178898Y0272585D01*
X0178838Y0272491D01*
X0178774Y0272399D01*
X0178708Y0272309D01*
X0178638Y0272222D01*
X0178565Y0272137D01*
X0178489Y0272055D01*
X0178411Y0271975D01*
X0178329Y0271899D01*
X0178245Y0271825D01*
X0178158Y0271754D01*
X0178069Y0271687D01*
X0177978Y0271623D01*
X0177884Y0271562D01*
X0177788Y0271504D01*
X0177690Y0271450D01*
X0177591Y0271399D01*
X0177489Y0271352D01*
X0177386Y0271309D01*
X0177282Y0271269D01*
X0177176Y0271233D01*
X0177069Y0271200D01*
X0176961Y0271172D01*
X0176852Y0271147D01*
X0176742Y0271127D01*
X0176631Y0271110D01*
X0176520Y0271097D01*
X0176409Y0271088D01*
X0176297Y0271083D01*
X0176185Y0271082D01*
X0176073Y0271085D01*
X0175962Y0271092D01*
X0175850Y0271103D01*
X0175740Y0271118D01*
X0175629Y0271137D01*
X0175520Y0271159D01*
X0175411Y0271186D01*
X0175304Y0271216D01*
X0175197Y0271250D01*
X0175092Y0271288D01*
X0174988Y0271330D01*
X0174886Y0271375D01*
X0174785Y0271424D01*
X0174687Y0271476D01*
X0174590Y0271532D01*
X0174495Y0271592D01*
X0174402Y0271654D01*
X0174312Y0271720D01*
X0174224Y0271789D01*
X0174139Y0271861D01*
X0174056Y0271937D01*
X0173976Y0272015D01*
X0173898Y0272095D01*
X0173824Y0272179D01*
X0173753Y0272265D01*
X0173684Y0272353D01*
X0173619Y0272444D01*
X0173558Y0272538D01*
X0173499Y0272633D01*
X0173444Y0272730D01*
X0173393Y0272829D01*
X0173345Y0272930D01*
X0173300Y0273033D01*
X0173259Y0273137D01*
X0173222Y0273243D01*
X0173189Y0273349D01*
X0173160Y0273457D01*
X0173134Y0273566D01*
X0173112Y0273676D01*
X0173095Y0273786D01*
X0173081Y0273897D01*
X0173071Y0274009D01*
X0173065Y0274120D01*
X0173063Y0274232D01*
X0173065Y0274344D01*
X0173071Y0274455D01*
X0173081Y0274567D01*
X0173095Y0274678D01*
X0173112Y0274788D01*
X0173134Y0274898D01*
X0173160Y0275007D01*
X0173189Y0275115D01*
X0173222Y0275221D01*
X0173259Y0275327D01*
X0173300Y0275431D01*
X0173345Y0275534D01*
X0173393Y0275635D01*
X0173444Y0275734D01*
X0173499Y0275831D01*
X0173558Y0275926D01*
X0173619Y0276020D01*
X0173684Y0276111D01*
X0173753Y0276199D01*
X0173824Y0276285D01*
X0173898Y0276369D01*
X0173976Y0276449D01*
X0174056Y0276527D01*
X0174139Y0276603D01*
X0174224Y0276675D01*
X0174312Y0276744D01*
X0174402Y0276810D01*
X0174495Y0276872D01*
X0174590Y0276932D01*
X0174687Y0276988D01*
X0174785Y0277040D01*
X0174886Y0277089D01*
X0174988Y0277134D01*
X0175092Y0277176D01*
X0175197Y0277214D01*
X0175304Y0277248D01*
X0175411Y0277278D01*
X0175520Y0277305D01*
X0175629Y0277327D01*
X0175740Y0277346D01*
X0175850Y0277361D01*
X0175962Y0277372D01*
X0176073Y0277379D01*
X0176185Y0277382D01*
X0176297Y0277381D01*
X0176409Y0277376D01*
X0176520Y0277367D01*
X0176631Y0277354D01*
X0176742Y0277337D01*
X0176852Y0277317D01*
X0176961Y0277292D01*
X0177069Y0277264D01*
X0177176Y0277231D01*
X0177282Y0277195D01*
X0177386Y0277155D01*
X0177489Y0277112D01*
X0177591Y0277065D01*
X0177690Y0277014D01*
X0177788Y0276960D01*
X0177884Y0276902D01*
X0177978Y0276841D01*
X0178069Y0276777D01*
X0178158Y0276710D01*
X0178245Y0276639D01*
X0178329Y0276565D01*
X0178411Y0276489D01*
X0178489Y0276409D01*
X0178565Y0276327D01*
X0178638Y0276242D01*
X0178708Y0276155D01*
X0178774Y0276065D01*
X0178838Y0275973D01*
X0178898Y0275879D01*
X0178955Y0275783D01*
X0179008Y0275684D01*
X0179058Y0275584D01*
X0179104Y0275483D01*
X0179147Y0275379D01*
X0179186Y0275274D01*
X0179221Y0275168D01*
X0179252Y0275061D01*
X0179280Y0274952D01*
X0179303Y0274843D01*
X0179323Y0274733D01*
X0179339Y0274622D01*
X0179351Y0274511D01*
X0179359Y0274400D01*
X0179363Y0274288D01*
X0179363Y0274176D01*
X0179359Y0274064D01*
X0179351Y0273953D01*
X0179339Y0273842D01*
X0179323Y0273731D01*
X0179303Y0273621D01*
X0179280Y0273512D01*
X0179252Y0273403D01*
X0179221Y0273296D01*
X0179186Y0273190D01*
X0179147Y0273085D01*
X0179104Y0272981D01*
X0179058Y0272880D01*
X0179008Y0272780D01*
X0178955Y0272681D01*
X0178898Y0272585D01*
X0178838Y0272491D01*
X0178774Y0272399D01*
X0178708Y0272309D01*
X0178638Y0272222D01*
X0178565Y0272137D01*
X0178489Y0272055D01*
X0178411Y0271975D01*
X0178329Y0271899D01*
X0178245Y0271825D01*
X0178158Y0271754D01*
X0178069Y0271687D01*
X0177978Y0271623D01*
X0177884Y0271562D01*
X0177788Y0271504D01*
X0177690Y0271450D01*
X0177591Y0271399D01*
X0177489Y0271352D01*
X0177386Y0271309D01*
X0177282Y0271269D01*
X0177176Y0271233D01*
X0177069Y0271200D01*
X0176961Y0271172D01*
X0176852Y0271147D01*
X0176742Y0271127D01*
X0176631Y0271110D01*
X0176520Y0271097D01*
X0176409Y0271088D01*
X0176297Y0271083D01*
X0176185Y0271082D01*
X0176073Y0271085D01*
X0175962Y0271092D01*
X0175850Y0271103D01*
X0175740Y0271118D01*
X0175629Y0271137D01*
X0175520Y0271159D01*
X0175411Y0271186D01*
X0175304Y0271216D01*
X0175197Y0271250D01*
X0175092Y0271288D01*
X0174988Y0271330D01*
X0174886Y0271375D01*
X0174785Y0271424D01*
X0174687Y0271476D01*
X0174590Y0271532D01*
X0174495Y0271592D01*
X0174402Y0271654D01*
X0174312Y0271720D01*
X0174224Y0271789D01*
X0174139Y0271861D01*
X0174056Y0271937D01*
X0173976Y0272015D01*
X0173898Y0272095D01*
X0173824Y0272179D01*
X0173753Y0272265D01*
X0173684Y0272353D01*
X0173619Y0272444D01*
X0173558Y0272538D01*
X0173499Y0272633D01*
X0173444Y0272730D01*
X0173393Y0272829D01*
X0173345Y0272930D01*
X0173300Y0273033D01*
X0173259Y0273137D01*
X0173222Y0273243D01*
X0173189Y0273349D01*
X0173160Y0273457D01*
X0173134Y0273566D01*
X0173112Y0273676D01*
X0173095Y0273786D01*
X0173081Y0273897D01*
X0173071Y0274009D01*
X0173065Y0274120D01*
X0173063Y0274232D01*
X0173063Y0231831D02*
X0173065Y0231943D01*
X0173071Y0232054D01*
X0173081Y0232166D01*
X0173095Y0232277D01*
X0173112Y0232387D01*
X0173134Y0232497D01*
X0173160Y0232606D01*
X0173189Y0232714D01*
X0173222Y0232820D01*
X0173259Y0232926D01*
X0173300Y0233030D01*
X0173345Y0233133D01*
X0173393Y0233234D01*
X0173444Y0233333D01*
X0173499Y0233430D01*
X0173558Y0233525D01*
X0173619Y0233619D01*
X0173684Y0233710D01*
X0173753Y0233798D01*
X0173824Y0233884D01*
X0173898Y0233968D01*
X0173976Y0234048D01*
X0174056Y0234126D01*
X0174139Y0234202D01*
X0174224Y0234274D01*
X0174312Y0234343D01*
X0174402Y0234409D01*
X0174495Y0234471D01*
X0174590Y0234531D01*
X0174687Y0234587D01*
X0174785Y0234639D01*
X0174886Y0234688D01*
X0174988Y0234733D01*
X0175092Y0234775D01*
X0175197Y0234813D01*
X0175304Y0234847D01*
X0175411Y0234877D01*
X0175520Y0234904D01*
X0175629Y0234926D01*
X0175740Y0234945D01*
X0175850Y0234960D01*
X0175962Y0234971D01*
X0176073Y0234978D01*
X0176185Y0234981D01*
X0176297Y0234980D01*
X0176409Y0234975D01*
X0176520Y0234966D01*
X0176631Y0234953D01*
X0176742Y0234936D01*
X0176852Y0234916D01*
X0176961Y0234891D01*
X0177069Y0234863D01*
X0177176Y0234830D01*
X0177282Y0234794D01*
X0177386Y0234754D01*
X0177489Y0234711D01*
X0177591Y0234664D01*
X0177690Y0234613D01*
X0177788Y0234559D01*
X0177884Y0234501D01*
X0177978Y0234440D01*
X0178069Y0234376D01*
X0178158Y0234309D01*
X0178245Y0234238D01*
X0178329Y0234164D01*
X0178411Y0234088D01*
X0178489Y0234008D01*
X0178565Y0233926D01*
X0178638Y0233841D01*
X0178708Y0233754D01*
X0178774Y0233664D01*
X0178838Y0233572D01*
X0178898Y0233478D01*
X0178955Y0233382D01*
X0179008Y0233283D01*
X0179058Y0233183D01*
X0179104Y0233082D01*
X0179147Y0232978D01*
X0179186Y0232873D01*
X0179221Y0232767D01*
X0179252Y0232660D01*
X0179280Y0232551D01*
X0179303Y0232442D01*
X0179323Y0232332D01*
X0179339Y0232221D01*
X0179351Y0232110D01*
X0179359Y0231999D01*
X0179363Y0231887D01*
X0179363Y0231775D01*
X0179359Y0231663D01*
X0179351Y0231552D01*
X0179339Y0231441D01*
X0179323Y0231330D01*
X0179303Y0231220D01*
X0179280Y0231111D01*
X0179252Y0231002D01*
X0179221Y0230895D01*
X0179186Y0230789D01*
X0179147Y0230684D01*
X0179104Y0230580D01*
X0179058Y0230479D01*
X0179008Y0230379D01*
X0178955Y0230280D01*
X0178898Y0230184D01*
X0178838Y0230090D01*
X0178774Y0229998D01*
X0178708Y0229908D01*
X0178638Y0229821D01*
X0178565Y0229736D01*
X0178489Y0229654D01*
X0178411Y0229574D01*
X0178329Y0229498D01*
X0178245Y0229424D01*
X0178158Y0229353D01*
X0178069Y0229286D01*
X0177978Y0229222D01*
X0177884Y0229161D01*
X0177788Y0229103D01*
X0177690Y0229049D01*
X0177591Y0228998D01*
X0177489Y0228951D01*
X0177386Y0228908D01*
X0177282Y0228868D01*
X0177176Y0228832D01*
X0177069Y0228799D01*
X0176961Y0228771D01*
X0176852Y0228746D01*
X0176742Y0228726D01*
X0176631Y0228709D01*
X0176520Y0228696D01*
X0176409Y0228687D01*
X0176297Y0228682D01*
X0176185Y0228681D01*
X0176073Y0228684D01*
X0175962Y0228691D01*
X0175850Y0228702D01*
X0175740Y0228717D01*
X0175629Y0228736D01*
X0175520Y0228758D01*
X0175411Y0228785D01*
X0175304Y0228815D01*
X0175197Y0228849D01*
X0175092Y0228887D01*
X0174988Y0228929D01*
X0174886Y0228974D01*
X0174785Y0229023D01*
X0174687Y0229075D01*
X0174590Y0229131D01*
X0174495Y0229191D01*
X0174402Y0229253D01*
X0174312Y0229319D01*
X0174224Y0229388D01*
X0174139Y0229460D01*
X0174056Y0229536D01*
X0173976Y0229614D01*
X0173898Y0229694D01*
X0173824Y0229778D01*
X0173753Y0229864D01*
X0173684Y0229952D01*
X0173619Y0230043D01*
X0173558Y0230137D01*
X0173499Y0230232D01*
X0173444Y0230329D01*
X0173393Y0230428D01*
X0173345Y0230529D01*
X0173300Y0230632D01*
X0173259Y0230736D01*
X0173222Y0230842D01*
X0173189Y0230948D01*
X0173160Y0231056D01*
X0173134Y0231165D01*
X0173112Y0231275D01*
X0173095Y0231385D01*
X0173081Y0231496D01*
X0173071Y0231608D01*
X0173065Y0231719D01*
X0173063Y0231831D01*
X0173065Y0231943D01*
X0173071Y0232054D01*
X0173081Y0232166D01*
X0173095Y0232277D01*
X0173112Y0232387D01*
X0173134Y0232497D01*
X0173160Y0232606D01*
X0173189Y0232714D01*
X0173222Y0232820D01*
X0173259Y0232926D01*
X0173300Y0233030D01*
X0173345Y0233133D01*
X0173393Y0233234D01*
X0173444Y0233333D01*
X0173499Y0233430D01*
X0173558Y0233525D01*
X0173619Y0233619D01*
X0173684Y0233710D01*
X0173753Y0233798D01*
X0173824Y0233884D01*
X0173898Y0233968D01*
X0173976Y0234048D01*
X0174056Y0234126D01*
X0174139Y0234202D01*
X0174224Y0234274D01*
X0174312Y0234343D01*
X0174402Y0234409D01*
X0174495Y0234471D01*
X0174590Y0234531D01*
X0174687Y0234587D01*
X0174785Y0234639D01*
X0174886Y0234688D01*
X0174988Y0234733D01*
X0175092Y0234775D01*
X0175197Y0234813D01*
X0175304Y0234847D01*
X0175411Y0234877D01*
X0175520Y0234904D01*
X0175629Y0234926D01*
X0175740Y0234945D01*
X0175850Y0234960D01*
X0175962Y0234971D01*
X0176073Y0234978D01*
X0176185Y0234981D01*
X0176297Y0234980D01*
X0176409Y0234975D01*
X0176520Y0234966D01*
X0176631Y0234953D01*
X0176742Y0234936D01*
X0176852Y0234916D01*
X0176961Y0234891D01*
X0177069Y0234863D01*
X0177176Y0234830D01*
X0177282Y0234794D01*
X0177386Y0234754D01*
X0177489Y0234711D01*
X0177591Y0234664D01*
X0177690Y0234613D01*
X0177788Y0234559D01*
X0177884Y0234501D01*
X0177978Y0234440D01*
X0178069Y0234376D01*
X0178158Y0234309D01*
X0178245Y0234238D01*
X0178329Y0234164D01*
X0178411Y0234088D01*
X0178489Y0234008D01*
X0178565Y0233926D01*
X0178638Y0233841D01*
X0178708Y0233754D01*
X0178774Y0233664D01*
X0178838Y0233572D01*
X0178898Y0233478D01*
X0178955Y0233382D01*
X0179008Y0233283D01*
X0179058Y0233183D01*
X0179104Y0233082D01*
X0179147Y0232978D01*
X0179186Y0232873D01*
X0179221Y0232767D01*
X0179252Y0232660D01*
X0179280Y0232551D01*
X0179303Y0232442D01*
X0179323Y0232332D01*
X0179339Y0232221D01*
X0179351Y0232110D01*
X0179359Y0231999D01*
X0179363Y0231887D01*
X0179363Y0231775D01*
X0179359Y0231663D01*
X0179351Y0231552D01*
X0179339Y0231441D01*
X0179323Y0231330D01*
X0179303Y0231220D01*
X0179280Y0231111D01*
X0179252Y0231002D01*
X0179221Y0230895D01*
X0179186Y0230789D01*
X0179147Y0230684D01*
X0179104Y0230580D01*
X0179058Y0230479D01*
X0179008Y0230379D01*
X0178955Y0230280D01*
X0178898Y0230184D01*
X0178838Y0230090D01*
X0178774Y0229998D01*
X0178708Y0229908D01*
X0178638Y0229821D01*
X0178565Y0229736D01*
X0178489Y0229654D01*
X0178411Y0229574D01*
X0178329Y0229498D01*
X0178245Y0229424D01*
X0178158Y0229353D01*
X0178069Y0229286D01*
X0177978Y0229222D01*
X0177884Y0229161D01*
X0177788Y0229103D01*
X0177690Y0229049D01*
X0177591Y0228998D01*
X0177489Y0228951D01*
X0177386Y0228908D01*
X0177282Y0228868D01*
X0177176Y0228832D01*
X0177069Y0228799D01*
X0176961Y0228771D01*
X0176852Y0228746D01*
X0176742Y0228726D01*
X0176631Y0228709D01*
X0176520Y0228696D01*
X0176409Y0228687D01*
X0176297Y0228682D01*
X0176185Y0228681D01*
X0176073Y0228684D01*
X0175962Y0228691D01*
X0175850Y0228702D01*
X0175740Y0228717D01*
X0175629Y0228736D01*
X0175520Y0228758D01*
X0175411Y0228785D01*
X0175304Y0228815D01*
X0175197Y0228849D01*
X0175092Y0228887D01*
X0174988Y0228929D01*
X0174886Y0228974D01*
X0174785Y0229023D01*
X0174687Y0229075D01*
X0174590Y0229131D01*
X0174495Y0229191D01*
X0174402Y0229253D01*
X0174312Y0229319D01*
X0174224Y0229388D01*
X0174139Y0229460D01*
X0174056Y0229536D01*
X0173976Y0229614D01*
X0173898Y0229694D01*
X0173824Y0229778D01*
X0173753Y0229864D01*
X0173684Y0229952D01*
X0173619Y0230043D01*
X0173558Y0230137D01*
X0173499Y0230232D01*
X0173444Y0230329D01*
X0173393Y0230428D01*
X0173345Y0230529D01*
X0173300Y0230632D01*
X0173259Y0230736D01*
X0173222Y0230842D01*
X0173189Y0230948D01*
X0173160Y0231056D01*
X0173134Y0231165D01*
X0173112Y0231275D01*
X0173095Y0231385D01*
X0173081Y0231496D01*
X0173071Y0231608D01*
X0173065Y0231719D01*
X0173063Y0231831D01*
D13*
X0160465Y0227047D02*
X0160465Y0279016D01*
X0191961Y0279016D01*
X0191961Y0227047D01*
X0160465Y0227047D01*
M02*
