G75*
%MOIN*%
%OFA0B0*%
%FSLAX25Y25*%
%IPPOS*%
%LPD*%
%AMOC8*
5,1,8,0,0,1.08239X$1,22.5*
%
%ADD10C,0.05000*%
%ADD11C,0.00500*%
%ADD12C,0.18117*%
%ADD13C,0.06306*%
%ADD14C,0.00000*%
%ADD15C,0.06699*%
%ADD16R,0.06306X0.03550*%
%ADD17R,0.10243X0.05124*%
%ADD18R,0.06306X0.01463*%
%ADD19R,0.01463X0.06306*%
%ADD20R,0.04337X0.04731*%
%ADD21R,0.04731X0.04337*%
%ADD22R,0.06306X0.05124*%
%ADD23R,0.04337X0.04337*%
%ADD24C,0.03550*%
%ADD25R,0.04337X0.05912*%
%ADD26R,0.02762X0.05124*%
%ADD27R,0.01778X0.05124*%
%ADD28R,0.12211X0.03550*%
%ADD29R,0.02762X0.03943*%
%ADD30R,0.06306X0.05518*%
%ADD31R,0.05912X0.09849*%
%ADD32R,0.05912X0.12211*%
%ADD33R,0.05124X0.06306*%
%ADD34R,0.07498X0.06699*%
%ADD35C,0.06400*%
%ADD36R,0.05518X0.06306*%
%ADD37R,0.02565X0.05124*%
%ADD38R,0.05124X0.02762*%
%ADD39R,0.05912X0.07487*%
%ADD40R,0.03156X0.05124*%
D10*
X0069914Y0027047D02*
X0069914Y0124685D01*
X0088024Y0124685D02*
X0100623Y0124685D01*
X0114796Y0124685D02*
X0129756Y0124685D01*
X0143930Y0124685D02*
X0158103Y0124685D01*
X0172276Y0124685D02*
X0195898Y0124685D01*
X0195898Y0027047D01*
X0176213Y0027047D01*
X0168339Y0027047D02*
X0144717Y0027047D01*
X0136843Y0027047D02*
X0113221Y0027047D01*
X0105347Y0027047D02*
X0082512Y0027047D01*
X0073063Y0027047D02*
X0069914Y0027047D01*
D11*
X0010859Y0008937D02*
X0010859Y0316024D01*
X0010861Y0316148D01*
X0010867Y0316271D01*
X0010876Y0316395D01*
X0010890Y0316517D01*
X0010907Y0316640D01*
X0010929Y0316762D01*
X0010954Y0316883D01*
X0010983Y0317003D01*
X0011015Y0317122D01*
X0011052Y0317241D01*
X0011092Y0317358D01*
X0011135Y0317473D01*
X0011183Y0317588D01*
X0011234Y0317700D01*
X0011288Y0317811D01*
X0011346Y0317921D01*
X0011407Y0318028D01*
X0011472Y0318134D01*
X0011540Y0318237D01*
X0011611Y0318338D01*
X0011685Y0318437D01*
X0011762Y0318534D01*
X0011843Y0318628D01*
X0011926Y0318719D01*
X0012012Y0318808D01*
X0012101Y0318894D01*
X0012192Y0318977D01*
X0012286Y0319058D01*
X0012383Y0319135D01*
X0012482Y0319209D01*
X0012583Y0319280D01*
X0012686Y0319348D01*
X0012792Y0319413D01*
X0012899Y0319474D01*
X0013009Y0319532D01*
X0013120Y0319586D01*
X0013232Y0319637D01*
X0013347Y0319685D01*
X0013462Y0319728D01*
X0013579Y0319768D01*
X0013698Y0319805D01*
X0013817Y0319837D01*
X0013937Y0319866D01*
X0014058Y0319891D01*
X0014180Y0319913D01*
X0014303Y0319930D01*
X0014425Y0319944D01*
X0014549Y0319953D01*
X0014672Y0319959D01*
X0014796Y0319961D01*
X0203772Y0319961D01*
X0203896Y0319959D01*
X0204019Y0319953D01*
X0204143Y0319944D01*
X0204265Y0319930D01*
X0204388Y0319913D01*
X0204510Y0319891D01*
X0204631Y0319866D01*
X0204751Y0319837D01*
X0204870Y0319805D01*
X0204989Y0319768D01*
X0205106Y0319728D01*
X0205221Y0319685D01*
X0205336Y0319637D01*
X0205448Y0319586D01*
X0205559Y0319532D01*
X0205669Y0319474D01*
X0205776Y0319413D01*
X0205882Y0319348D01*
X0205985Y0319280D01*
X0206086Y0319209D01*
X0206185Y0319135D01*
X0206282Y0319058D01*
X0206376Y0318977D01*
X0206467Y0318894D01*
X0206556Y0318808D01*
X0206642Y0318719D01*
X0206725Y0318628D01*
X0206806Y0318534D01*
X0206883Y0318437D01*
X0206957Y0318338D01*
X0207028Y0318237D01*
X0207096Y0318134D01*
X0207161Y0318028D01*
X0207222Y0317921D01*
X0207280Y0317811D01*
X0207334Y0317700D01*
X0207385Y0317588D01*
X0207433Y0317473D01*
X0207476Y0317358D01*
X0207516Y0317241D01*
X0207553Y0317122D01*
X0207585Y0317003D01*
X0207614Y0316883D01*
X0207639Y0316762D01*
X0207661Y0316640D01*
X0207678Y0316517D01*
X0207692Y0316395D01*
X0207701Y0316271D01*
X0207707Y0316148D01*
X0207709Y0316024D01*
X0207709Y0008937D01*
X0207707Y0008813D01*
X0207701Y0008690D01*
X0207692Y0008566D01*
X0207678Y0008444D01*
X0207661Y0008321D01*
X0207639Y0008199D01*
X0207614Y0008078D01*
X0207585Y0007958D01*
X0207553Y0007839D01*
X0207516Y0007720D01*
X0207476Y0007603D01*
X0207433Y0007488D01*
X0207385Y0007373D01*
X0207334Y0007261D01*
X0207280Y0007150D01*
X0207222Y0007040D01*
X0207161Y0006933D01*
X0207096Y0006827D01*
X0207028Y0006724D01*
X0206957Y0006623D01*
X0206883Y0006524D01*
X0206806Y0006427D01*
X0206725Y0006333D01*
X0206642Y0006242D01*
X0206556Y0006153D01*
X0206467Y0006067D01*
X0206376Y0005984D01*
X0206282Y0005903D01*
X0206185Y0005826D01*
X0206086Y0005752D01*
X0205985Y0005681D01*
X0205882Y0005613D01*
X0205776Y0005548D01*
X0205669Y0005487D01*
X0205559Y0005429D01*
X0205448Y0005375D01*
X0205336Y0005324D01*
X0205221Y0005276D01*
X0205106Y0005233D01*
X0204989Y0005193D01*
X0204870Y0005156D01*
X0204751Y0005124D01*
X0204631Y0005095D01*
X0204510Y0005070D01*
X0204388Y0005048D01*
X0204265Y0005031D01*
X0204143Y0005017D01*
X0204019Y0005008D01*
X0203896Y0005002D01*
X0203772Y0005000D01*
X0014796Y0005000D01*
X0014672Y0005002D01*
X0014549Y0005008D01*
X0014425Y0005017D01*
X0014303Y0005031D01*
X0014180Y0005048D01*
X0014058Y0005070D01*
X0013937Y0005095D01*
X0013817Y0005124D01*
X0013698Y0005156D01*
X0013579Y0005193D01*
X0013462Y0005233D01*
X0013347Y0005276D01*
X0013232Y0005324D01*
X0013120Y0005375D01*
X0013009Y0005429D01*
X0012899Y0005487D01*
X0012792Y0005548D01*
X0012686Y0005613D01*
X0012583Y0005681D01*
X0012482Y0005752D01*
X0012383Y0005826D01*
X0012286Y0005903D01*
X0012192Y0005984D01*
X0012101Y0006067D01*
X0012012Y0006153D01*
X0011926Y0006242D01*
X0011843Y0006333D01*
X0011762Y0006427D01*
X0011685Y0006524D01*
X0011611Y0006623D01*
X0011540Y0006724D01*
X0011472Y0006827D01*
X0011407Y0006933D01*
X0011346Y0007040D01*
X0011288Y0007150D01*
X0011234Y0007261D01*
X0011183Y0007373D01*
X0011135Y0007488D01*
X0011092Y0007603D01*
X0011052Y0007720D01*
X0011015Y0007839D01*
X0010983Y0007958D01*
X0010954Y0008078D01*
X0010929Y0008199D01*
X0010907Y0008321D01*
X0010890Y0008444D01*
X0010876Y0008566D01*
X0010867Y0008690D01*
X0010861Y0008813D01*
X0010859Y0008937D01*
D12*
X0020701Y0014843D03*
X0197867Y0014843D03*
X0197867Y0310118D03*
X0020701Y0310118D03*
D13*
X0041292Y0019449D03*
X0046292Y0014449D03*
X0041292Y0009449D03*
X0051292Y0009449D03*
X0051292Y0019449D03*
X0072788Y0019449D03*
X0077788Y0014449D03*
X0082788Y0019449D03*
X0082788Y0009449D03*
X0072788Y0009449D03*
X0104284Y0009449D03*
X0109284Y0014449D03*
X0114284Y0019449D03*
X0114284Y0009449D03*
X0104284Y0019449D03*
X0135780Y0019449D03*
X0140780Y0014449D03*
X0145780Y0019449D03*
X0145780Y0009449D03*
X0135780Y0009449D03*
X0167276Y0009449D03*
X0172276Y0014449D03*
X0167276Y0019449D03*
X0177276Y0019449D03*
X0177276Y0009449D03*
D14*
X0173063Y0231831D02*
X0173065Y0231943D01*
X0173071Y0232054D01*
X0173081Y0232166D01*
X0173095Y0232277D01*
X0173112Y0232387D01*
X0173134Y0232497D01*
X0173160Y0232606D01*
X0173189Y0232714D01*
X0173222Y0232820D01*
X0173259Y0232926D01*
X0173300Y0233030D01*
X0173345Y0233133D01*
X0173393Y0233234D01*
X0173444Y0233333D01*
X0173499Y0233430D01*
X0173558Y0233525D01*
X0173619Y0233619D01*
X0173684Y0233710D01*
X0173753Y0233798D01*
X0173824Y0233884D01*
X0173898Y0233968D01*
X0173976Y0234048D01*
X0174056Y0234126D01*
X0174139Y0234202D01*
X0174224Y0234274D01*
X0174312Y0234343D01*
X0174402Y0234409D01*
X0174495Y0234471D01*
X0174590Y0234531D01*
X0174687Y0234587D01*
X0174785Y0234639D01*
X0174886Y0234688D01*
X0174988Y0234733D01*
X0175092Y0234775D01*
X0175197Y0234813D01*
X0175304Y0234847D01*
X0175411Y0234877D01*
X0175520Y0234904D01*
X0175629Y0234926D01*
X0175740Y0234945D01*
X0175850Y0234960D01*
X0175962Y0234971D01*
X0176073Y0234978D01*
X0176185Y0234981D01*
X0176297Y0234980D01*
X0176409Y0234975D01*
X0176520Y0234966D01*
X0176631Y0234953D01*
X0176742Y0234936D01*
X0176852Y0234916D01*
X0176961Y0234891D01*
X0177069Y0234863D01*
X0177176Y0234830D01*
X0177282Y0234794D01*
X0177386Y0234754D01*
X0177489Y0234711D01*
X0177591Y0234664D01*
X0177690Y0234613D01*
X0177788Y0234559D01*
X0177884Y0234501D01*
X0177978Y0234440D01*
X0178069Y0234376D01*
X0178158Y0234309D01*
X0178245Y0234238D01*
X0178329Y0234164D01*
X0178411Y0234088D01*
X0178489Y0234008D01*
X0178565Y0233926D01*
X0178638Y0233841D01*
X0178708Y0233754D01*
X0178774Y0233664D01*
X0178838Y0233572D01*
X0178898Y0233478D01*
X0178955Y0233382D01*
X0179008Y0233283D01*
X0179058Y0233183D01*
X0179104Y0233082D01*
X0179147Y0232978D01*
X0179186Y0232873D01*
X0179221Y0232767D01*
X0179252Y0232660D01*
X0179280Y0232551D01*
X0179303Y0232442D01*
X0179323Y0232332D01*
X0179339Y0232221D01*
X0179351Y0232110D01*
X0179359Y0231999D01*
X0179363Y0231887D01*
X0179363Y0231775D01*
X0179359Y0231663D01*
X0179351Y0231552D01*
X0179339Y0231441D01*
X0179323Y0231330D01*
X0179303Y0231220D01*
X0179280Y0231111D01*
X0179252Y0231002D01*
X0179221Y0230895D01*
X0179186Y0230789D01*
X0179147Y0230684D01*
X0179104Y0230580D01*
X0179058Y0230479D01*
X0179008Y0230379D01*
X0178955Y0230280D01*
X0178898Y0230184D01*
X0178838Y0230090D01*
X0178774Y0229998D01*
X0178708Y0229908D01*
X0178638Y0229821D01*
X0178565Y0229736D01*
X0178489Y0229654D01*
X0178411Y0229574D01*
X0178329Y0229498D01*
X0178245Y0229424D01*
X0178158Y0229353D01*
X0178069Y0229286D01*
X0177978Y0229222D01*
X0177884Y0229161D01*
X0177788Y0229103D01*
X0177690Y0229049D01*
X0177591Y0228998D01*
X0177489Y0228951D01*
X0177386Y0228908D01*
X0177282Y0228868D01*
X0177176Y0228832D01*
X0177069Y0228799D01*
X0176961Y0228771D01*
X0176852Y0228746D01*
X0176742Y0228726D01*
X0176631Y0228709D01*
X0176520Y0228696D01*
X0176409Y0228687D01*
X0176297Y0228682D01*
X0176185Y0228681D01*
X0176073Y0228684D01*
X0175962Y0228691D01*
X0175850Y0228702D01*
X0175740Y0228717D01*
X0175629Y0228736D01*
X0175520Y0228758D01*
X0175411Y0228785D01*
X0175304Y0228815D01*
X0175197Y0228849D01*
X0175092Y0228887D01*
X0174988Y0228929D01*
X0174886Y0228974D01*
X0174785Y0229023D01*
X0174687Y0229075D01*
X0174590Y0229131D01*
X0174495Y0229191D01*
X0174402Y0229253D01*
X0174312Y0229319D01*
X0174224Y0229388D01*
X0174139Y0229460D01*
X0174056Y0229536D01*
X0173976Y0229614D01*
X0173898Y0229694D01*
X0173824Y0229778D01*
X0173753Y0229864D01*
X0173684Y0229952D01*
X0173619Y0230043D01*
X0173558Y0230137D01*
X0173499Y0230232D01*
X0173444Y0230329D01*
X0173393Y0230428D01*
X0173345Y0230529D01*
X0173300Y0230632D01*
X0173259Y0230736D01*
X0173222Y0230842D01*
X0173189Y0230948D01*
X0173160Y0231056D01*
X0173134Y0231165D01*
X0173112Y0231275D01*
X0173095Y0231385D01*
X0173081Y0231496D01*
X0173071Y0231608D01*
X0173065Y0231719D01*
X0173063Y0231831D01*
X0173065Y0231943D01*
X0173071Y0232054D01*
X0173081Y0232166D01*
X0173095Y0232277D01*
X0173112Y0232387D01*
X0173134Y0232497D01*
X0173160Y0232606D01*
X0173189Y0232714D01*
X0173222Y0232820D01*
X0173259Y0232926D01*
X0173300Y0233030D01*
X0173345Y0233133D01*
X0173393Y0233234D01*
X0173444Y0233333D01*
X0173499Y0233430D01*
X0173558Y0233525D01*
X0173619Y0233619D01*
X0173684Y0233710D01*
X0173753Y0233798D01*
X0173824Y0233884D01*
X0173898Y0233968D01*
X0173976Y0234048D01*
X0174056Y0234126D01*
X0174139Y0234202D01*
X0174224Y0234274D01*
X0174312Y0234343D01*
X0174402Y0234409D01*
X0174495Y0234471D01*
X0174590Y0234531D01*
X0174687Y0234587D01*
X0174785Y0234639D01*
X0174886Y0234688D01*
X0174988Y0234733D01*
X0175092Y0234775D01*
X0175197Y0234813D01*
X0175304Y0234847D01*
X0175411Y0234877D01*
X0175520Y0234904D01*
X0175629Y0234926D01*
X0175740Y0234945D01*
X0175850Y0234960D01*
X0175962Y0234971D01*
X0176073Y0234978D01*
X0176185Y0234981D01*
X0176297Y0234980D01*
X0176409Y0234975D01*
X0176520Y0234966D01*
X0176631Y0234953D01*
X0176742Y0234936D01*
X0176852Y0234916D01*
X0176961Y0234891D01*
X0177069Y0234863D01*
X0177176Y0234830D01*
X0177282Y0234794D01*
X0177386Y0234754D01*
X0177489Y0234711D01*
X0177591Y0234664D01*
X0177690Y0234613D01*
X0177788Y0234559D01*
X0177884Y0234501D01*
X0177978Y0234440D01*
X0178069Y0234376D01*
X0178158Y0234309D01*
X0178245Y0234238D01*
X0178329Y0234164D01*
X0178411Y0234088D01*
X0178489Y0234008D01*
X0178565Y0233926D01*
X0178638Y0233841D01*
X0178708Y0233754D01*
X0178774Y0233664D01*
X0178838Y0233572D01*
X0178898Y0233478D01*
X0178955Y0233382D01*
X0179008Y0233283D01*
X0179058Y0233183D01*
X0179104Y0233082D01*
X0179147Y0232978D01*
X0179186Y0232873D01*
X0179221Y0232767D01*
X0179252Y0232660D01*
X0179280Y0232551D01*
X0179303Y0232442D01*
X0179323Y0232332D01*
X0179339Y0232221D01*
X0179351Y0232110D01*
X0179359Y0231999D01*
X0179363Y0231887D01*
X0179363Y0231775D01*
X0179359Y0231663D01*
X0179351Y0231552D01*
X0179339Y0231441D01*
X0179323Y0231330D01*
X0179303Y0231220D01*
X0179280Y0231111D01*
X0179252Y0231002D01*
X0179221Y0230895D01*
X0179186Y0230789D01*
X0179147Y0230684D01*
X0179104Y0230580D01*
X0179058Y0230479D01*
X0179008Y0230379D01*
X0178955Y0230280D01*
X0178898Y0230184D01*
X0178838Y0230090D01*
X0178774Y0229998D01*
X0178708Y0229908D01*
X0178638Y0229821D01*
X0178565Y0229736D01*
X0178489Y0229654D01*
X0178411Y0229574D01*
X0178329Y0229498D01*
X0178245Y0229424D01*
X0178158Y0229353D01*
X0178069Y0229286D01*
X0177978Y0229222D01*
X0177884Y0229161D01*
X0177788Y0229103D01*
X0177690Y0229049D01*
X0177591Y0228998D01*
X0177489Y0228951D01*
X0177386Y0228908D01*
X0177282Y0228868D01*
X0177176Y0228832D01*
X0177069Y0228799D01*
X0176961Y0228771D01*
X0176852Y0228746D01*
X0176742Y0228726D01*
X0176631Y0228709D01*
X0176520Y0228696D01*
X0176409Y0228687D01*
X0176297Y0228682D01*
X0176185Y0228681D01*
X0176073Y0228684D01*
X0175962Y0228691D01*
X0175850Y0228702D01*
X0175740Y0228717D01*
X0175629Y0228736D01*
X0175520Y0228758D01*
X0175411Y0228785D01*
X0175304Y0228815D01*
X0175197Y0228849D01*
X0175092Y0228887D01*
X0174988Y0228929D01*
X0174886Y0228974D01*
X0174785Y0229023D01*
X0174687Y0229075D01*
X0174590Y0229131D01*
X0174495Y0229191D01*
X0174402Y0229253D01*
X0174312Y0229319D01*
X0174224Y0229388D01*
X0174139Y0229460D01*
X0174056Y0229536D01*
X0173976Y0229614D01*
X0173898Y0229694D01*
X0173824Y0229778D01*
X0173753Y0229864D01*
X0173684Y0229952D01*
X0173619Y0230043D01*
X0173558Y0230137D01*
X0173499Y0230232D01*
X0173444Y0230329D01*
X0173393Y0230428D01*
X0173345Y0230529D01*
X0173300Y0230632D01*
X0173259Y0230736D01*
X0173222Y0230842D01*
X0173189Y0230948D01*
X0173160Y0231056D01*
X0173134Y0231165D01*
X0173112Y0231275D01*
X0173095Y0231385D01*
X0173081Y0231496D01*
X0173071Y0231608D01*
X0173065Y0231719D01*
X0173063Y0231831D01*
X0173063Y0274232D02*
X0173065Y0274344D01*
X0173071Y0274455D01*
X0173081Y0274567D01*
X0173095Y0274678D01*
X0173112Y0274788D01*
X0173134Y0274898D01*
X0173160Y0275007D01*
X0173189Y0275115D01*
X0173222Y0275221D01*
X0173259Y0275327D01*
X0173300Y0275431D01*
X0173345Y0275534D01*
X0173393Y0275635D01*
X0173444Y0275734D01*
X0173499Y0275831D01*
X0173558Y0275926D01*
X0173619Y0276020D01*
X0173684Y0276111D01*
X0173753Y0276199D01*
X0173824Y0276285D01*
X0173898Y0276369D01*
X0173976Y0276449D01*
X0174056Y0276527D01*
X0174139Y0276603D01*
X0174224Y0276675D01*
X0174312Y0276744D01*
X0174402Y0276810D01*
X0174495Y0276872D01*
X0174590Y0276932D01*
X0174687Y0276988D01*
X0174785Y0277040D01*
X0174886Y0277089D01*
X0174988Y0277134D01*
X0175092Y0277176D01*
X0175197Y0277214D01*
X0175304Y0277248D01*
X0175411Y0277278D01*
X0175520Y0277305D01*
X0175629Y0277327D01*
X0175740Y0277346D01*
X0175850Y0277361D01*
X0175962Y0277372D01*
X0176073Y0277379D01*
X0176185Y0277382D01*
X0176297Y0277381D01*
X0176409Y0277376D01*
X0176520Y0277367D01*
X0176631Y0277354D01*
X0176742Y0277337D01*
X0176852Y0277317D01*
X0176961Y0277292D01*
X0177069Y0277264D01*
X0177176Y0277231D01*
X0177282Y0277195D01*
X0177386Y0277155D01*
X0177489Y0277112D01*
X0177591Y0277065D01*
X0177690Y0277014D01*
X0177788Y0276960D01*
X0177884Y0276902D01*
X0177978Y0276841D01*
X0178069Y0276777D01*
X0178158Y0276710D01*
X0178245Y0276639D01*
X0178329Y0276565D01*
X0178411Y0276489D01*
X0178489Y0276409D01*
X0178565Y0276327D01*
X0178638Y0276242D01*
X0178708Y0276155D01*
X0178774Y0276065D01*
X0178838Y0275973D01*
X0178898Y0275879D01*
X0178955Y0275783D01*
X0179008Y0275684D01*
X0179058Y0275584D01*
X0179104Y0275483D01*
X0179147Y0275379D01*
X0179186Y0275274D01*
X0179221Y0275168D01*
X0179252Y0275061D01*
X0179280Y0274952D01*
X0179303Y0274843D01*
X0179323Y0274733D01*
X0179339Y0274622D01*
X0179351Y0274511D01*
X0179359Y0274400D01*
X0179363Y0274288D01*
X0179363Y0274176D01*
X0179359Y0274064D01*
X0179351Y0273953D01*
X0179339Y0273842D01*
X0179323Y0273731D01*
X0179303Y0273621D01*
X0179280Y0273512D01*
X0179252Y0273403D01*
X0179221Y0273296D01*
X0179186Y0273190D01*
X0179147Y0273085D01*
X0179104Y0272981D01*
X0179058Y0272880D01*
X0179008Y0272780D01*
X0178955Y0272681D01*
X0178898Y0272585D01*
X0178838Y0272491D01*
X0178774Y0272399D01*
X0178708Y0272309D01*
X0178638Y0272222D01*
X0178565Y0272137D01*
X0178489Y0272055D01*
X0178411Y0271975D01*
X0178329Y0271899D01*
X0178245Y0271825D01*
X0178158Y0271754D01*
X0178069Y0271687D01*
X0177978Y0271623D01*
X0177884Y0271562D01*
X0177788Y0271504D01*
X0177690Y0271450D01*
X0177591Y0271399D01*
X0177489Y0271352D01*
X0177386Y0271309D01*
X0177282Y0271269D01*
X0177176Y0271233D01*
X0177069Y0271200D01*
X0176961Y0271172D01*
X0176852Y0271147D01*
X0176742Y0271127D01*
X0176631Y0271110D01*
X0176520Y0271097D01*
X0176409Y0271088D01*
X0176297Y0271083D01*
X0176185Y0271082D01*
X0176073Y0271085D01*
X0175962Y0271092D01*
X0175850Y0271103D01*
X0175740Y0271118D01*
X0175629Y0271137D01*
X0175520Y0271159D01*
X0175411Y0271186D01*
X0175304Y0271216D01*
X0175197Y0271250D01*
X0175092Y0271288D01*
X0174988Y0271330D01*
X0174886Y0271375D01*
X0174785Y0271424D01*
X0174687Y0271476D01*
X0174590Y0271532D01*
X0174495Y0271592D01*
X0174402Y0271654D01*
X0174312Y0271720D01*
X0174224Y0271789D01*
X0174139Y0271861D01*
X0174056Y0271937D01*
X0173976Y0272015D01*
X0173898Y0272095D01*
X0173824Y0272179D01*
X0173753Y0272265D01*
X0173684Y0272353D01*
X0173619Y0272444D01*
X0173558Y0272538D01*
X0173499Y0272633D01*
X0173444Y0272730D01*
X0173393Y0272829D01*
X0173345Y0272930D01*
X0173300Y0273033D01*
X0173259Y0273137D01*
X0173222Y0273243D01*
X0173189Y0273349D01*
X0173160Y0273457D01*
X0173134Y0273566D01*
X0173112Y0273676D01*
X0173095Y0273786D01*
X0173081Y0273897D01*
X0173071Y0274009D01*
X0173065Y0274120D01*
X0173063Y0274232D01*
X0173065Y0274344D01*
X0173071Y0274455D01*
X0173081Y0274567D01*
X0173095Y0274678D01*
X0173112Y0274788D01*
X0173134Y0274898D01*
X0173160Y0275007D01*
X0173189Y0275115D01*
X0173222Y0275221D01*
X0173259Y0275327D01*
X0173300Y0275431D01*
X0173345Y0275534D01*
X0173393Y0275635D01*
X0173444Y0275734D01*
X0173499Y0275831D01*
X0173558Y0275926D01*
X0173619Y0276020D01*
X0173684Y0276111D01*
X0173753Y0276199D01*
X0173824Y0276285D01*
X0173898Y0276369D01*
X0173976Y0276449D01*
X0174056Y0276527D01*
X0174139Y0276603D01*
X0174224Y0276675D01*
X0174312Y0276744D01*
X0174402Y0276810D01*
X0174495Y0276872D01*
X0174590Y0276932D01*
X0174687Y0276988D01*
X0174785Y0277040D01*
X0174886Y0277089D01*
X0174988Y0277134D01*
X0175092Y0277176D01*
X0175197Y0277214D01*
X0175304Y0277248D01*
X0175411Y0277278D01*
X0175520Y0277305D01*
X0175629Y0277327D01*
X0175740Y0277346D01*
X0175850Y0277361D01*
X0175962Y0277372D01*
X0176073Y0277379D01*
X0176185Y0277382D01*
X0176297Y0277381D01*
X0176409Y0277376D01*
X0176520Y0277367D01*
X0176631Y0277354D01*
X0176742Y0277337D01*
X0176852Y0277317D01*
X0176961Y0277292D01*
X0177069Y0277264D01*
X0177176Y0277231D01*
X0177282Y0277195D01*
X0177386Y0277155D01*
X0177489Y0277112D01*
X0177591Y0277065D01*
X0177690Y0277014D01*
X0177788Y0276960D01*
X0177884Y0276902D01*
X0177978Y0276841D01*
X0178069Y0276777D01*
X0178158Y0276710D01*
X0178245Y0276639D01*
X0178329Y0276565D01*
X0178411Y0276489D01*
X0178489Y0276409D01*
X0178565Y0276327D01*
X0178638Y0276242D01*
X0178708Y0276155D01*
X0178774Y0276065D01*
X0178838Y0275973D01*
X0178898Y0275879D01*
X0178955Y0275783D01*
X0179008Y0275684D01*
X0179058Y0275584D01*
X0179104Y0275483D01*
X0179147Y0275379D01*
X0179186Y0275274D01*
X0179221Y0275168D01*
X0179252Y0275061D01*
X0179280Y0274952D01*
X0179303Y0274843D01*
X0179323Y0274733D01*
X0179339Y0274622D01*
X0179351Y0274511D01*
X0179359Y0274400D01*
X0179363Y0274288D01*
X0179363Y0274176D01*
X0179359Y0274064D01*
X0179351Y0273953D01*
X0179339Y0273842D01*
X0179323Y0273731D01*
X0179303Y0273621D01*
X0179280Y0273512D01*
X0179252Y0273403D01*
X0179221Y0273296D01*
X0179186Y0273190D01*
X0179147Y0273085D01*
X0179104Y0272981D01*
X0179058Y0272880D01*
X0179008Y0272780D01*
X0178955Y0272681D01*
X0178898Y0272585D01*
X0178838Y0272491D01*
X0178774Y0272399D01*
X0178708Y0272309D01*
X0178638Y0272222D01*
X0178565Y0272137D01*
X0178489Y0272055D01*
X0178411Y0271975D01*
X0178329Y0271899D01*
X0178245Y0271825D01*
X0178158Y0271754D01*
X0178069Y0271687D01*
X0177978Y0271623D01*
X0177884Y0271562D01*
X0177788Y0271504D01*
X0177690Y0271450D01*
X0177591Y0271399D01*
X0177489Y0271352D01*
X0177386Y0271309D01*
X0177282Y0271269D01*
X0177176Y0271233D01*
X0177069Y0271200D01*
X0176961Y0271172D01*
X0176852Y0271147D01*
X0176742Y0271127D01*
X0176631Y0271110D01*
X0176520Y0271097D01*
X0176409Y0271088D01*
X0176297Y0271083D01*
X0176185Y0271082D01*
X0176073Y0271085D01*
X0175962Y0271092D01*
X0175850Y0271103D01*
X0175740Y0271118D01*
X0175629Y0271137D01*
X0175520Y0271159D01*
X0175411Y0271186D01*
X0175304Y0271216D01*
X0175197Y0271250D01*
X0175092Y0271288D01*
X0174988Y0271330D01*
X0174886Y0271375D01*
X0174785Y0271424D01*
X0174687Y0271476D01*
X0174590Y0271532D01*
X0174495Y0271592D01*
X0174402Y0271654D01*
X0174312Y0271720D01*
X0174224Y0271789D01*
X0174139Y0271861D01*
X0174056Y0271937D01*
X0173976Y0272015D01*
X0173898Y0272095D01*
X0173824Y0272179D01*
X0173753Y0272265D01*
X0173684Y0272353D01*
X0173619Y0272444D01*
X0173558Y0272538D01*
X0173499Y0272633D01*
X0173444Y0272730D01*
X0173393Y0272829D01*
X0173345Y0272930D01*
X0173300Y0273033D01*
X0173259Y0273137D01*
X0173222Y0273243D01*
X0173189Y0273349D01*
X0173160Y0273457D01*
X0173134Y0273566D01*
X0173112Y0273676D01*
X0173095Y0273786D01*
X0173081Y0273897D01*
X0173071Y0274009D01*
X0173065Y0274120D01*
X0173063Y0274232D01*
D15*
X0176213Y0274232D03*
X0176213Y0274232D03*
X0176213Y0231831D03*
X0176213Y0231831D03*
D16*
X0164599Y0240492D03*
X0164599Y0245492D03*
X0164599Y0250492D03*
X0164599Y0255492D03*
X0164599Y0260492D03*
X0164599Y0265492D03*
X0187827Y0265492D03*
X0187827Y0260492D03*
X0187827Y0255492D03*
X0187827Y0250492D03*
X0187827Y0245492D03*
X0187827Y0240492D03*
D17*
X0186252Y0230197D03*
X0166174Y0230197D03*
X0166174Y0275866D03*
X0186252Y0275866D03*
D18*
X0142158Y0214449D03*
X0142158Y0212480D03*
X0142158Y0210512D03*
X0142158Y0208543D03*
X0142158Y0206575D03*
X0142158Y0204606D03*
X0142158Y0202638D03*
X0142158Y0200669D03*
X0142158Y0198701D03*
X0142158Y0196732D03*
X0142158Y0194764D03*
X0142158Y0192795D03*
X0142158Y0190827D03*
X0142158Y0188858D03*
X0142158Y0186890D03*
X0142158Y0184921D03*
X0142158Y0182953D03*
X0142158Y0180984D03*
X0142158Y0179016D03*
X0142158Y0177047D03*
X0142158Y0175079D03*
X0142158Y0173110D03*
X0142158Y0171142D03*
X0142158Y0169173D03*
X0142158Y0167205D03*
X0081134Y0167205D03*
X0081134Y0169173D03*
X0081134Y0171142D03*
X0081134Y0173110D03*
X0081134Y0175079D03*
X0081134Y0177047D03*
X0081134Y0179016D03*
X0081134Y0180984D03*
X0081134Y0182953D03*
X0081134Y0184921D03*
X0081134Y0186890D03*
X0081134Y0188858D03*
X0081134Y0190827D03*
X0081134Y0192795D03*
X0081134Y0194764D03*
X0081134Y0196732D03*
X0081134Y0198701D03*
X0081134Y0200669D03*
X0081134Y0202638D03*
X0081134Y0204606D03*
X0081134Y0206575D03*
X0081134Y0208543D03*
X0081134Y0210512D03*
X0081134Y0212480D03*
X0081134Y0214449D03*
D19*
X0088024Y0221339D03*
X0089993Y0221339D03*
X0091961Y0221339D03*
X0093930Y0221339D03*
X0095898Y0221339D03*
X0097867Y0221339D03*
X0099835Y0221339D03*
X0101804Y0221339D03*
X0103772Y0221339D03*
X0105741Y0221339D03*
X0107709Y0221339D03*
X0109678Y0221339D03*
X0111646Y0221339D03*
X0113615Y0221339D03*
X0115583Y0221339D03*
X0117552Y0221339D03*
X0119520Y0221339D03*
X0121489Y0221339D03*
X0123457Y0221339D03*
X0125426Y0221339D03*
X0127394Y0221339D03*
X0129363Y0221339D03*
X0131331Y0221339D03*
X0133300Y0221339D03*
X0135268Y0221339D03*
X0135268Y0160315D03*
X0133300Y0160315D03*
X0131331Y0160315D03*
X0129363Y0160315D03*
X0127394Y0160315D03*
X0125426Y0160315D03*
X0123457Y0160315D03*
X0121489Y0160315D03*
X0119520Y0160315D03*
X0117552Y0160315D03*
X0115583Y0160315D03*
X0113615Y0160315D03*
X0111646Y0160315D03*
X0109678Y0160315D03*
X0107709Y0160315D03*
X0105741Y0160315D03*
X0103772Y0160315D03*
X0101804Y0160315D03*
X0099835Y0160315D03*
X0097867Y0160315D03*
X0095898Y0160315D03*
X0093930Y0160315D03*
X0091961Y0160315D03*
X0089993Y0160315D03*
X0088024Y0160315D03*
D20*
X0063812Y0187677D03*
X0057119Y0187677D03*
X0051213Y0147520D03*
X0051016Y0140630D03*
X0051016Y0133937D03*
X0044520Y0147520D03*
X0024245Y0147717D03*
X0024245Y0141024D03*
X0056331Y0059331D03*
X0063024Y0059331D03*
X0063024Y0035709D03*
X0056331Y0035709D03*
X0088024Y0048110D03*
X0088024Y0054803D03*
X0100623Y0054803D03*
X0100623Y0048110D03*
X0117158Y0048110D03*
X0117158Y0054803D03*
X0129756Y0054803D03*
X0129756Y0048110D03*
X0146292Y0048110D03*
X0146292Y0054803D03*
X0158890Y0054803D03*
X0158890Y0048110D03*
X0175426Y0048110D03*
X0175426Y0054803D03*
X0188024Y0054803D03*
X0188024Y0048110D03*
X0181725Y0089055D03*
X0181725Y0095748D03*
X0188024Y0103228D03*
X0188024Y0109921D03*
X0168339Y0109921D03*
X0168339Y0103228D03*
X0158890Y0103228D03*
X0158890Y0109921D03*
X0152591Y0095748D03*
X0152591Y0089055D03*
X0139205Y0103228D03*
X0139205Y0109921D03*
X0129756Y0109921D03*
X0129756Y0103228D03*
X0123457Y0095748D03*
X0123457Y0089055D03*
X0110071Y0103228D03*
X0110071Y0109921D03*
X0100623Y0109921D03*
X0100623Y0103228D03*
X0094323Y0095748D03*
X0094323Y0089055D03*
X0080938Y0103228D03*
X0080938Y0109921D03*
X0105937Y0232559D03*
X0112630Y0232559D03*
X0089599Y0304016D03*
X0089599Y0310709D03*
X0075623Y0304213D03*
X0068930Y0304213D03*
D21*
X0068930Y0310512D03*
X0075623Y0310512D03*
X0082512Y0310709D03*
X0082512Y0304016D03*
X0086252Y0274291D03*
X0092945Y0274291D03*
X0102000Y0274291D03*
X0108693Y0274291D03*
X0117749Y0274291D03*
X0124441Y0274291D03*
X0133497Y0274291D03*
X0140189Y0274291D03*
X0154756Y0219961D03*
X0154756Y0214449D03*
X0161449Y0214449D03*
X0161449Y0219961D03*
X0152000Y0159331D03*
X0152000Y0153031D03*
X0145308Y0153031D03*
X0145308Y0159331D03*
X0145504Y0109921D03*
X0145504Y0103228D03*
X0152591Y0103228D03*
X0152591Y0109921D03*
X0158890Y0095748D03*
X0158890Y0089055D03*
X0158890Y0081575D03*
X0152591Y0081575D03*
X0152591Y0074882D03*
X0152591Y0068189D03*
X0152591Y0061496D03*
X0152591Y0054803D03*
X0152591Y0048110D03*
X0145701Y0060906D03*
X0139008Y0060906D03*
X0129756Y0061496D03*
X0129756Y0068189D03*
X0129756Y0074882D03*
X0123457Y0074882D03*
X0123457Y0068189D03*
X0123457Y0061496D03*
X0123457Y0054803D03*
X0123457Y0048110D03*
X0116567Y0060906D03*
X0109875Y0060906D03*
X0100623Y0061496D03*
X0100623Y0068189D03*
X0100623Y0074882D03*
X0094323Y0074882D03*
X0094323Y0068189D03*
X0094323Y0061496D03*
X0094323Y0054803D03*
X0094323Y0048110D03*
X0087434Y0060906D03*
X0080741Y0060906D03*
X0094323Y0081575D03*
X0100623Y0081575D03*
X0100623Y0089055D03*
X0100623Y0095748D03*
X0094323Y0103228D03*
X0094323Y0109921D03*
X0087237Y0109921D03*
X0087237Y0103228D03*
X0087040Y0142795D03*
X0087040Y0149094D03*
X0093733Y0149094D03*
X0093733Y0142795D03*
X0116371Y0109921D03*
X0116371Y0103228D03*
X0123457Y0103228D03*
X0123457Y0109921D03*
X0129756Y0095748D03*
X0129756Y0089055D03*
X0129756Y0081575D03*
X0123457Y0081575D03*
X0158890Y0074882D03*
X0158890Y0068189D03*
X0158890Y0061496D03*
X0168142Y0060906D03*
X0174835Y0060906D03*
X0181725Y0061496D03*
X0181725Y0054803D03*
X0181725Y0048110D03*
X0188024Y0061496D03*
X0188024Y0068189D03*
X0188024Y0074882D03*
X0181725Y0074882D03*
X0181725Y0068189D03*
X0181725Y0081575D03*
X0188024Y0081575D03*
X0188024Y0089055D03*
X0188024Y0095748D03*
X0180937Y0103228D03*
X0180937Y0109921D03*
X0174638Y0109921D03*
X0174638Y0103228D03*
X0078772Y0226260D03*
X0078772Y0232559D03*
X0072079Y0232559D03*
X0072079Y0226260D03*
X0061449Y0207362D03*
X0063615Y0202047D03*
X0063615Y0195354D03*
X0063812Y0181378D03*
X0057119Y0181378D03*
X0057119Y0171929D03*
X0057119Y0165630D03*
X0057119Y0159331D03*
X0063812Y0159331D03*
X0063812Y0165630D03*
X0063812Y0171929D03*
X0048851Y0176654D03*
X0048851Y0182953D03*
X0048851Y0189252D03*
X0042158Y0189252D03*
X0042158Y0182953D03*
X0042158Y0176654D03*
X0054756Y0207362D03*
X0044914Y0229409D03*
X0044914Y0237283D03*
X0038221Y0237283D03*
X0038221Y0229409D03*
X0028969Y0217008D03*
X0028969Y0210315D03*
X0043930Y0140630D03*
X0043930Y0133937D03*
X0039402Y0123110D03*
X0039402Y0116024D03*
X0032709Y0116024D03*
X0032709Y0123110D03*
X0030741Y0056969D03*
X0030544Y0050866D03*
X0030544Y0044173D03*
X0030741Y0037283D03*
X0024048Y0037283D03*
X0024048Y0056969D03*
D22*
X0034284Y0028622D03*
X0045701Y0028622D03*
X0080741Y0040433D03*
X0092158Y0040433D03*
X0109875Y0040433D03*
X0121292Y0040433D03*
X0139008Y0040433D03*
X0150426Y0040433D03*
X0168142Y0040433D03*
X0179560Y0040433D03*
D23*
X0168339Y0047520D03*
X0168339Y0055394D03*
X0139205Y0055394D03*
X0139205Y0047520D03*
X0110071Y0047520D03*
X0110071Y0055394D03*
X0080938Y0055394D03*
X0080938Y0047520D03*
X0051016Y0035709D03*
X0043142Y0035709D03*
X0024245Y0183740D03*
X0024245Y0191614D03*
X0044717Y0243583D03*
X0044717Y0251457D03*
D24*
X0043930Y0108740D02*
X0043930Y0104804D01*
X0048260Y0104804D02*
X0048260Y0108740D01*
X0052591Y0108740D02*
X0052591Y0104804D01*
X0056922Y0104804D02*
X0056922Y0108740D01*
X0061252Y0108740D02*
X0061252Y0104804D01*
X0039599Y0104804D02*
X0039599Y0108740D01*
X0035268Y0108740D02*
X0035268Y0104804D01*
X0030937Y0104804D02*
X0030937Y0108740D01*
X0026607Y0108740D02*
X0026607Y0104804D01*
X0026607Y0070551D02*
X0026607Y0066615D01*
X0030937Y0066615D02*
X0030937Y0070551D01*
X0035268Y0070551D02*
X0035268Y0066615D01*
X0039599Y0066615D02*
X0039599Y0070551D01*
X0043930Y0070551D02*
X0043930Y0066615D01*
X0048260Y0066615D02*
X0048260Y0070551D01*
X0052591Y0070551D02*
X0052591Y0066615D01*
X0056922Y0066615D02*
X0056922Y0070551D01*
X0061252Y0070551D02*
X0061252Y0066615D01*
D25*
X0063418Y0051850D03*
X0059678Y0043189D03*
X0055937Y0051850D03*
X0050032Y0055787D03*
X0042552Y0055787D03*
X0046292Y0047126D03*
D26*
X0080347Y0067575D03*
X0084087Y0067575D03*
X0087827Y0067575D03*
X0087827Y0077858D03*
X0087827Y0086472D03*
X0084087Y0086472D03*
X0080347Y0086472D03*
X0080347Y0077858D03*
X0080347Y0096756D03*
X0087827Y0096756D03*
X0109481Y0096756D03*
X0116961Y0096756D03*
X0116961Y0086472D03*
X0113221Y0086472D03*
X0109481Y0086472D03*
X0109481Y0077858D03*
X0116961Y0077858D03*
X0116961Y0067575D03*
X0113221Y0067575D03*
X0109481Y0067575D03*
X0138615Y0067575D03*
X0142355Y0067575D03*
X0146095Y0067575D03*
X0146095Y0077858D03*
X0138615Y0077858D03*
X0138615Y0086472D03*
X0142355Y0086472D03*
X0146095Y0086472D03*
X0146095Y0096756D03*
X0138615Y0096756D03*
X0167749Y0096756D03*
X0167749Y0086472D03*
X0171489Y0086472D03*
X0175229Y0086472D03*
X0175229Y0077858D03*
X0175229Y0067575D03*
X0171489Y0067575D03*
X0167749Y0067575D03*
X0167749Y0077858D03*
X0175229Y0096756D03*
D27*
X0140682Y0243091D03*
X0138123Y0243091D03*
X0135563Y0243091D03*
X0133004Y0243091D03*
X0124934Y0243091D03*
X0122375Y0243091D03*
X0119815Y0243091D03*
X0117256Y0243091D03*
X0109186Y0243091D03*
X0106626Y0243091D03*
X0104067Y0243091D03*
X0101508Y0243091D03*
X0093437Y0243091D03*
X0090878Y0243091D03*
X0088319Y0243091D03*
X0085760Y0243091D03*
X0085760Y0266122D03*
X0088319Y0266122D03*
X0090878Y0266122D03*
X0093437Y0266122D03*
X0101508Y0266122D03*
X0104067Y0266122D03*
X0106626Y0266122D03*
X0109186Y0266122D03*
X0117256Y0266122D03*
X0119815Y0266122D03*
X0122375Y0266122D03*
X0124934Y0266122D03*
X0133004Y0266122D03*
X0135563Y0266122D03*
X0138123Y0266122D03*
X0140682Y0266122D03*
D28*
X0169914Y0168543D03*
X0169914Y0163543D03*
X0169914Y0158543D03*
X0169914Y0153543D03*
X0169914Y0148543D03*
X0185662Y0148543D03*
X0185662Y0153543D03*
X0185662Y0158543D03*
X0185662Y0168543D03*
D29*
X0079953Y0286299D03*
X0076213Y0286299D03*
X0072473Y0286299D03*
X0072473Y0295354D03*
X0079953Y0295354D03*
D30*
X0088024Y0294567D03*
X0088024Y0287087D03*
X0064402Y0282756D03*
X0064402Y0275276D03*
X0055741Y0275276D03*
X0055741Y0282756D03*
X0032119Y0191417D03*
X0032119Y0183937D03*
X0032119Y0147323D03*
X0032119Y0139843D03*
D31*
X0055741Y0293189D03*
X0065189Y0293189D03*
D32*
X0108497Y0290039D03*
X0108497Y0308937D03*
X0136056Y0308937D03*
X0136056Y0290039D03*
D33*
X0154953Y0292992D03*
X0154953Y0304409D03*
D34*
X0154166Y0282252D03*
X0154166Y0271055D03*
D35*
X0181875Y0213701D02*
X0187875Y0213701D01*
X0187875Y0203701D02*
X0181875Y0203701D01*
X0181875Y0193701D02*
X0187875Y0193701D01*
X0187875Y0183701D02*
X0181875Y0183701D01*
D36*
X0031922Y0175866D03*
X0024441Y0175866D03*
D37*
X0023654Y0165236D03*
X0027394Y0165236D03*
X0031134Y0165236D03*
X0031134Y0155000D03*
X0023654Y0155000D03*
D38*
X0060048Y0150472D03*
X0060048Y0146732D03*
X0060048Y0142992D03*
X0070331Y0142992D03*
X0070331Y0150472D03*
D39*
X0045504Y0206969D03*
X0037630Y0206969D03*
X0037630Y0220354D03*
X0045504Y0220354D03*
D40*
X0041764Y0169370D03*
X0041764Y0160315D03*
X0045504Y0160315D03*
X0049245Y0160315D03*
X0049245Y0169370D03*
M02*
